<?xml version="1.0" standalone="no"?>
<!DOCTYPE svg PUBLIC "-//W3C//DTD SVG 1.1//EN" "http://www.w3.org/Graphics/SVG/1.1/DTD/svg11.dtd" >
<svg xmlns="http://www.w3.org/2000/svg" xmlns:xlink="http://www.w3.org/1999/xlink" version="1.1">
<metadata>
Created by FontForge 20170731 at Sun Aug 12 22:40:33 2001
 By Aleksey,,,
(c) COPYRIGHT H. BERTHOLD AG 1993 Alle Rechte vorbehalten.
</metadata>
<defs>
<font id="BaskervilleBQ-Italic" horiz-adv-x="271" >
  <font-face 
    font-family="BaskervilleBQ-Italic"
    font-weight="5"
    font-style="italic"
    font-stretch="normal"
    units-per-em="1000"
    panose-1="0 0 0 0 0 0 0 0 0 0"
    ascent="800"
    descent="-200"
    x-height="464"
    cap-height="706"
    bbox="-185 -313 1161 906"
    underline-thickness="50"
    underline-position="-225"
    unicode-range="U+0020-F002"
  />
<missing-glyph horiz-adv-x="748" 
d="M46 0v748h656v-748h-656zM656 46v656h-564v-656h564z" />
    <glyph glyph-name=".notdef" horiz-adv-x="748" 
d="M46 0v748h656v-748h-656zM656 46v656h-564v-656h564z" />
    <glyph glyph-name=".null" horiz-adv-x="0" 
 />
    <glyph glyph-name="nonmarkingreturn" 
 />
    <glyph glyph-name="space" unicode=" " 
 />
    <glyph glyph-name="exclam" unicode="!" horiz-adv-x="292" 
d="M257 218q-3 -7 -9 -7q-11 2 -22 4.5t-15.5 7t-4.5 11.5l107 436q5 21 15 28t23 7l7 -1q13 0 33 -8.5t26.5 -17t6.5 -18.5t-13 -46zM116 52q0 24 17 41t42 17t42 -17t17 -41q0 -25 -17 -42t-42 -17t-38.5 13.5t-17 25.5t-3.5 20z" />
    <glyph glyph-name="quotedbl" unicode="&#x22;" horiz-adv-x="396" 
d="M328 445l-32 243q-3 8 -1 23q3 22 17.5 30t28.5 8q12 0 25 -7.5t15 -17t2 -24.5l-36 -255h-19zM141 445l-33 243q-1 7 -1 11q0 8 2 21.5t16 21t29 7.5q12 0 24.5 -7.5t14.5 -17t2 -24.5l-35 -255h-19z" />
    <glyph glyph-name="numbersign" unicode="#" horiz-adv-x="667" 
d="M380 0l38 259h-102l-38 -259h-58l36 259h-167v54h175l13 97h-167v57h174l32 241h63l-34 -241h100l32 241h60l-34 -241h168v-57h-175l-13 -97h168v-54h-174l-36 -259h-61zM437 410h-100l-14 -97h101z" />
    <glyph glyph-name="dollar" unicode="$" horiz-adv-x="583" 
d="M547 802l-30 -105q31 -10 41.5 -14t25 -14.5t22 -16.5t17 -17.5t13.5 -21t4 -19.5q0 -17 -10 -24.5t-21 -7.5q-14 0 -24 11q-10 16 -19 30.5t-23 28t-39 24.5l-75 -256l30 -33l20 -22q39 -45 53.5 -83.5t14.5 -72.5q0 -35 -12 -71t-53.5 -72t-82.5 -44t-91 -8l-33 -111
h-42l35 116q-32 7 -58.5 16t-53.5 34q-17 14 -24.5 28t-7.5 26q0 15 11 27t27 12q24 0 50.5 -38.5t68.5 -59.5l85 290l-59 70q-25 33 -38 63.5t-13 67.5q0 23 5.5 44.5t31 57.5t72 50.5t94.5 14.5h17l29 100h42zM463 662q-29 0 -55 -7t-47.5 -34.5t-21.5 -61.5
q0 -35 14 -59.5t24 -38t20 -25.5zM320 34q10 0 22.5 0.5t42 7.5t54 39t24.5 76q0 24 -7 44.5t-19.5 42.5t-38.5 52z" />
    <glyph glyph-name="percent" unicode="%" horiz-adv-x="792" 
d="M785 439q25 -11 44 -43.5t19 -84.5q0 -84 -29 -151.5t-53.5 -95t-55.5 -49t-71 -21.5q-56 0 -74.5 31t-25 54.5t-6.5 55.5q0 24 1.5 43t9.5 50.5t26 73.5t50 79t62.5 52t54.5 15q16 0 28.5 -2.5t19.5 -6.5zM704 694l-357 -694h-47l357 694h47zM634 294q-17 -44 -31 -99
t-14 -91q0 -17 3.5 -35t14.5 -27.5t18 -12t16 -2.5q30 0 49 20.5t36.5 54t25 55.5t17 52.5t17 72.5t7.5 62q0 22 -3 36.5t-17 24t-31 11.5q-37 0 -63 -36.5t-45 -85.5zM407 692q25 -12 44 -44.5t19 -83.5q0 -85 -29 -152.5t-58.5 -100t-60.5 -49t-61 -16.5q-56 0 -74.5 31
t-25 54.5t-6.5 55.5q0 20 1.5 39t9 52.5t25.5 75t50.5 79t63 52.5t54.5 15q15 0 29 -3t19 -5zM256 547q-8 -22 -26.5 -79t-18.5 -112q0 -17 3.5 -35t15 -28t20 -12t13.5 -2q30 0 49 20.5t36.5 54.5t26.5 59t16.5 55t15.5 68t8 60q0 17 -3.5 34t-17.5 27.5t-30 10.5
q-37 0 -63 -36.5t-45 -84.5z" />
    <glyph glyph-name="ampersand" unicode="&#x26;" horiz-adv-x="833" 
d="M516 535q9 15 14.5 28t5.5 32q0 17 -6 29t-13.5 18.5t-22 12t-33.5 5.5q-26 0 -47 -8t-49 -29.5t-41.5 -57t-13.5 -63.5q0 -15 3 -29.5t7 -23.5q21 0 34.5 -2.5t29.5 -9.5t23.5 -18t7.5 -24q0 -14 -11 -24t-25 -10q-13 0 -22 5t-18 12.5t-20 17.5q-13 9 -29 9
q-8 0 -17 -2.5t-26.5 -14t-29.5 -39t-12 -58.5q0 -38 11 -63.5t39 -64t96.5 -68t148.5 -29.5q68 0 118 19.5t78.5 41.5t41 38t24 40.5t11.5 60.5q0 14 -1.5 23t-10 32.5t-42 48t-97.5 24.5q-67 0 -102 -30t-35 -69q0 -15 5 -26.5t11.5 -16.5t12 -8.5t15.5 -3.5q11 0 16 7
t5 14l-3 21q0 12 10.5 22.5t32.5 10.5t35 -14t13 -36q0 -18 -10 -35.5t-31.5 -27.5t-47.5 -10q-45 0 -75 30t-30 75q0 19 7.5 44.5t37.5 59t81.5 47.5t123.5 14l105 7q41 0 62.5 5t40 16.5t30.5 30t12 51.5q0 22 -10 49.5t-34.5 44.5t-56.5 17q-17 0 -27.5 -5t-9.5 -14
l10 -20q7 -9 7 -24q0 -20 -14 -32t-34 -12q-25 0 -40.5 17.5t-15.5 42.5q0 11 2.5 19t14.5 25.5t38.5 29t59.5 11.5q37 0 59 -10t49 -33t37.5 -56.5t10.5 -63.5q0 -27 -9.5 -59.5t-32 -51.5t-39 -27t-25.5 -10t-20.5 -4t-36 -5.5t-69.5 -3.5q27 -25 44.5 -55t17.5 -79
q0 -32 -10.5 -65.5t-28.5 -62.5q-14 -20 -27.5 -35.5t-29.5 -29t-27.5 -21t-35.5 -21.5t-76 -30t-123 -16q-63 0 -111.5 13t-108 50.5t-87 97.5t-27.5 113q0 56 20.5 92.5t40.5 53t33.5 23.5t32.5 13t27 8q-11 24 -15 40t-4 39q0 27 10 60t34.5 62.5t65.5 53.5t97 24
q17 0 29 -1.5t41 -13.5t44 -36.5t15 -48.5q0 -5 -1 -12.5t-7.5 -26t-21.5 -33.5t-37 -31z" />
    <glyph glyph-name="quotesingle" unicode="'" horiz-adv-x="208" 
d="M141 445l-33 243q-1 7 -1 11q0 8 2 21.5t16 21t29 7.5q12 0 24.5 -7.5t14.5 -17t2 -24.5l-35 -255h-19z" />
    <glyph glyph-name="parenleft" unicode="(" horiz-adv-x="354" 
d="M244 -176q-7 8 -20.5 35.5t-24.5 54.5t-24.5 87.5t-13.5 135.5q0 42 3 75t24.5 122.5t92.5 201t130 151t78.5 50t29.5 10.5q19 0 19 -20q0 -9 -7 -15q-11 -7 -16 -10l-17 -14q-37 -33 -59 -55t-49.5 -60.5t-54.5 -87t-51 -114.5t-35 -134.5t-11 -144.5q0 -40 4 -84.5
t19 -98.5l21 -62l3 -14q0 -12 -8.5 -14t-13.5 -4q-11 0 -19 9z" />
    <glyph glyph-name="parenright" unicode=")" horiz-adv-x="354" 
d="M286 737q8 -9 18.5 -30.5t24 -54t27 -93t13.5 -135.5q0 -41 -3 -75t-24.5 -122.5t-93.5 -201t-128 -150t-78 -49t-32 -11.5q-7 0 -12.5 5.5t-5.5 13.5q0 9 9 16t14 10l16 13q31 27 56 52t52.5 63.5t55 87.5t51.5 115t35 134t11 145q0 42 -4 83.5t-13.5 77t-16.5 54.5
t-10 29l-3 14q0 12 8.5 14t13.5 4q9 1 19 -9z" />
    <glyph glyph-name="asterisk" unicode="*" horiz-adv-x="458" 
d="M471 710q16 -5 23.5 -15.5t7.5 -24.5q0 -8 -3.5 -16t-8 -15.5t-28 -34t-34.5 -36t-17 -9.5q-4 2 -8 5t-4 10t6 42t11 51t9 27q11 18 30 18q3 0 7.5 -0.5t8.5 -1.5zM305 668q7 -5 20.5 -24t27.5 -39q10 -17 17 -30t7 -16q0 -12 -13 -12q-6 0 -12.5 2.5t-20.5 9.5l-47 23
l-24 12q-22 14 -22 39v6.5t4 11.5t15.5 17.5t22.5 8.5q14 0 25 -9zM474 541l54 5l18 -1q24 0 32.5 -12t8.5 -28q0 -19 -9.5 -30.5t-26.5 -11.5q-12 0 -38.5 10t-46 20t-30.5 16.5t-11 14.5q0 7 7 9.5t21 4.5zM374 515l1 -7q0 -8 -16 -21l-11 -9l-27 -22q-26 -20 -38 -26
t-25 -6q-16 0 -28 13t-12 30t11 27t22 14t37.5 7t49.5 6l20 1q10 3 16 -7zM408 505q5 -2 11.5 -17.5t10.5 -25.5l19 -49q1 -3 3.5 -13t2.5 -16q0 -17 -12.5 -29t-31.5 -12q-18 0 -30 12t-12 30l2 15q3 21 10 57t9.5 41t10.5 8z" />
    <glyph glyph-name="plus" unicode="+" horiz-adv-x="667" 
d="M351 0v261h-262v60h262v260h60v-260h261v-60h-261v-261h-60z" />
    <glyph glyph-name="comma" unicode="," horiz-adv-x="250" 
d="M41 -129q33 11 55 24t38.5 32.5t21 30.5t4.5 25q0 13 -12 18t-31.5 14t-19.5 45q0 24 17.5 41.5t41.5 17.5q7 0 13 -1t19.5 -8t25 -26t11.5 -52q0 -19 -9 -54.5t-42 -67.5t-54.5 -43.5t-30 -14t-29.5 -8.5z" />
    <glyph glyph-name="hyphen" unicode="-" horiz-adv-x="354" 
d="M378 308l-12 -63h-242l12 63h242z" />
    <glyph glyph-name="period" unicode="." horiz-adv-x="250" 
d="M100 53q0 25 17 42t43 17q24 0 41 -18t17 -42t-17 -41t-42 -17t-37 12.5t-17 22t-5 24.5z" />
    <glyph glyph-name="slash" unicode="/" horiz-adv-x="313" 
d="M492 706l-390 -706h-67l390 706h67z" />
    <glyph glyph-name="zero" unicode="0" horiz-adv-x="521" 
d="M549 672q14 -11 26 -26t21.5 -38t15.5 -51t6 -66q0 -54 -10.5 -116.5t-32 -113t-35 -76.5t-28.5 -48.5t-33 -42.5t-31 -31t-25 -20.5t-24.5 -16.5t-34.5 -16t-29.5 -11t-22.5 -4.5t-28 -2.5q-26 0 -50 8t-52 31.5t-47 72.5t-19 115q0 61 22 152t65.5 154t56.5 78t45.5 44
t72.5 43t69 14q16 0 43.5 -3t58.5 -29zM379 632q-58 -48 -96.5 -146.5t-61 -186.5t-22.5 -139q0 -13 1 -29.5t7.5 -33t12 -25.5t15.5 -19t25.5 -14t23.5 -4q21 0 42 8.5t47 35.5t53.5 75.5t52 121t41 146t16.5 128.5q0 71 -24 88t-35 20.5t-27 3.5t-32.5 -5.5t-38.5 -24.5z
" />
    <glyph glyph-name="one" unicode="1" horiz-adv-x="521" 
d="M522 696l-210 -696h-92l182 607q-20 -8 -37.5 -14t-43.5 -14l-101 -29v41l51 16q26 7 72.5 24.5t80.5 33.5l58 31h40z" />
    <glyph glyph-name="two" unicode="2" horiz-adv-x="521" 
d="M444 84q25 0 35.5 6t22.5 32h31l-54 -122h-411l19 75l80 70l46 43l29 27l26 26q51 52 95.5 109.5t63 101.5t18.5 80q0 21 -3.5 36t-15.5 30t-26.5 23t-38.5 8q-40 0 -67 -21.5t-43 -51.5l-18 -38l-35 14q15 44 39 79t52 53.5t52 27.5t58 9q23 0 30.5 -1t40 -13
t56.5 -50.5t24 -81.5q0 -7 -0.5 -15.5t-5 -29t-16 -44.5t-25 -45t-48.5 -62q-20 -21 -22 -24l-57 -57q-19 -18 -62 -57.5t-52 -47.5l-101 -89h283z" />
    <glyph glyph-name="three" unicode="3" horiz-adv-x="521" 
d="M238 580q11 21 21 34.5t18.5 22t21 18.5t30.5 20t48 19t67 9q21 0 42 -3.5t44 -19.5l15 -14q9 -10 16 -24.5t7 -33.5q0 -18 -5.5 -36t-13.5 -33.5t-36.5 -44.5t-68 -53t-74.5 -41q42 0 61 -5t41.5 -21.5t35 -41.5t12.5 -67q0 -33 -7.5 -63t-20 -52.5t-21.5 -35.5t-20 -26
l-25 -25q-2 -2 -12.5 -10t-27 -19.5t-56 -25.5t-88.5 -14q-25 0 -47 6t-45 18t-47 41.5t-24 61.5q0 23 12 35t27 12q6 0 11 -2t12.5 -7t10.5 -16t5 -33q3 -17 8 -29t15 -22.5t26.5 -17t37.5 -6.5q35 0 65 19t55.5 49t46 84.5t20.5 95.5q0 46 -14.5 59.5t-25.5 18t-26 4.5
q-11 0 -22.5 -3t-20.5 -10t-20.5 -19t-18.5 -12q-8 0 -15.5 11t-7.5 19q0 7 6.5 13t27.5 17l16 8q27 15 57.5 36.5t54 48.5t40.5 54t17 56q0 8 -3 23t-16.5 24t-27 13t-31.5 4q-28 0 -51.5 -12t-40 -30.5t-23.5 -29l-11 -16.5z" />
    <glyph glyph-name="four" unicode="4" horiz-adv-x="521" 
d="M585 697l-144 -485h63q15 2 21 5.5t12 14t13 26.5h28l-25 -88h-124l-50 -170h-91l50 171h-222q-26 0 -26 16q0 3 9 17l403 493h83zM157 212h194l109 369z" />
    <glyph glyph-name="five" unicode="5" horiz-adv-x="521" 
d="M611 695l-30 -75h-258l-57 -181q26 17 43 25.5t42 11.5l35 3q40 0 68 -15t43.5 -33.5t27 -49t11.5 -72.5q0 -37 -12.5 -87t-49 -105t-94 -90t-125.5 -35q-38 0 -78.5 12.5t-57 41t-21.5 45.5t-5 30q0 23 10 38.5t32 15.5q14 0 22.5 -8t12 -18t3.5 -21q-1 -17 -1 -26
q0 -33 23.5 -51t58.5 -18q37 0 69.5 20.5t48.5 44.5t22.5 36t19.5 39t21.5 71.5t8.5 76.5q0 12 -1.5 25t-7.5 30l-9 21q-22 39 -71 39q-27 0 -52 -12t-39 -29t-26 -42h-45l108 342h310z" />
    <glyph glyph-name="six" unicode="6" horiz-adv-x="521" 
d="M309 423q22 15 51.5 23t52.5 8q39 0 65.5 -14.5t41 -31.5t26 -47t11.5 -70q0 -37 -11.5 -83t-44 -96t-83.5 -85t-107 -35q-35 0 -66.5 16.5t-51.5 44t-33.5 66.5t-13.5 91q0 17 2 41.5t13.5 79t48.5 128.5t74.5 115.5t57 58t63 43.5t124.5 27q30 0 54 -6t38.5 -17t22 -22
t7.5 -23q0 -14 -11 -25t-26 -11q-9 0 -18.5 5.5t-19 18.5t-15.5 19t-19 12t-34 6q-25 0 -52.5 -12.5t-59 -45t-61 -84t-51.5 -112.5zM336 397q-19 -9 -34.5 -23.5t-25.5 -29.5t-16 -26.5t-14 -30t-14 -59.5t-6 -63q0 -42 9.5 -66.5t25.5 -40t30 -20t25 -4.5q13 0 27 4
t24.5 11.5l14 10t12.5 13.5l23 31q22 40 37 95t15 101q0 40 -13.5 65.5t-43.5 35.5q-10 5 -34 5q-10 0 -19 -1.5t-23 -7.5z" />
    <glyph glyph-name="seven" unicode="7" horiz-adv-x="521" 
d="M634 696l-316 -627l-20 -39q-9 -16 -17 -22.5t-18.5 -9.5t-17.5 -3l-14 2q-9 3 -18.5 10.5t-9.5 22.5q0 13 4.5 22.5t7.5 13.5l25 46l310 508h-259q-18 0 -28 -4t-17 -13.5t-13 -29t-12 -43.5h-34l28 166h419z" />
    <glyph glyph-name="eight" unicode="8" horiz-adv-x="521" 
d="M484 331q21 -21 32 -52t11 -63q0 -21 -5 -43t-23.5 -64t-75.5 -79t-127 -37q-22 0 -40 3t-45 13t-60.5 49t-33.5 104q0 33 11.5 70t42 71.5t57 49.5t69.5 27l-22 23q-12 15 -22.5 42t-10.5 61q0 40 12.5 71.5t43 64.5t72 46t77.5 13q19 0 33 -2t44.5 -14.5t53 -48.5
t22.5 -82q0 -40 -21 -89.5t-53 -70t-40.5 -24.5t-33.5 -13q10 -7 17.5 -13t14.5 -13zM357 599q-12 -23 -23 -64.5t-11 -68.5q0 -26 8 -41t19.5 -21.5t22.5 -9t17 -2.5q11 0 25.5 3.5t38 22t43 73t19.5 101.5q0 33 -15 52.5t-50 19.5q-25 0 -50 -14.5t-44 -50.5zM246 280
q-17 -28 -30 -71t-13 -75q0 -48 22.5 -75.5t65.5 -27.5l22 2q11 3 25 9.5t22.5 14t14 13t21 27t30.5 67.5t15 93q0 34 -10.5 53.5t-21 25.5t-24.5 10.5t-35 4.5q-26 0 -53 -16.5t-51 -54.5z" />
    <glyph glyph-name="nine" unicode="9" horiz-adv-x="521" 
d="M442 309q-22 -16 -48.5 -25t-55.5 -9q-15 0 -30 2.5t-41.5 16.5t-53.5 53t-27 104q0 37 12.5 77.5t34.5 72.5q22 35 66.5 68t112.5 33q28 0 50 -6t48.5 -26t49 -66.5t22.5 -119.5q0 -66 -20.5 -139t-43.5 -115t-43 -70.5t-54.5 -63.5t-75.5 -59t-72 -34
q-10 -2 -29.5 -5.5t-36.5 -3.5q-64 0 -100.5 29t-36.5 64q0 18 10.5 32.5t28.5 14.5q19 0 28 -17q4 -5 6 -14t9.5 -25t23 -28t46.5 -12q16 0 31 3.5t42 18.5t56 46t51.5 74.5t30.5 64t28 79.5zM332 623q-27 -32 -43 -90t-16 -107q0 -20 4 -51t23 -44t30.5 -16.5t25.5 -3.5
q28 0 54 13.5t45 37t33.5 67t14.5 103.5q0 57 -22 93.5t-70 36.5q-17 0 -38.5 -8.5t-40.5 -30.5z" />
    <glyph glyph-name="colon" unicode=":" horiz-adv-x="292" 
d="M225 396q0 25 17 42t42 17t42 -17t17 -42t-17 -42t-42 -17q-11 0 -21 3t-20.5 13.5t-14 22.5t-3.5 20zM118 52q0 24 17 41t42 17t42 -17t17 -42t-17 -42t-42 -17q-13 0 -23.5 4.5t-19.5 13.5t-12.5 21t-3.5 21z" />
    <glyph glyph-name="semicolon" unicode=";" horiz-adv-x="292" 
d="M58 -129q22 7 47.5 20t42.5 32.5t23 31.5t6 29q0 13 -12 18t-31 13t-19 45q0 25 17 42t41 17q12 0 16.5 -1t16.5 -8t24.5 -26.5t12.5 -50.5q0 -12 -2 -21.5t-9 -40t-39.5 -61.5t-56 -42.5t-37.5 -16.5t-22 -7zM225 396q0 25 17 42t42 17t42 -17t17 -43q0 -24 -17 -41
t-42 -17t-34.5 9.5t-17 21.5t-7.5 28z" />
    <glyph glyph-name="less" unicode="&#x3c;" horiz-adv-x="667" 
d="M47 319v70l667 320v-64l-600 -291l600 -293v-64z" />
    <glyph glyph-name="equal" unicode="=" horiz-adv-x="667" 
d="M47 173v58h667v-58h-667zM47 349v59h667v-59h-667z" />
    <glyph glyph-name="greater" unicode="&#x3e;" horiz-adv-x="667" 
d="M47 61l600 293l-600 291v64l667 -320v-70l-667 -322v64z" />
    <glyph glyph-name="question" unicode="?" horiz-adv-x="479" 
d="M274 200q4 22 8.5 42.5t13 51.5t17.5 39.5t23 15.5t29.5 13t49 21.5t55 42.5t30.5 51t12.5 44t3.5 37q0 49 -20.5 75t-62.5 26q-10 0 -29.5 -3t-29.5 -16t-15 -33t-11 -32t-20.5 -22.5t-31.5 -10.5q-13 0 -21.5 7.5t-8.5 20.5q0 22 15 52t50 52q17 12 47.5 21.5t67.5 9.5
q24 0 54 -5.5t47 -18.5t23 -19t15.5 -18.5t17 -33t7.5 -48.5q0 -43 -14 -72t-27 -45t-18.5 -21.5t-17 -15t-39 -26.5t-45 -24.5t-33 -14.5t-27.5 -16t-20 -19.5t-10 -15.5q-9 -14 -16.5 -36.5t-14.5 -56.5zM201 52q0 25 17 42t42 17q24 0 41.5 -17.5t17.5 -41.5t-17.5 -41.5
t-41.5 -17.5t-41.5 16.5t-17.5 42.5z" />
    <glyph glyph-name="at" unicode="@" horiz-adv-x="896" 
d="M656 497h59l-30 -136l-13 -62l-13 -61q-4 -19 -8 -41.5t-4 -41.5q0 -15 5 -28.5t27 -13.5q42 0 73.5 45t55 96.5t23.5 128.5q0 44 -11 90.5t-46.5 91t-89 76.5t-134.5 32q-73 0 -138.5 -31.5t-116.5 -90.5t-80.5 -144.5t-29.5 -168.5q0 -66 26 -141t85.5 -112.5
t108.5 -53t117 -15.5q73 0 132.5 18.5t94.5 41.5t54.5 39t43.5 40l24 -30q-58 -60 -143.5 -104.5t-214.5 -44.5q-53 0 -110 10t-127 50t-104 101t-45 109t-11 95q0 59 21 138t74.5 150.5t136 127t204.5 55.5q33 0 64 -4.5t95 -32.5t113 -109.5t49 -181.5q0 -73 -27 -144.5
t-63.5 -107t-64.5 -49.5t-57 -14q-36 0 -54 19.5t-20.5 33t-2.5 24.5v21l-16 -25q-28 -38 -62.5 -54.5t-61.5 -16.5q-11 0 -25.5 2.5t-37.5 15.5t-44.5 51.5t-21.5 100.5q0 67 27 130t67.5 97.5t70.5 45t53 10.5q38 0 62 -17t31.5 -30t11 -21t5.5 -15zM542 489
q-33 0 -57 -21t-42 -53t-37 -86.5t-19 -111.5q0 -37 8 -56.5t20.5 -28.5t23.5 -12.5t23 -3.5q23 0 43 12t35.5 29t32.5 50.5t32 95.5t15 103q-3 35 -23 59t-55 24z" />
    <glyph glyph-name="A" unicode="A" horiz-adv-x="625" 
d="M596 721l-31 -586v-38q0 -17 1.5 -23.5t10 -19.5t25.5 -16.5t34 -3.5l-10 -34h-264l11 34q32 0 57 6.5t31.5 26t6.5 57.5l7 130l-190 -1q-20 -28 -35.5 -50.5t-38 -58t-32 -53.5t-9.5 -27q0 -18 19 -24t49 -6h20l-10 -34h-245l10 34q9 1 21 2.5t35 11t73 81.5l408 592h46
zM312 293h165l15 262z" />
    <glyph glyph-name="B" unicode="B" horiz-adv-x="625" 
d="M32 34q33 3 43 4t26 8t25.5 20t17.5 35l164 514l5 25q0 18 -15.5 25t-68.5 7l10 34l65 -2l64 -1l134 2q59 0 99.5 -11t62.5 -42t27.5 -51t5.5 -40q0 -57 -32 -100.5t-69.5 -57t-64 -19t-44.5 -5.5q31 -6 49 -11.5t42.5 -21.5t46 -48.5t21.5 -81.5q0 -36 -15.5 -79.5
t-66.5 -85t-103 -47t-90 -5.5l-214 3l-136 -2zM341 396h45q35 0 57 2.5t43 10.5t32.5 15.5t33 31t30.5 55.5t9 57q0 16 -3.5 32t-17.5 35t-42.5 26t-67.5 7h-33zM283 218l-31 -99q-2 -8 -5.5 -21.5t-3.5 -17.5q0 -8 3 -15t14 -14.5t36.5 -12t46.5 -4.5q49 0 84.5 15.5t56 41
t36 62t15.5 78.5q0 25 -5.5 44t-24 43t-56.5 32t-121 8z" />
    <glyph glyph-name="C" unicode="C" horiz-adv-x="667" 
d="M765 706h29l-55 -225l-34 1q1 5 2.5 21t1.5 26q0 35 -7 61t-25.5 50.5t-48.5 37.5t-62 13q-39 0 -71.5 -14.5t-55.5 -32.5t-51.5 -57t-57.5 -104.5t-45.5 -135.5t-16.5 -132q0 -16 1.5 -36t10 -51.5t43 -69t101.5 -37.5q39 0 86 19.5t80 65t61 113.5h42l-81 -229h-29
l-13 35l-32 -16q-27 -11 -61 -18t-71 -7q-32 0 -64.5 7t-80.5 37.5t-77 95.5t-29 139q0 35 7.5 81.5t22.5 81.5t23.5 51.5t17.5 32t19.5 30.5t44 57.5t107.5 85t159 42.5q61 0 97 -16.5t70 -44.5z" />
    <glyph glyph-name="D" unicode="D" horiz-adv-x="729" 
d="M34 35h12q31 0 51.5 5.5t29 17t14 28t7.5 24.5l147 474q3 12 7.5 27t4.5 24q0 12 -7 21.5t-19.5 12.5t-28 3t-26.5 1h-22l10 33l124 -1h46t46 1q45 0 70 -1.5t77.5 -11t93 -39.5t61.5 -65.5t34.5 -78t13.5 -101.5q0 -22 -1.5 -40t-13 -66.5t-45 -108.5t-64.5 -88
t-47.5 -39.5t-40.5 -24.5t-45 -21t-46 -13.5t-59 -8.5t-93 -3l-178 3l-124 1zM251 112q-1 -2 -3.5 -14.5t-2.5 -19.5q0 -17 15 -31t69 -14q37 0 83 8.5t89.5 37.5t79 83.5t53 107t23 85t7 54.5t1.5 42q0 40 -9.5 86.5t-44 80.5t-79.5 43t-109 9z" />
    <glyph glyph-name="E" unicode="E" horiz-adv-x="625" 
d="M708 706v-171h-29q-3 24 -7 39.5t-11.5 30.5t-13.5 24t-23.5 21t-43.5 15t-92 3h-64l-84 -266h78q34 0 59 7t41.5 33.5t30.5 67.5h37l-89 -278h-36q6 18 11 39t5 38q0 5 -0.5 10t-7 18.5t-24 18.5t-56.5 5h-30.5t-31.5 1l-79 -250q-2 -4 -4.5 -14.5t-2.5 -20.5
q0 -27 21.5 -31.5t55 -6.5t40.5 -2l60 2q49 0 87 14.5t75 55.5l30 38q5 8 12.5 23.5t12.5 24.5h36l-62 -195h-591l11 34q37 0 54 2.5t31.5 13t22.5 37.5l170 535q5 13 5 21q0 15 -12 21.5t-34 7.5t-34 1h-12l11 33h477z" />
    <glyph glyph-name="F" unicode="F" horiz-adv-x="562" 
d="M733 706v-160l-32 1q-11 44 -21.5 67.5t-27 36t-42 16t-71.5 3.5h-113l-87 -276h99q34 0 52 4t35 20.5t26 36t17 46.5h36l-87 -283h-36q20 60 20 85q0 19 -8.5 29.5t-25.5 16t-45 5.5h-96l-82 -261q-2 -5 -3.5 -11t-1.5 -13q0 -9 5 -18t26.5 -12.5t57.5 -3.5l-11 -35
h-298l10 34q43 0 62.5 4.5t29.5 17.5t15.5 27t9.5 29l152 483q4 12 9 28t5 25t-7 16t-24.5 8t-27.5 1h-11h-31l11 33h511z" />
    <glyph glyph-name="G" unicode="G" horiz-adv-x="750" 
d="M770 706h36l-54 -228h-33l3 47q0 43 -13 72.5t-31.5 48t-46.5 28.5t-56 10q-58 0 -100.5 -27t-66.5 -56q-12 -12 -46.5 -64.5t-64 -144t-29.5 -176.5q0 -31 3.5 -55t12.5 -47.5t43 -55t92 -31.5q35 0 66.5 14.5t49.5 31t25 25.5t13 16l25 104q3 12 3 18q0 10 -6 16t-14 8
t-19 2.5t-18 0.5h-30l11 40h274l-10 -40h-39q-25 -2 -37 -21q-5 -6 -8.5 -16.5t-8.5 -30.5l-46 -195h-20l-36 57q-16 -14 -22 -19t-25.5 -17t-60 -23.5t-78.5 -11.5q-37 0 -76 10t-79 43.5t-67.5 89.5t-27.5 143q0 52 13 108t36 105.5t53 85.5t63 64.5t66 45t60 24.5t57 13
t57 5q49 0 82.5 -10.5t58.5 -26.5l34 -28z" />
    <glyph glyph-name="H" unicode="H" horiz-adv-x="750" 
d="M508 706l-11 -33q-45 0 -59 -9t-19.5 -21t-12.5 -34l-68 -220h313l67 220q3 8 5.5 18.5t2.5 16.5q0 10 -8 18.5t-40 8.5l-31 2l11 33h266l-11 -34h-18t-21.5 -2t-19 -5.5t-14 -11.5t-12.5 -24.5t-12 -38.5l-143 -461q-5 -15 -10 -32.5t-5 -24.5q0 -13 8.5 -21.5
t18.5 -11.5t25.5 -3.5t30.5 -0.5l-10 -35h-291l12 35q28 0 46 2t31.5 9.5t20.5 25t17 48.5l71 230h-312l-68 -223q-7 -20 -12 -36t-5 -25q0 -10 6 -16t13.5 -9t26.5 -5t36 -2l-9 -34h-289l11 35q42 0 60.5 4t30 18t15 25t4.5 18l12 39l143 462q3 10 6.5 21.5t3.5 18.5
q0 12 -8.5 19.5t-24.5 9.5t-41 2h-12l11 34h272z" />
    <glyph glyph-name="I" unicode="I" horiz-adv-x="333" 
d="M508 706l-10 -33l-32 -4t-28.5 -10.5t-20 -22.5t-18.5 -50l-154 -494q-2 -5 -3.5 -13t-1.5 -12q0 -9 4 -13q7 -12 25.5 -15.5t54.5 -3.5l-10 -35h-288l11 35h24q13 0 31.5 3t30 18.5t20.5 40.5l161 520q2 6 4 12.5t2 13.5q0 17 -16 23t-36 6.5t-30 0.5l10 33h270z" />
    <glyph glyph-name="J" unicode="J" horiz-adv-x="313" 
d="M503 706l-11 -33q-27 0 -40.5 -1.5t-29.5 -12t-30 -53.5l-154 -499q-21 -72 -38 -117t-43.5 -82.5t-73 -68.5t-117.5 -31q-38 0 -71.5 9.5t-51.5 27t-23 30t-5 23.5q0 25 15.5 34.5t29.5 9.5t23 -6t15 -23.5t13 -40.5q7 -14 19 -21.5t30 -7.5q19 0 43 11.5t43 34t32.5 52
t27.5 71.5l186 600q2 6 4 14t2 15q0 5 -0.5 7.5t-4 9.5t-17 11t-38.5 4h-29l10 33h284z" />
    <glyph glyph-name="K" unicode="K" horiz-adv-x="667" 
d="M506 706l-11 -33q-57 0 -69.5 -15.5t-21.5 -39.5l-89 -287l305 297q14 14 14 24q-3 9 -8 13.5t-21.5 6.5t-42.5 2l10 32h244l-10 -32q-24 0 -38 -2.5t-27 -8t-21.5 -11t-28.5 -20.5l-220 -207l131 -345l6 -12t11 -15.5t29 -13.5t58 -4l-11 -35h-284l10 36h32h12
q16 0 26 5t10 20q0 6 -1 9l-104 287l-102 -94l-48 -157q-2 -7 -4 -15.5t-2 -16.5q0 -10 5 -20q9 -13 27.5 -16.5t56.5 -3.5l-11 -34h-275l10 34q32 0 47 5.5t22.5 14t11.5 17t6 17.5l161 518q3 10 5 18t2 15q0 22 -21 28.5t-52 6.5h-15l10 33z" />
    <glyph glyph-name="L" unicode="L" horiz-adv-x="604" 
d="M498 672h-13q-35 0 -50.5 -12.5t-28.5 -47.5l-155 -494q-4 -13 -5 -20.5t-1 -15.5q0 -30 30.5 -38t80.5 -8q24 0 46.5 1.5t72 13.5t80.5 50t52 90h38l-58 -191h-564l10 35h18q12 0 21.5 2t26.5 7.5t27 20.5t19 39l159 508q6 21 6 29q0 14 -11.5 22t-38.5 8h-42l11 35h280
z" />
    <glyph glyph-name="M" unicode="M" horiz-adv-x="812" 
d="M409 706l26 -509v-50l27 47l334 512h184l-9 -33q-56 0 -70.5 -14.5t-18.5 -27t-7 -25.5l-125 -498q-4 -15 -4 -29q0 -5 0.5 -9.5t6 -15t29.5 -15.5t50 -5l-9 -34h-294l8 34q41 0 61 6t30.5 21t16 32t8.5 29l103 408l27 87q-14 -26 -20 -37q-16 -24 -23 -36l-355 -544h-31
l-27 479l2 79l-16 -51l-159 -412q-2 -5 -3.5 -12.5t-1.5 -10.5q0 -16 10 -24.5t26.5 -11.5t41.5 -3l-7 -33h-213l10 34q9 1 20 2t25 7t24 20.5t22 42.5l17 38l183 466q5 18 5 25q0 12 -7.5 21.5t-25 13t-47.5 3.5h-15l7 33h184z" />
    <glyph glyph-name="N" unicode="N" horiz-adv-x="708" 
d="M384 706l208 -499q3 -8 8 -21t8 -25l13 59l110 386q6 26 6 34q0 12 -9 19t-24 9t-40 2h-13l10 36h222l-9 -33l-32 -3q-29 -4 -39.5 -17t-16.5 -35l-185 -640h-17l-248 590l-139 -463q-3 -12 -5 -21t-2 -15q0 -17 10.5 -23t32.5 -8t46 -2l-10 -36h-230l9 34q16 0 33.5 3
t30.5 14.5t21.5 27.5t18.5 47l153 507q-4 5 -8.5 10t-14 13t-27.5 12t-45 4l9 34h165z" />
    <glyph glyph-name="O" unicode="O" horiz-adv-x="688" 
d="M632 693q55 -35 84 -101t29 -149q0 -52 -13.5 -114t-44 -117t-53 -84.5t-39.5 -46.5t-35 -30.5t-43.5 -29.5t-61.5 -26.5t-74 -10.5q-40 0 -65.5 9.5t-43.5 22t-25.5 19t-23 23.5t-34.5 54t-25.5 75.5t-6.5 70.5q0 57 14 124.5t60.5 149t118.5 137.5t159 56q35 0 66 -7.5
t57 -24.5zM468 671q-23 -11 -45.5 -31.5t-41.5 -49.5q-18 -24 -31 -50t-34.5 -77.5t-37 -130.5t-15.5 -128q0 -28 5 -59t11.5 -46.5t14.5 -26.5t18.5 -21t27.5 -18t40 -8q11 0 21.5 1.5t35 11.5t48.5 34t51 67.5t54 118.5t34.5 117t11 75.5t3.5 66.5q0 18 -2.5 50.5
t-21.5 65.5q-9 13 -15 20t-19.5 16t-28.5 12.5t-28 3.5h-11q-11 -1 -22 -4.5t-23 -9.5z" />
    <glyph glyph-name="P" unicode="P" horiz-adv-x="562" 
d="M504 706l31 -1q15 -2 30 -3q56 -10 83.5 -38.5t40.5 -58t13 -68.5l-3 -37q-9 -43 -23 -68.5t-52 -56.5t-91 -42t-118 -11l-98 3l-65 -232q-2 -5 -3 -10t-1 -9q0 -16 7.5 -22.5t18.5 -12t60 -5.5l-9 -34h-296l9 35q27 0 42 1.5t36.5 13.5t39.5 71l140 490q3 12 5 21t2 14
q0 9 -7 14q-12 13 -54 13h-30l10 33h282zM327 359l63 -1h21h18q12 2 35.5 4.5t46.5 17t42 41t29.5 65t10.5 70.5q0 53 -17 75t-42.5 31t-90.5 9h-26z" />
    <glyph glyph-name="Q" unicode="Q" horiz-adv-x="688" 
d="M316 -56h19t41.5 -5t61.5 -17.5t73 -34.5l76 -38q65 -33 107 -50t86 -17q18 0 34.5 3.5t39.5 12t41 30t35 62.5l34 -3q-11 -31 -32.5 -72.5t-59 -73t-61 -40t-41.5 -11.5t-30 -3q-32 0 -49 6.5t-46 22t-52.5 33.5t-41.5 32l-87 68q-41 32 -86 50.5t-85 18.5
q-14 0 -33.5 -3.5t-34.5 -11.5t-29.5 -18t-22.5 -10q-25 0 -25 23q0 6 5 13t11 10l48 14q12 3 40 12t45 18l35 24q-12 3 -19.5 5t-24.5 10.5t-39 27.5t-39.5 44t-34 72.5t-16.5 108.5q0 44 4 73.5t20.5 94t80.5 152t114.5 108.5t79 30t64.5 9q64 0 104.5 -27t65 -61
t39.5 -79t15 -115q0 -50 -11 -104t-31.5 -95t-32 -62t-33.5 -51.5t-62 -66.5t-70.5 -50t-55 -20.5t-49.5 -6.5zM402 616q-16 -19 -35.5 -51.5t-41 -79t-41 -130t-19.5 -153.5q0 -58 10.5 -90.5t27.5 -50.5t34.5 -27.5t45.5 -9.5q56 0 90.5 36t63.5 79q45 73 74 178.5
t29 192.5q0 31 -3.5 61t-14.5 49.5t-18.5 28t-16.5 16t-25.5 14t-41.5 6.5q-32 0 -61.5 -19t-56.5 -50z" />
    <glyph glyph-name="R" unicode="R" horiz-adv-x="646" 
d="M713 55q-2 -2 -12.5 -13.5t-26 -24t-43.5 -22t-52 -9.5q-20 0 -40 6t-37.5 29t-23 50t-11.5 89l-5 60l-3 39q-4 36 -18.5 56t-40 28.5t-77.5 8.5l-66 -234q-3 -11 -6 -22.5t-3 -20.5q0 -28 20.5 -35t65.5 -7l-10 -33h-296l9 33q19 -1 40.5 1t38 14.5t23 25.5t16.5 46
l133 470l7.5 30t3.5 22q0 10 -5 15.5t-12 9t-26.5 4.5t-44.5 1l10 35q27 0 82 -1t83 -1h12h37t38 1h11q60 0 94 -11t56 -32.5t29.5 -34.5t14.5 -34.5t7 -48.5q0 -36 -13.5 -67t-47 -62t-76.5 -43t-105 -18l41 -17q27 -16 40.5 -36t20.5 -39.5t10.5 -34.5t9.5 -51l14 -82
q3 -17 10.5 -27.5t19 -17.5t23.5 -7q21 0 33 8.5t31 27.5zM333 387q11 0 34 -1t35 -1q19 0 48.5 4t52.5 17.5t41.5 38t28.5 57t10 65.5q0 22 -5.5 40.5t-23 36.5t-46.5 23t-94 5z" />
    <glyph glyph-name="S" unicode="S" horiz-adv-x="521" 
d="M611 708h34l-39 -214h-34v18q0 26 -1.5 40.5t-8 33t-10.5 27.5t-15.5 27.5t-38.5 31t-56 12.5q-20 0 -38.5 -4.5t-37 -19.5t-25.5 -24.5t-14 -29t-7 -38.5q0 -13 2 -22t6 -26.5t66 -89.5l56 -62q19 -20 27.5 -30.5t25.5 -37.5t25 -55t8 -55q0 -38 -14.5 -76t-34.5 -57.5
t-29.5 -27t-28 -17.5t-46.5 -18.5t-65 -8.5q-38 0 -64 7.5t-51 21.5l-22 15q-10 7 -16.5 15t-14.5 16l-38 -56h-42l53 239l34 -1q-1 -22 -1 -38q0 -13 1 -26t5 -31t12 -34t15 -24l12 -17q17 -18 46 -32t64 -14q18 0 39.5 6t37 16.5t26.5 22.5t16 28t7 24t2 22q0 17 -2 26.5
t-6.5 27t-18 36t-39.5 48.5l-47 55q-16 18 -26 30.5t-25.5 33.5t-27 53t-11.5 67q0 27 5 49t12.5 38t15 27t28.5 35t59.5 38.5t81.5 14.5q21 0 48 -3.5t47 -19t30.5 -26l18.5 -18.5z" />
    <glyph glyph-name="T" unicode="T" horiz-adv-x="604" 
d="M801 706l-50 -164h-35q9 49 9 74q0 11 -2.5 18.5t-9.5 17.5t-24 13.5t-55 3.5h-87l-166 -546q-7 -21 -9 -29.5t-2 -17.5q0 -16 12 -26.5t32 -13t62 -2.5l-11 -34h-333l11 34l31 2q26 0 44 7.5t29.5 21t16.5 24t13 36.5l167 545h-71q-10 0 -20.5 -0.5t-33.5 -4t-40.5 -16
t-35.5 -31.5q-19 -24 -41 -76h-36l61 164h574z" />
    <glyph glyph-name="U" unicode="U" horiz-adv-x="729" 
d="M514 706l-10 -34q-39 0 -51.5 -1.5t-28.5 -12.5t-29 -56l-126 -407q-4 -14 -7 -28t-3 -29q0 -20 8 -40.5t29.5 -36t49 -24.5t70.5 -9q42 0 75.5 10t64 36.5t49 64t37.5 94.5l121 388q5 16 5 24q0 10 -4.5 14.5t-11 8t-26.5 4t-33 1.5h-12l10 33h226l-11 -33
q-24 0 -35.5 -1.5t-23.5 -9t-18 -17t-14 -31.5l-127 -407l-14 -39q-22 -52 -41.5 -80t-42.5 -45t-38.5 -24.5t-33.5 -14t-48 -12.5t-66 -6q-68 0 -116 15.5t-73.5 36.5t-40 49.5t-14.5 59.5q0 19 4.5 39.5t7.5 32.5l121 393q6 20 6 29q0 14 -7 20t-17 9l-56 3l10 33h285z
" />
    <glyph glyph-name="V" unicode="V" horiz-adv-x="625" 
d="M488 706l-12 -33q-39 0 -57.5 -3.5t-26.5 -15.5t-10.5 -27t-2.5 -31l-23 -417l-8 -85l32 57l298 470q3 6 6 13.5t3 13.5q0 7 -6 14t-13.5 8t-25 1t-28.5 1h-22l11 34h251l-11 -32q-30 0 -45 -3.5t-26 -11t-22 -22.5t-26 -39l-412 -626h-59l29 648q0 20 -3 30.5t-15 15.5
t-29 6t-48 1l11 33h290z" />
    <glyph glyph-name="W" unicode="W" horiz-adv-x="938" 
d="M487 706l-11 -34q-23 0 -43 -0.5t-33.5 -10t-16.5 -34.5l-25 -405q0 -18 -1 -28.5t-7 -48.5l27 53l306 508h45l-25 -494l-9 -73l42 71l250 410q3 6 6 12.5t3 14.5q0 13 -11.5 19.5t-38.5 6.5h-42l11 33h247l-11 -33q-41 0 -60.5 -8t-42.5 -37l-408 -654h-38l26 515
q0 12 0.5 18.5t3.5 28.5l-27 -51l-311 -511h-38l27 648q0 19 -3 30t-18 15.5t-41.5 5.5t-34.5 1l11 32h291z" />
    <glyph glyph-name="X" unicode="X" horiz-adv-x="646" 
d="M506 706l-10 -34q-19 0 -35.5 -0.5t-24.5 -5t-11.5 -10t-3.5 -17.5l4 -27l49 -174l178 180q6 6 12 14t6 20q0 10 -11 15.5t-70 5.5l10 33h245l-10 -33q-22 0 -43.5 -4.5t-37.5 -16.5t-37 -31l-227 -232l92 -307l4 -14q4 -9 9 -15t14.5 -10.5t30.5 -6.5t45 -2l-10 -34
h-280l9 34h24q25 0 35.5 8.5t10.5 24.5q0 7 -3.5 18t-5.5 20l-59 201l-189 -196q-16 -18 -26 -30.5t-10 -21.5q0 -14 14 -18t37.5 -5t34.5 -1l-10 -34h-246l10 31q10 0 29.5 5.5t48.5 27.5q26 23 29 25l264 264l-78 264q-7 23 -17 35.5t-27.5 16.5t-47.5 4h-12l10 33h287z
" />
    <glyph glyph-name="Y" unicode="Y" horiz-adv-x="646" 
d="M472 706l-10 -33h-27q-22 0 -37.5 -6.5t-15.5 -26.5l3 -17l73 -229l202 216l18 22.5t6 17.5q0 6 -4 11t-11 8t-29 4t-42 1l9 32h255l-10 -31q-44 0 -61.5 -8t-49.5 -41l-259 -269l-74 -243q-12 -36 -12 -47q0 -13 8.5 -20t27 -9.5t51.5 -2.5l-10 -35h-296l10 34h14
q25 0 48.5 4.5t35.5 23.5t23 58l68 221l-93 284q-11 32 -28.5 40t-71.5 8l10 33h279z" />
    <glyph glyph-name="Z" unicode="Z" horiz-adv-x="604" 
d="M733 706l-4 -18l-546 -652l160 4q44 0 79 4q29 0 59.5 11t46.5 25.5t23.5 22t22.5 27.5t25 44.5t11 28.5h41l-61 -203h-548l5 21l543 649l-157 -5q-60 0 -97.5 -3.5t-66 -30.5t-41 -48.5t-28.5 -58.5h-38l57 182h514z" />
    <glyph glyph-name="bracketleft" unicode="[" horiz-adv-x="375" 
d="M581 752l-12 -44h-140l-242 -853h141l-12 -45h-224l266 942h223z" />
    <glyph glyph-name="backslash" unicode="\" horiz-adv-x="354" 
d="M83 706h59l229 -724h-60z" />
    <glyph glyph-name="bracketright" unicode="]" horiz-adv-x="375" 
d="M460 753l-267 -942h-223l12 44h140l244 854h-142l12 44h224z" />
    <glyph glyph-name="asciicircum" unicode="^" horiz-adv-x="729" 
d="M544 350l-131 274l-134 -274h-76l180 356h64l173 -356h-76z" />
    <glyph glyph-name="underscore" unicode="_" horiz-adv-x="500" 
d="M37 -206v59h520v-59h-520z" />
    <glyph glyph-name="grave" unicode="`" 
d="M250 541l3 -7q-1 -3 -3.5 -6t-7.5 -3q-5 1 -15 7l-128 99q-8 5 -13 11t-5 13q2 6 5.5 8.5t21.5 2.5h11q20 0 26.5 -2t16.5 -15z" />
    <glyph glyph-name="a" unicode="a" horiz-adv-x="479" 
d="M431 459h82l-122 -384l-3 -21q0 -16 16 -16q9 0 17 6t20.5 19.5t23.5 29t25 37.5l29 -20q-35 -54 -68 -87t-77 -33q-30 0 -42 16t-16 36l-1 29q-26 -35 -62 -58.5t-71 -23.5q-27 0 -49.5 14t-35 46.5t-12.5 64.5q0 36 5.5 55.5t21.5 63.5l25 48q13 24 21 36.5t24 32.5
q19 27 52.5 59.5t61 42.5t38.5 12.5t29 2.5q25 0 36.5 -6t27.5 -19zM400 358q10 28 10 38q0 13 -10 24.5t-31 11.5q-35 0 -65 -34t-61 -86.5t-54 -112.5t-23 -112q0 -6 0.5 -12t6.5 -22.5t33 -16.5q12 0 22 4q6 4 13 7.5t24 21.5t30 36.5t25 42.5t31 74z" />
    <glyph glyph-name="b" unicode="b" horiz-adv-x="437" 
d="M373 740l-102 -330l21 21q19 17 42 26t45 9q9 0 22 -2.5t31.5 -14t31 -43t12.5 -69.5q0 -27 -7.5 -66t-20.5 -70.5t-18 -41t-20 -33.5l-24 -32l-22 -25l-29 -26q-33 -26 -72.5 -40.5t-72.5 -14.5q-37 0 -59 16t-26.5 27.5t-7.5 23.5t-3 23q0 28 13 73q13 39 20 64
l136 438l3 15q0 9 -6 13.5t-19.5 6.5t-28.5 2h-23l11 32q29 0 58.5 3t70.5 13l30 10zM276 361q-24 -34 -42.5 -80.5t-37.5 -106.5t-24 -89l-3 -25q0 -18 9.5 -27.5t27.5 -9.5q10 0 22.5 4t22.5 12q39 24 74 86q29 60 41 91t25 84.5t13 81.5q0 15 -7 29t-31 14q-20 0 -44 -16
t-46 -48z" />
    <glyph glyph-name="c" unicode="c" horiz-adv-x="333" 
d="M364 138q-10 -21 -17.5 -35t-22 -35.5t-49 -49.5t-80.5 -28q-24 0 -43.5 11.5t-31.5 27.5t-20 41.5t-8 57.5q0 71 37.5 153.5t81.5 118.5t73 51.5t63 15.5q17 0 32.5 -6t29.5 -20t14 -39q0 -17 -11.5 -31.5t-30.5 -14.5q-13 0 -23 10t-10 23l3 11q2 4 3 8.5t1 8.5
q0 13 -17 13q-7 0 -13.5 -2.5t-17 -9.5t-26.5 -26t-39.5 -58t-47 -110.5t-23.5 -117.5q0 -11 1 -23.5t7.5 -24.5t16.5 -18.5t20 -6.5q12 0 35 11t42.5 40t39.5 70z" />
    <glyph glyph-name="d" unicode="d" horiz-adv-x="479" 
d="M597 732l-201 -649q-7 -22 -7 -32q0 -4 1.5 -11.5t13.5 -7.5q9 0 17 5t18 12.5t25.5 29t31.5 47.5l31 -15q-22 -42 -56.5 -82t-86.5 -40q-27 0 -43 14.5t-19 26t-3.5 20t-0.5 14.5q-8 -9 -14 -16t-20 -18q-46 -41 -97 -41q-14 0 -33 5.5t-30.5 18t-15.5 18t-10 18
t-9.5 32t-3.5 31.5q0 27 6 56.5t25 74.5t54.5 94t61 68.5t44.5 32t28.5 17t24.5 8.5t35 4q18 0 31 -4.5t29 -18.5l61 203l4 20q-3 12 -8.5 15t-23 4.5t-40.5 1.5l10 33h27q13 0 32.5 1t39 4t35.5 6l24 7zM407 395q1 9 1 11q-2 12 -12.5 18t-23.5 6q-51 0 -99 -69.5
t-78 -146.5t-30 -125q1 -13 4 -26.5t18 -22.5q7 -7 23 -7t29.5 8t21.5 16q10 7 30 32.5t33 56t33 86.5z" />
    <glyph glyph-name="e" unicode="e" horiz-adv-x="354" 
d="M369 137q-22 -40 -35.5 -62.5t-40.5 -45t-48 -31.5t-48 -9q-9 0 -19 1.5t-32 11.5t-37 44t-15 74q0 68 32 141t81 126q26 31 66 55t74 24q5 0 10 -0.5t17 -4t27 -18t15 -44.5q0 -25 -15.5 -55t-38 -51.5t-28.5 -26t-23.5 -17.5t-46.5 -29.5t-82 -42.5q-2 -5 -5.5 -28.5
t-3.5 -41.5q0 -72 46 -72q16 0 28.5 7.5t31.5 27t31.5 39t24.5 44.5zM241 247l17 12q25 17 36 26t26 25t28 41t13 41q0 18 -9.5 25t-20.5 7q-19 0 -43 -25t-52.5 -80.5t-40.5 -99.5q12 6 20.5 11t25.5 17z" />
    <glyph glyph-name="f" unicode="f" 
d="M407 446l-10 -36h-101l-112 -411q-22 -71 -35.5 -111t-38.5 -86.5t-62.5 -69.5t-74.5 -23q-42 0 -62 24.5t-20 48.5q0 22 13 37t35 15q16 0 26.5 -9.5t10.5 -23.5q0 -10 -6.5 -23t-6.5 -18q0 -15 15 -15q35 0 56.5 49t38.5 113l136 503h-110l12 35l108 1q22 75 37.5 118
t47 91t78 71.5t85.5 23.5q22 0 38.5 -5t30 -13t23 -21.5t9.5 -30.5t-11.5 -29.5t-29.5 -12.5q-11 0 -22 7t-15.5 15t-9.5 23l-5 14q-2 6 -6.5 9.5t-18.5 3.5q-16 0 -26.5 -5t-25 -16.5t-26.5 -33.5t-31 -85l-35 -124h101z" />
    <glyph glyph-name="g" unicode="g" horiz-adv-x="396" 
d="M428 334q0 -25 -9.5 -63t-31 -63.5t-35.5 -38t-34.5 -22.5t-50 -14.5t-46 -6t-32 -4t-29 -9t-18.5 -14t-5 -17.5q0 -11 9 -24.5t76.5 -27t77.5 -16t34 -12t50 -34t26 -67.5q0 -39 -20.5 -71.5t-52.5 -57t-73 -31t-74 -6.5q-35 0 -56.5 3.5t-37 9.5t-28.5 12.5t-27 17.5
t-29 33t-15 52q0 37 25.5 65.5t63.5 28.5q10 0 22 -4t12 -13q0 -5 -13 -14q-10 -5 -18 -14t-15 -22t-7 -27t5 -25.5t17.5 -27t44.5 -27t74 -11.5q34 0 63 8.5t45.5 24t23 30.5t6.5 28q0 8 -2 17t-10.5 20.5t-26.5 22t-68 26t-89 27t-49.5 22.5t-16.5 17.5t-8 13t-3.5 15.5
t-1.5 14q0 21 11 38t25 27t35.5 18t43.5 13l-22 18q-18 18 -26.5 42.5t-8.5 46.5q0 20 4 39t11.5 39t21 41.5t23.5 31.5t23 20t26.5 18t31 12.5t34.5 4.5q5 0 12 -0.5t22.5 -4t27 -11t24.5 -19.5q13 15 20.5 20.5t23 11.5t25.5 6q23 0 34 -12.5t11 -26.5q0 -31 -32 -31
q-11 0 -18 6.5t-14 13.5q-5 3 -10 3q-7 0 -25 -9q14 -25 18.5 -37.5t4.5 -42.5zM240 369q-16 -31 -28.5 -77t-12.5 -75q0 -19 4.5 -31t14 -19t24.5 -7l17 2q22 6 39.5 27.5t29.5 52t22.5 71.5t10.5 68q-1 12 -4.5 26t-20.5 23q-13 5 -28 5q-26 0 -44.5 -25.5t-23.5 -40.5z
" />
    <glyph glyph-name="h" unicode="h" horiz-adv-x="479" 
d="M385 738l-121 -367q23 28 34 39.5t35 27t42.5 22t39.5 6.5q5 0 12.5 -0.5t26.5 -6t29 -26t10 -39.5q0 -22 -21 -87l-36 -113l-18 -62q-8 -26 -15 -50t-7 -32q0 -16 17 -16q20 0 44 30t46 65l31 -15q-16 -25 -26.5 -40t-22.5 -30t-39.5 -35.5t-64.5 -20.5q-29 0 -47 18
t-18 47q0 24 21 89l12 38l40 132q12 39 16.5 55.5t4.5 28.5q0 10 -5 16.5t-21 6.5q-19 0 -52 -23q-35 -27 -48.5 -47t-21 -32.5t-19 -34t-37 -106t-51.5 -176.5h-86l203 649q1 2 2.5 9.5t1.5 11.5q0 11 -5 14.5t-14 5.5l-53 3l8 33q68 0 90.5 3.5t69.5 17.5z" />
    <glyph glyph-name="i" unicode="i" horiz-adv-x="292" 
d="M268 619q0 22 15 37t37 15t37 -15t15 -38q0 -22 -15.5 -36.5t-36.5 -14.5q-22 0 -37 15t-15 37zM327 117q-8 -15 -20 -35t-29 -41q-10 -10 -25.5 -24t-29 -18.5t-20.5 -6t-17 -1.5q-36 0 -47.5 13.5t-16 21t-4.5 19.5q0 13 4 27.5t13 41.5l79 237q6 19 8.5 28t2.5 17
q0 15 -13 15q-8 -2 -15.5 -7.5t-18.5 -23.5t-32 -58l-34 10l17 34q27 52 57.5 75t61.5 23q14 0 26.5 -4.5t20.5 -15.5t10 -19.5t2 -17.5q0 -8 -1 -16.5t-5 -23.5l-83 -260q-6 -16 -9 -26t-3 -18q0 -19 15 -19q10 0 25 16.5t24 29t25 43.5z" />
    <glyph glyph-name="j" unicode="j" 
d="M91 328l12 23q12 25 46 69t99 44q14 0 22 -3.5t17.5 -12t11.5 -17t2 -19.5q0 -31 -14.5 -82.5t-26.5 -93.5l-89 -291q-7 -19 -22.5 -65t-42.5 -86.5t-63.5 -63.5t-78.5 -23q-31 0 -55 16t-24 48q0 12 3 17q2 10 13 21t28 11t25 -11t8 -21q-1 -4 -1.5 -9t-5.5 -14.5
t-5 -13.5q0 -11 16 -11q24 0 40 16t24 30.5t19 47.5t25 77l139 452q2 8 3.5 13.5t1.5 11.5q0 19 -17 19q-13 0 -28.5 -15.5t-26.5 -36t-20 -37.5zM254 620q0 20 15 35t35 15q21 0 35.5 -14.5t14.5 -35.5q0 -20 -15 -35t-35 -15q-9 0 -17.5 2.5t-17 12t-12 19t-3.5 16.5z" />
    <glyph glyph-name="k" unicode="k" horiz-adv-x="458" 
d="M387 738l-147 -474q30 34 60 66.5t56 55.5l42 35q53 40 86 40q23 0 37 -11t14 -30q0 -13 -11 -25t-32 -12q-5 0 -13 2t-15 4l-18 2q-14 0 -27 -5t-36.5 -22.5t-51.5 -46.5l-40 -44q15 -2 32 -7t29 -18t16.5 -26t7.5 -32t7 -68.5t11.5 -63.5t21.5 -14q13 3 25 12.5
t21.5 29.5t17.5 46l32 -13q-13 -37 -27 -62t-34.5 -40.5t-37.5 -21t-32 -5.5q-8 0 -15 1t-22 8.5t-25.5 26.5t-10.5 56q0 25 2.5 65t2.5 46t-0.5 12t-4 15.5t-13 18t-27.5 8.5q-12 0 -22 -4.5t-17 -8.5l-71 -234h-84l205 656l5 22q0 6 -5.5 9.5t-20.5 4.5l-50 1l11 34
q10 0 21 -0.5t22 -0.5l38 3l41 7l34 10z" />
    <glyph glyph-name="l" unicode="l" 
d="M389 738l-203 -643l-4 -25q0 -22 22 -22q8 0 16.5 3.5t21.5 14.5t28.5 34.5t27.5 51.5l33 -15q-16 -31 -23 -43t-24.5 -37.5t-47.5 -45t-63 -19.5q-34 0 -53 21t-19 56q0 12 2 23.5t9 35.5l167 533l3 18q0 12 -18 14l-58 2l12 33h37h13q24 0 46.5 3.5t62.5 14.5z" />
    <glyph glyph-name="m" unicode="m" horiz-adv-x="729" 
d="M645 72q-2 -4 -3 -9t-1 -10q0 -7 4.5 -12.5t13.5 -5.5q3 1 6.5 2t16 8t29.5 29.5t35 53.5l27 -20q-34 -56 -65 -87t-79 -31q-29 0 -47.5 17.5t-18.5 46.5q0 17 12 59l75 240q5 19 6.5 25t1.5 13q0 28 -27 28q-13 -1 -25.5 -7t-34 -24.5t-48 -56t-72.5 -175.5l-48 -156
h-85l106 340q4 14 7.5 27t3.5 23q0 15 -8.5 21t-17.5 6q-6 0 -10.5 -1t-16 -5t-27 -16.5t-36.5 -39t-39 -68.5t-40 -107l-55 -180h-84l107 345q3 11 6.5 24.5t3.5 21.5q0 14 -13 14q-9 0 -26 -15t-29 -33.5t-25 -42.5l-31 10l19 36q6 11 21.5 32.5t31 37.5t34.5 25t35 9
q20 0 34.5 -13.5t14.5 -46.5q0 -16 -6 -57q6 12 13.5 24t29 35.5t52 40.5t60.5 17q33 0 51.5 -22.5t18.5 -56.5l-4 -36l10 15q28 45 68 72t83 27q19 0 30 -4t29 -17t18 -50q0 -22 -17 -76z" />
    <glyph glyph-name="n" unicode="n" horiz-adv-x="500" 
d="M549 120l-17 -30q-9 -18 -32 -44.5t-41 -38.5q-18 -10 -33.5 -14.5t-30.5 -4.5q-33 0 -47.5 19t-14.5 39q0 12 7 37t9 32l72 214q4 15 9.5 33.5t5.5 26.5q0 27 -27 27q-16 0 -35 -14q-15 -9 -29 -23t-33.5 -43t-36.5 -65.5t-43 -119.5l-45 -151h-85l107 343q2 5 6.5 23
t4.5 23q0 19 -16 19q-10 0 -18.5 -7.5t-18 -21t-20.5 -32t-17 -31.5l-36 10q21 38 36 61.5t33 41.5t34 27t34 9q25 0 38.5 -15.5t13.5 -43.5q0 -21 -6 -43.5t-8 -29.5q8 13 18 28t36 44.5t56 45.5t56 16q34 0 55.5 -23.5t21.5 -58.5q0 -23 -8.5 -52.5t-22.5 -67.5l-52 -160
q-5 -13 -8.5 -24t-3.5 -19q0 -20 18 -20q11 0 18.5 5.5t17 15t22 29t24.5 43.5z" />
    <glyph glyph-name="o" unicode="o" horiz-adv-x="417" 
d="M421 418q14 -20 22 -46.5t8 -64.5q0 -67 -22.5 -126.5t-56 -106.5t-77 -67t-73.5 -20q-31 0 -53.5 16t-37.5 38.5t-19.5 54t-6.5 58.5q0 55 16.5 110.5t39 89t39 51t38.5 33t42.5 21.5t28 7t13.5 1q32 0 56.5 -10.5t42.5 -38.5zM293 415q-36 -28 -58.5 -83t-40 -124.5
t-17.5 -109.5q0 -13 2 -27t8 -24t16 -17t22 -7q14 0 30 10t31.5 32t25 41t22.5 57q14 33 30.5 100t16.5 101q0 33 -8.5 44.5t-19 17t-26.5 5.5q-7 0 -16.5 -4.5t-17.5 -11.5z" />
    <glyph glyph-name="p" unicode="p" horiz-adv-x="479" 
d="M366 597l-18 -47l-32 -77l-25 -71q4 6 10 13.5t21 21t40 22t41 8.5q27 0 46 -11t33.5 -27.5t23 -46.5t8.5 -61q0 -66 -30 -141.5t-67 -114.5t-73 -57t-71 -18q-20 0 -37.5 5.5t-26.5 14.5t-13.5 15t-8.5 14l-5 -20l-64 -206q-2 -5 -3 -11t-1 -11q0 -11 7 -15t24 -4.5
t35 -0.5l-10 -34h-231l10 33h32q26 0 36 8.5t19 35.5l148 466l29 84l24 60l-13 -19l-22 -32l-34 -53l-32 -54l-25 -46h-37q33 65 64 113l67 101l43 65l34 98h84zM336 407q-28 -23 -49 -72t-39.5 -109.5t-26.5 -89.5t-8 -49q0 -26 14.5 -42.5t39.5 -16.5q28 0 50.5 17
t43.5 55.5t37.5 89t27 99t10.5 69.5q0 20 -5 34.5t-17.5 24.5t-32.5 10q-12 -1 -21 -4.5t-24 -15.5z" />
    <glyph glyph-name="q" unicode="q" horiz-adv-x="437" 
d="M421 457h81l-198 -647q-1 -4 -2.5 -10.5t-1.5 -11.5q0 -6 2.5 -10t12.5 -6t18 -2h30l-10 -33h-229l10 33h13q20 0 34.5 1.5t22 9t10.5 15.5t3 9l68 219q-25 -19 -42 -26.5t-43 -7.5q-46 0 -68 25.5t-31 50t-9 62.5q0 11 1 24t7.5 44.5t29.5 89.5t61.5 100t73 61t69.5 19
q34 0 48.5 -14t26.5 -37zM375 321q7 22 9 31t2 23q0 20 -12.5 34.5t-32.5 14.5q-52 0 -96.5 -90t-60.5 -160l-8 -46l-1 -30q0 -22 4 -33.5t17 -22t29 -10.5q23 0 42.5 14.5t31.5 37.5l13 29z" />
    <glyph glyph-name="r" unicode="r" horiz-adv-x="354" 
d="M258 206q-14 -39 -32.5 -98.5t-32.5 -107.5h-79l36 134q12 42 23 81t20.5 79t14.5 67t5 38q0 12 -4 16t-7 5t-5 1q-7 -1 -14 -7q-7 -9 -12.5 -16.5t-17 -32.5t-19.5 -47l-37 2q27 74 52 110t63 36l12 -2t23.5 -12t17.5 -69l-2 -48l-6 -34q27 58 45.5 92.5t38.5 50.5
t31 18l18 4q13 0 23.5 -8t16 -19.5t5.5 -30.5q0 -4 -0.5 -11.5t-5.5 -17.5t-13 -16t-16 -6q-5 0 -6.5 1l-4.5 3t-10 12.5t-11.5 15t-12.5 4.5t-17.5 -12t-26.5 -44.5t-23 -48.5l-18 -46z" />
    <glyph glyph-name="s" unicode="s" horiz-adv-x="313" 
d="M353 447q19 -12 25 -25.5t6 -23.5q0 -18 -10 -29t-28 -11q-9 0 -16.5 5.5t-11.5 23t-6.5 23t-11.5 11.5t-24 6q-14 0 -24.5 -4.5t-18 -13t-10.5 -16.5t-3 -16q0 -15 7.5 -32.5t26.5 -53.5l22 -44q13 -26 27 -56.5t14 -64.5q0 -27 -11 -52.5t-32 -45t-45.5 -29.5
t-63.5 -10q-16 0 -28.5 2t-33.5 12.5t-36.5 33t-15.5 45.5q1 10 4 18t12 14t19 6q11 0 21.5 -8t15 -21.5t4.5 -30.5q0 -21 9.5 -28.5t35.5 -7.5l21 2q20 6 36 19t16 41q0 23 -25.5 72.5t-50 98t-24.5 83.5q0 14 2 25t12.5 33.5t44.5 44.5t78 22q24 0 39 -3.5t32 -14.5z" />
    <glyph glyph-name="t" unicode="t" horiz-adv-x="292" 
d="M351 595l-47 -149h73l-10 -36h-74l-95 -300q-5 -16 -8.5 -27t-3.5 -22q0 -13 8.5 -17t11.5 -4q9 0 15 4t23 19t34 46.5t27 51.5l33 -16l-16 -31q-18 -35 -38.5 -61.5t-35 -36.5t-23 -14.5t-23.5 -9t-28 -4.5q-10 0 -22.5 3t-21 10t-17.5 21t-9 36q0 9 2.5 20.5t5.5 21.5
l25 85l72 225h-71l11 36h72l47 149h83z" />
    <glyph glyph-name="u" unicode="u" horiz-adv-x="500" 
d="M530 454l-114 -361q-5 -17 -7 -25.5t-2 -12.5q0 -16 14 -16q7 0 12.5 3.5t17.5 17.5t20 26.5t25 43.5l31 -16q-31 -54 -61 -89t-70 -35q-6 0 -13.5 1.5t-15.5 7t-17 22.5t-9 39q0 13 2 23.5t9 33.5q-16 -27 -39.5 -55t-39.5 -39.5t-25 -16.5t-25.5 -11t-34.5 -6
q-11 0 -24.5 5t-29 23t-15.5 48q0 36 31 123l60 169q10 27 10 39q0 16 -14 15q-3 -1 -6.5 -2t-12 -7t-20 -24t-27.5 -52l-33 11q17 35 34.5 62.5t34.5 41t31 19t31 5.5q29 0 44.5 -18.5t15.5 -48.5q0 -22 -21 -85l-57 -163l-15 -48q-2 -6 -5.5 -20.5t-3.5 -20.5
q0 -23 24 -23q17 0 36 16t33.5 33.5t29.5 37.5t34 61.5t48 126.5l44 141h85z" />
    <glyph glyph-name="v" unicode="v" horiz-adv-x="417" 
d="M101 362q7 27 14.5 46t16.5 33.5t19 20t20 5.5q13 0 21 -4.5t22 -22t20.5 -23t15.5 -5.5q16 0 24 19t12 30q10 3 17 1q8 -4 11 -10.5t5 -12.5q-3 -11 -7 -19t-16 -31l-18 -34q-14 -26 -36.5 -75.5t-30.5 -76t-11 -41.5t-5 -22q0 -3 -1.5 -17.5t-1.5 -17.5q0 -12 4.5 -30
t18 -26t27.5 -8q19 0 39 12.5t36.5 31.5t38 60t27.5 65l11 38q6 24 8 34.5t2 22.5q0 19 -9 47t-13.5 44.5t-5.5 21t-1 11.5q0 14 10 24t24 10q12 0 18 -6q16 -11 21.5 -36t5.5 -55q0 -15 -1.5 -29t-7.5 -49t-25.5 -89.5t-44.5 -97t-44 -59t-32.5 -25t-24.5 -13.5t-28 -9.5
t-33 -4.5q-14 0 -24.5 1.5t-32 12.5t-33.5 34.5t-12 53.5q0 17 4.5 38t20.5 60t43 80t66 97q-12 -2 -16 -2q-13 0 -46 19q-22 11 -29 11q-13 0 -18 -11.5t-7 -28.5z" />
    <glyph glyph-name="w" unicode="w" horiz-adv-x="708" 
d="M111 363q4 16 9 32.5t13 32.5q13 22 21 32t28 10q9 0 20 -7t21.5 -19.5t19.5 -22t18 -9.5q5 0 10.5 5.5t9 20.5t5.5 19.5t5 5t8 1.5q11 0 17.5 -9.5t6.5 -17.5q0 -7 -4.5 -15t-8.5 -15l-14 -22l-29 -55q-34 -67 -49.5 -107.5t-20 -67.5t-4.5 -50q0 -13 3.5 -28.5t17 -26
t29.5 -10.5q40 0 86.5 45.5t47.5 46.5l-2 57q0 30 9 80t34 98q14 31 36 58q18 20 35 30.5t36 10.5t31.5 -14.5t12.5 -41.5q0 -10 -2 -25t-10.5 -43t-27.5 -63.5t-59 -89.5l-21 -27q12 -59 23.5 -78t25.5 -30t32 -11q34 0 66.5 30.5t54.5 71.5l17 38q12 32 18 64t6 57
q0 15 -2 22.5t-10.5 28.5t-13.5 38t-5 32v7t3.5 13t12 15t21.5 7q12 0 22 -8.5t15.5 -23.5t8 -32t2.5 -37q0 -44 -12.5 -103.5t-37 -106t-43 -75t-46.5 -51t-50.5 -32.5t-55.5 -10q-19 0 -33.5 5t-32.5 18t-28 30t-21 48q-39 -43 -79.5 -72t-93.5 -29q-6 0 -18.5 1
t-37.5 15.5t-35.5 41t-10.5 56.5q0 12 2.5 28t12 43.5t34 68.5t59.5 86l40 53q-20 -7 -30 -7t-15 1.5t-24 11t-24 9.5q-12 0 -17.5 -10t-9.5 -30zM525 362q7 24 7 35q-1 11 -4.5 17t-11.5 6q-5 0 -9 -3t-16 -15.5t-24 -51.5t-16.5 -70t-4.5 -66q32 44 51 80t28 68z" />
    <glyph glyph-name="x" unicode="x" horiz-adv-x="458" 
d="M451 326q9 25 13.5 41.5t4.5 23.5q0 13 -13 13q-8 0 -19.5 -11.5t-22.5 -25.5t-17 -21l-66 -86l40 -146q2 -10 4.5 -19t6 -18.5t12.5 -9.5q7 0 11.5 4.5t11 14t12.5 21.5t16 33l31 -9q-12 -31 -24.5 -55.5t-30 -46t-30.5 -30.5t-31 -9q-13 0 -22 8q-15 10 -22.5 28.5
t-13.5 42.5l-30 115l-39 -51q-26 -33 -42 -53t-37.5 -44.5t-39 -35.5t-31.5 -11q-31 0 -31 34q0 28 13 61t22 55l32 -8q-7 -16 -16 -37.5t-9 -33.5q0 -11 11 -11q8 2 11 4.5t23 24t21 23.5l100 127l-34 134q-3 12 -7 20.5t-10 8.5q-11 0 -23 -22t-19 -54l-32 11
q15 44 29.5 75t31 44t28.5 16.5t19 3.5q13 0 23 -8t21 -36.5t32 -117.5l55 72l39 47q39 43 65 43q12 0 21.5 -9t9.5 -29q0 -25 -6.5 -47.5t-21.5 -62.5z" />
    <glyph glyph-name="y" unicode="y" horiz-adv-x="396" 
d="M84 303q2 22 7 55t19 63q10 18 24.5 32.5t38.5 14.5q10 0 21 -4t29.5 -24t31.5 -74.5t21 -109.5t8 -119v-57l42 84q22 51 38 98q18 62 18 87q0 17 -3.5 24.5t-14 17.5t-17.5 20.5t-7 23.5q0 10 7 21t24 11q15 0 37 -17t22 -75q0 -22 -4 -44t-21.5 -78t-42.5 -111
t-64 -128.5t-77.5 -135.5t-70.5 -99q-19 -24 -52 -48t-68 -24q-25 0 -38.5 12.5t-13.5 27.5t11.5 24.5t27.5 9.5q7 0 22 -3t23 -3q13 0 26 5t30 22l21 21l16 23q4 6 11.5 19.5t18.5 40.5l14 43q6 23 11.5 61.5t5.5 84.5q0 48 -4 83.5t-6.5 55t-8 47t-15 64t-14.5 44t-8 9.5
t-7 3q-7 0 -15 -10t-12.5 -24t-7 -34.5t-2.5 -43.5z" />
    <glyph glyph-name="z" unicode="z" horiz-adv-x="375" 
d="M471 14q-16 -45 -17 -48t-16.5 -31.5t-39 -43.5t-46.5 -15q-11 0 -19 2t-26.5 10t-33.5 23t-49 53l-36 38q-13 13 -28.5 23t-31.5 10q-18 0 -28.5 -8t-15 -16.5t-8 -14.5t-19.5 -6q-7 1 -13.5 3.5t-6.5 12.5q0 9 10 30.5t32.5 54t46.5 56.5t55 51l39 34l64 49
q21 17 46.5 37.5t66.5 57.5q-14 -3 -29.5 -4.5t-23.5 -1.5q-16 0 -31.5 2t-41.5 6l-32.5 5t-18.5 1q-26 0 -36 -16t-10 -43l-32 2q6 45 13 67.5t30 46t56 23.5q5 0 11 -0.5t22 -5t36.5 -14.5t41 -19t30.5 -12.5t19 -3.5q6 1 12.5 2t11 6.5t4.5 16.5v13q2 16 25 16
q12 -2 18.5 -5.5t6.5 -11.5q0 -12 -14 -34t-28.5 -41.5t-42.5 -47.5l-36 -36l-53 -46l-95 -78q-51 -41 -67.5 -56t-41.5 -45q3 1 19 3.5t25 2.5q52 0 114 -44t77.5 -53.5t39.5 -9.5t37 12.5t24 44.5z" />
    <glyph glyph-name="braceleft" unicode="{" horiz-adv-x="354" 
d="M199 583q0 43 9 74t28 48.5t31.5 24t21.5 9t34 5.5t38 4l-1 -6q-29 -8 -45 -16t-29 -27.5t-17.5 -44.5t-4.5 -55v-23v-99l-1 -105q-2 -17 -6 -42t-15.5 -42t-24 -25t-32.5 -15q18 -6 25.5 -9.5t29 -25.5t23.5 -64t2 -117v-111q0 -48 2.5 -67t14 -43t28.5 -35t51 -21
l-1 -5l-32 3q-27 0 -50.5 9.5t-43.5 30.5t-27 54.5t-7 77.5v19v130l-1 33q0 38 -4 63.5t-17.5 43.5t-23.5 23.5t-23 9.5v5q14 3 23.5 8t23.5 22t17.5 48.5t3.5 83.5v169z" />
    <glyph glyph-name="bar" unicode="|" horiz-adv-x="229" 
d="M132 -250v998h59v-998h-59z" />
    <glyph glyph-name="braceright" unicode="}" horiz-adv-x="354" 
d="M250 -43l-1 -43q0 -42 -9 -73.5t-28.5 -49t-34 -24.5t-23 -10t-28 -5t-38.5 -2v5q29 8 44.5 16t29 27.5t18 45.5t4.5 54v23v100q0 17 1 52t1 53q0 26 4.5 46.5t16.5 38t26.5 25.5t29.5 13q-17 6 -26.5 11.5t-25 21.5t-22 49.5t-6.5 91.5v42v152q0 27 -8 55.5t-28.5 42.5
t-28 17t-30.5 10v6l31 -3q38 -5 57.5 -13t40.5 -31t26.5 -58.5t5.5 -89.5v-162q0 -38 4 -63.5t17.5 -43t22.5 -23t24 -11.5v-5q-16 -5 -25.5 -10t-20.5 -18.5t-16 -44.5t-5 -68v-21v-126z" />
    <glyph glyph-name="asciitilde" unicode="~" horiz-adv-x="729" 
d="M388 269q-12 6 -34 15.5t-49 9.5q-30 0 -46 -14t-45 -51l-33 55q20 30 48.5 54.5t75.5 24.5q39 0 112 -35l33 -15q28 -12 40 -16t25 -4q35 0 54 18t42 45l31 -55q-34 -43 -65 -60t-63 -17q-31 0 -97 31z" />
    <glyph glyph-name="nonbreakingspace" unicode="&#xa0;" horiz-adv-x="250" 
 />
    <glyph glyph-name="exclamdown" unicode="&#xa1;" horiz-adv-x="292" 
d="M246 479q3 6 9 6q11 -2 22 -4.5t15.5 -7t4.5 -11.5l-107 -436q-5 -21 -15 -28t-23 -7l-7 1q-13 0 -33 9t-26.5 16.5t-6.5 18.5q0 10 13 46zM269 644q0 24 17 41t42 17t42 -17t17 -42q0 -24 -17 -41t-42 -17t-38.5 13.5t-17 25.5t-3.5 20z" />
    <glyph glyph-name="cent" unicode="&#xa2;" 
d="M342 779q2 -2 4 -4.5t2 -7.5q-1 -6 -5.5 -8t-9.5 -3q-7 0 -12.5 3t-10.5 8l-119 92q-6 5 -12.5 12t-6.5 13q0 5 5 8.5t20 3.5h11h21q14 0 20 -3t15 -16z" />
    <glyph glyph-name="sterling" unicode="&#xa3;" horiz-adv-x="688" 
d="M509 371l-8 -42h-170q-17 -50 -33.5 -90.5t-43 -80.5t-33.5 -49t-20 -24q21 12 43 12q51 0 111 -39t81.5 -52.5t45.5 -26.5t47 -20.5t43 -7.5q11 0 20 1.5t28 11.5t29 33.5t10 54.5l29 5v-27q0 -8 -1 -16t-4.5 -30.5t-23 -57.5t-42 -49t-37.5 -18.5t-32 -4.5q-24 0 -46 8
t-53 29t-90 77.5t-87.5 72.5t-52.5 16q-8 0 -14.5 -2t-15 -5t-20 -14t-21 -20t-21.5 -15.5t-23 -6.5q-22 0 -22 18l1 6q3 5 17.5 18.5t21.5 22t22.5 28t30.5 42.5t32.5 68t38.5 132h-111l7 41h113q23 96 40.5 147t41.5 90.5t36 56t38 41t59 40.5t65 16q29 0 56 -15t27 -43
q0 -17 -11.5 -28.5t-28.5 -11.5q-13 0 -22.5 6t-17.5 14.5t-18.5 17.5t-27.5 9q-12 0 -23.5 -5t-29 -26.5t-29.5 -58t-30 -107.5l-37 -142h166z" />
    <glyph glyph-name="currency" unicode="&#xa4;" horiz-adv-x="667" 
d="M656 107l-46 -45l-74 75l-28 -20q-21 -14 -52.5 -24t-74.5 -10q-70 0 -125 32l-32 22l-74 -73l-46 45l75 73q-23 31 -39 68t-16 91t15.5 88.5t39.5 66.5l-73 73l45 45l73 -72q28 21 66.5 37.5t90.5 16.5q28 0 60.5 -6.5t67.5 -27.5l28 -20l74 73l46 -46l-74 -74l22 -31
q32 -55 32 -124q0 -30 -5.5 -60t-26.5 -65l-23 -33zM537 461q-23 29 -61 52.5t-95 23.5q-84 0 -140 -56t-56 -141q0 -84 57 -141t141 -57q28 0 55.5 7t58.5 30t55 63t24 98q0 29 -7 58.5t-32 62.5z" />
    <glyph glyph-name="yen" unicode="&#xa5;" 
d="M310 769q-6 -5 -11.5 -9t-11.5 -4q-9 0 -16 13l-59 106l-4 9q1 3 2.5 6t6.5 3t16 -9l48 -42q9 -10 13.5 -14t10.5 -4q3 0 7.5 2t8.5 4l102 56q5 3 11 6t11 3t7 -1t3 -4q0 -5 -11 -16z" />
    <glyph glyph-name="section" unicode="&#xa7;" horiz-adv-x="458" 
d="M398 17q0 -31 -12.5 -57t-28 -43.5t-31 -28.5t-29.5 -19t-44.5 -16.5t-63.5 -8.5q-43 0 -78.5 12t-52.5 34t-23 36t-6 36q0 24 12 39t31 15q12 0 22.5 -8.5t13 -19t2.5 -26.5q0 -18 2.5 -27t18 -23t38 -18.5t41.5 -6.5q31 0 62 13t44.5 30t18.5 30.5t5 28.5q0 29 -12 47
t-37 46l-45 51q-56 61 -77 99t-21 71t15.5 62t38 45.5t55.5 32.5q-17 29 -24.5 48t-7.5 54q0 27 10 54.5t27 51t44 39.5t54.5 23t54.5 7q64 0 100 -31.5t36 -70.5q0 -17 -10.5 -30.5t-28.5 -13.5q-13 0 -20 5.5t-12 13t-9 21t-6.5 22t-13 19t-26.5 17.5t-36 7
q-8 0 -17.5 -0.5t-32.5 -9.5t-38 -30.5t-15 -48.5q0 -21 10.5 -43.5t45.5 -59.5l44 -50l24 -25l32 -38q24 -30 34.5 -57.5t10.5 -53.5l-2 -26q-6 -31 -24.5 -56.5t-33 -38.5t-24.5 -20t-24 -16q13 -32 16 -46t3 -35v-8zM251 405q-38 -27 -38 -66q0 -11 5.5 -26.5t14.5 -27
t27 -31.5l44 -50l27 -31l30 -39q25 16 44 35t19 49q0 10 -4.5 26t-17 36t-52 63t-73.5 77z" />
    <glyph glyph-name="dieresis" unicode="&#xa8;" 
d="M74 577q0 21 14.5 34.5t34.5 13.5q21 0 35 -14t14 -35q0 -20 -15 -34t-35 -14t-34 14t-14 35zM255 577q0 20 15 34t35 14q21 0 34.5 -14.5t13.5 -34.5q0 -21 -14 -35t-35 -14q-19 0 -34 15t-15 35z" />
    <glyph glyph-name="copyright" unicode="&#xa9;" horiz-adv-x="833" 
d="M732 117q-50 -58 -119.5 -89t-148.5 -31q-158 0 -239 88t-99 151.5t-18 117.5q0 79 24 134t61 98t105.5 83t166.5 40q47 0 101.5 -13.5t109 -54.5t99.5 -113t45 -177q0 -49 -18 -111.5t-70 -122.5zM723 549q-36 49 -99 88.5t-159 39.5q-43 0 -91.5 -12t-98.5 -48.5
t-92.5 -102t-42.5 -161.5q0 -64 30.5 -139t113 -130t181.5 -55q49 0 125.5 25t136.5 109t60 189q0 60 -15.5 106.5t-48.5 90.5zM544 126q-14 0 -42 -3t-43 -3q-58 0 -97.5 17.5t-68.5 50t-38 83.5t-9 90q0 21 1.5 42t15 67t67 77.5t127.5 31.5q16 0 37 -2t39 -4l22 -2
q14 -2 27 -3t43 -1l12 -131h-24q-7 30 -13.5 48.5t-21.5 36t-34.5 27.5t-56.5 10q-31 0 -49.5 -6.5t-33 -19t-23 -22.5t-16.5 -27t-13.5 -45.5t-5.5 -69.5q0 -82 17.5 -131t42 -68.5t46.5 -23.5t42 -4q29 0 49.5 7.5t31.5 19t17.5 21t9.5 17t7 24t6 34.5h25v-128
q-20 0 -29.5 -1t-45.5 -7z" />
    <glyph glyph-name="guillemotleft" unicode="&#xab;" horiz-adv-x="458" 
d="M230 116q-6 1 -9 10q-15 29 -30 55t-31 48l-32 39l6 23q32 17 57 35t56 44l52 48q7 8 10.5 10t13.5 2l21 -1q9 -2 9 -8l-2 -5l-14 -16q-17 -21 -45.5 -50.5t-80.5 -79.5q14 -32 17 -40t7 -20l21 -76l3 -11q-3 -6 -6 -7h-23zM394 116q-6 1 -20.5 32t-50.5 81l-31 39l5 23
q34 18 55 33t58 46l53 48q6 7 11.5 9.5t11.5 2.5l21 -1q9 -2 9 -8l-2 -5q-9 -11 -22 -27t-40.5 -44t-76.5 -75l23 -60q5 -14 12.5 -40.5t9.5 -35.5l2 -11q-2 -6 -5 -7h-23z" />
    <glyph glyph-name="logicalnot" unicode="&#xac;" horiz-adv-x="667" 
d="M47 262v59h667v-321h-60v262h-607z" />
    <glyph glyph-name="registered" unicode="&#xae;" horiz-adv-x="833" 
d="M409 351v-121q0 -39 7 -49.5t44 -15.5v-33h-172l1 33q11 1 23 4t16 10t5 20.5t1 31.5v261v25q-4 22 -46 26l1 34l102 -2l96 2q59 0 87 -10.5t42 -27t20.5 -34t6.5 -34.5q0 -43 -29.5 -70.5t-79.5 -35.5q10 -2 24.5 -14t21 -26.5t14.5 -42.5l9 -39q8 -32 12.5 -42
t17.5 -10q14 0 21 17t11 39l31 -6q-4 -18 -9 -41t-19 -39.5t-17.5 -20t-11 -7t-14 -5t-12.5 -1.5q-17 2 -29 6t-24.5 20t-25.5 64.5t-17 65.5q-12 38 -23 49t-24 15t-27 4h-34zM444 395q18 0 37.5 0.5t42 11t32 28.5t9.5 34q0 10 -1.5 18t-12 24t-30 22t-49.5 6
q-9 0 -18 -0.5t-23.5 -4t-18 -16.5t-3.5 -45v-78h35zM736 122q-61 -72 -136.5 -98.5t-135.5 -26.5q-122 0 -196 57t-117 127t-43 173q0 79 24 134t61 98t105.5 83t166.5 40q86 0 160 -36.5t117.5 -94.5t60.5 -113t17 -114q0 -51 -16.5 -110t-67.5 -119zM725 547
q-36 49 -100 89.5t-160 40.5q-43 0 -91.5 -12t-98.5 -48.5t-92.5 -102t-42.5 -161.5q0 -64 30.5 -139t113 -130t181.5 -55q21 0 48 3.5t92.5 26.5t124 106.5t58.5 186.5q0 44 -12 93t-51 102z" />
    <glyph glyph-name="degree" unicode="&#xb0;" horiz-adv-x="354" 
d="M371 601q0 -16 -1.5 -27t-14.5 -41.5t-49.5 -54.5t-81.5 -24q-61 0 -104 43t-43 104t43 104t104 43t104 -43t43 -104zM137 600q0 -36 25 -61t62 -25t62 25t25 62t-25 62t-63 25q-36 0 -61 -25t-25 -63z" />
    <glyph glyph-name="plusminus" unicode="&#xb1;" horiz-adv-x="667" 
d="M352 123v256h-264v59h264v256h59v-256h262v-59h-262v-256h-59zM88 0v59h585v-59h-585z" />
    <glyph glyph-name="acute" unicode="&#xb4;" 
d="M340 666q7 0 12.5 -2t5.5 -12q-1 -10 -21 -24l-165 -96q-13 -8 -17 -8q-10 0 -10 9q0 4 3 6.5t4 3.5l124 106q18 17 39 17h25z" />
    <glyph glyph-name="mu" unicode="&#xb5;" horiz-adv-x="562" 
d="M578 138q5 -13 9 -34t4 -32q0 -35 -15.5 -59t-49.5 -24q-27 0 -52 21t-38 66q-4 -7 -13 -18.5t-26.5 -29t-46.5 -30.5t-61 -13q-38 0 -63.5 16.5t-41.5 37.5l-14 20q0 -8 -0.5 -17.5t-0.5 -20.5q0 -21 2 -43.5t6 -38.5t7 -27.5t8 -23.5l17 -34q13 -22 25 -43t12 -33
q0 -17 -10 -28t-28 -11q-44 0 -59 54t-18 85.5t-3 73.5q0 48 1.5 80t10.5 92l-11 82l-7 93l-2 69q0 39 5.5 57.5t17 27.5t23.5 9t23 -10t13.5 -26.5t2.5 -32.5q0 -24 -1 -36.5t-4 -43.5l-12 -95q-3 -29 -5 -57q-5 -24 -7 -35q6 -14 10 -22.5t14.5 -24.5t32 -28.5t46.5 -12.5
q14 0 25.5 3.5t28.5 12.5t37.5 39t27 59t10.5 72.5t4 101.5l-1 48q0 11 0.5 22.5t2.5 24.5t10.5 27t29.5 14q30 0 38.5 -27.5t8.5 -65.5q0 -40 -5.5 -111.5t-42.5 -147.5q6 -17 15.5 -29t16 -15t12.5 -5.5t13 -2.5q23 0 31 12t11 27.5t3 19.5l-3 20z" />
    <glyph glyph-name="paragraph" unicode="&#xb6;" horiz-adv-x="667" 
d="M578 662h-33v-829h-46v829h-157v-829h-46v498q-10 1 -20.5 2.5t-46 14.5t-64 60t-28.5 105q0 18 1.5 30t19 67.5t74 73t77 20t48.5 2.5h221v-44z" />
    <glyph glyph-name="cedilla" unicode="&#xb8;" 
d="M73 -47q19 0 35 -6t24.5 -19t11 -22.5t2.5 -14.5q0 -30 -22 -51.5t-47 -27.5t-40 -6q-20 0 -35.5 5.5t-25.5 12.5t-16.5 20t-6.5 23l3 13q4 7 11 10t12 3q8 0 14.5 -6.5t6.5 -14.5l-1 -9q-4 -8 -3 -11q0 -7 8 -13.5t21 -6.5q19 0 33 10t22 25t8 29q0 4 -0.5 9.5t-6 14
t-13 11.5t-30.5 7l49 88l23 1z" />
    <glyph glyph-name="guillemotright" unicode="&#xbb;" horiz-adv-x="458" 
d="M381 428q6 -1 13.5 -16.5t23.5 -43.5t31 -48l34 -44l-5 -22q-29 -16 -46 -28t-43 -32l-31 -25l-50 -46q-6 -7 -19 -9l-23 1q-7 3 -7 7l5 9l42 49q17 19 37.5 39.5t56.5 55.5l-27 71q-4 10 -10.5 35t-9.5 37q0 9 7 10h21zM216 429q6 0 13.5 -16t23.5 -44t31 -48l34 -43
l-5 -23q-25 -14 -45 -27.5t-44 -32.5l-31 -25l-49 -46q-8 -8 -20 -8h-23q-7 3 -7 7q3 6 9 14t16.5 20.5t24.5 27.5t34.5 35.5t56.5 55.5l-27 71l-19 72q-2 9 6 10h21z" />
    <glyph glyph-name="questiondown" unicode="&#xbf;" horiz-adv-x="479" 
d="M421 492q-4 -22 -8 -43t-13 -52.5t-16.5 -37.5t-21 -13.5t-26 -12.5t-19.5 -7.5t-38.5 -17.5t-53 -42.5t-33.5 -59.5q-8 -27 -10.5 -41t-2.5 -32q0 -48 21 -74.5t63 -26.5q14 0 32.5 4.5t27 16.5t14 31.5t11 32t19.5 23t32 10.5q13 0 21.5 -7.5t8.5 -20.5
q0 -22 -15 -52.5t-43.5 -48.5t-62 -26.5t-58.5 -8.5q-33 0 -61.5 8t-43.5 19.5t-22.5 19t-14.5 18t-14.5 31.5t-7.5 48q0 35 10.5 65t36.5 59q14 18 23.5 25.5t19 14.5t25.5 17l45 23q22 10 36.5 17t25 15t19 19t9.5 15q8 13 16.5 36t15.5 56h53zM376 640q0 25 17 42t42 17
q24 0 41.5 -17.5t17.5 -41.5q0 -25 -17 -42t-42 -17q-9 0 -20 4t-21.5 14t-14 21.5t-3.5 19.5z" />
    <glyph glyph-name="Agrave" unicode="&#xc0;" horiz-adv-x="625" 
d="M596 721l-31 -586v-38q0 -17 1.5 -23.5t10 -19.5t25.5 -16.5t34 -3.5l-10 -34h-264l11 34q32 0 57 6.5t31.5 26t6.5 57.5l7 130l-190 -1q-20 -28 -35.5 -50.5t-38 -58t-32 -53.5t-9.5 -27q0 -18 19 -24t49 -6h20l-10 -34h-245l10 34q9 1 21 2.5t35 11t73 81.5l408 592h46
zM312 293h165l15 262zM618 779q2 -2 4 -4.5t2 -7.5q-1 -6 -5.5 -8t-9.5 -3q-7 0 -12.5 3t-10.5 8l-119 92q-6 5 -12.5 12t-6.5 13q0 5 5 8.5t20 3.5h11h21q14 0 20 -3t15 -16z" />
    <glyph glyph-name="Aacute" unicode="&#xc1;" horiz-adv-x="625" 
d="M596 721l-31 -586v-38q0 -17 1.5 -23.5t10 -19.5t25.5 -16.5t34 -3.5l-10 -34h-264l11 34q32 0 57 6.5t31.5 26t6.5 57.5l7 130l-190 -1q-20 -28 -35.5 -50.5t-38 -58t-32 -53.5t-9.5 -27q0 -18 19 -24t49 -6h20l-10 -34h-245l10 34q9 1 21 2.5t35 11t73 81.5l408 592h46
zM312 293h165l15 262zM544 763q-11 -6 -17 -6l-8 2t-5 7q1 6 19 24l101 92q14 11 18.5 13t19.5 2h33q6 0 12.5 -1.5t6.5 -10.5q0 -7 -10 -15z" />
    <glyph glyph-name="Acircumflex" unicode="&#xc2;" horiz-adv-x="625" 
d="M596 721l-31 -586v-38q0 -17 1.5 -23.5t10 -19.5t25.5 -16.5t34 -3.5l-10 -34h-264l11 34q32 0 57 6.5t31.5 26t6.5 57.5l7 130l-190 -1q-20 -28 -35.5 -50.5t-38 -58t-32 -53.5t-9.5 -27q0 -18 19 -24t49 -6h20l-10 -34h-245l10 34q9 1 21 2.5t35 11t73 81.5l408 592h46
zM312 293h165l15 262zM466 761q-3 -2 -7.5 -4t-10.5 -2q-8 0 -8 7q0 6 11 14l145 113q3 2 6.5 3t6.5 2q10 0 16 -15l48 -103q2 -3 3 -6t1 -7q-2 -7 -6 -7l-9 3q-6 4 -20.5 17.5t-30.5 30.5t-22 17t-19 -7z" />
    <glyph glyph-name="Atilde" unicode="&#xc3;" horiz-adv-x="625" 
d="M596 721l-31 -586v-38q0 -17 1.5 -23.5t10 -19.5t25.5 -16.5t34 -3.5l-10 -34h-264l11 34q32 0 57 6.5t31.5 26t6.5 57.5l7 130l-190 -1q-20 -28 -35.5 -50.5t-38 -58t-32 -53.5t-9.5 -27q0 -18 19 -24t49 -6h20l-10 -34h-245l10 34q9 1 21 2.5t35 11t73 81.5l408 592h46
zM312 293h165l15 262zM602 838q21 -8 27.5 -10t19.5 -2q9 0 19.5 3t20.5 14.5t13 11.5q4 -1 8.5 -3t4.5 -7q-2 -11 -16 -28t-31 -28t-44 -11q-11 0 -27 4q-40 13 -67.5 21t-37.5 8q-9 0 -18.5 -5.5t-16.5 -13.5q-2 -4 -5 -7.5t-7 -3.5q-4 1 -8 3t-4 8q0 4 2.5 9t11.5 18.5
t27 26.5t42 13q16 0 34 -4t52 -17z" />
    <glyph glyph-name="Adieresis" unicode="&#xc4;" horiz-adv-x="625" 
d="M431 807q0 21 15 35t35 14q21 0 35.5 -14.5t14.5 -35.5q0 -20 -14.5 -34.5t-35.5 -14.5q-14 0 -20 3.5t-13.5 10t-12 17t-4.5 19.5zM636 807q0 20 15 35t35 15t35 -15t15 -36q0 -20 -14.5 -34.5t-35.5 -14.5q-14 0 -20 3.5t-16 11.5q-7 8 -10.5 19t-3.5 16zM596 721
l-31 -586v-38q0 -17 1.5 -23.5t10 -19.5t25.5 -16.5t34 -3.5l-10 -34h-264l11 34q32 0 57 6.5t31.5 26t6.5 57.5l7 130l-190 -1q-20 -28 -35.5 -50.5t-38 -58t-32 -53.5t-9.5 -27q0 -18 19 -24t49 -6h20l-10 -34h-245l10 34q9 1 21 2.5t35 11t73 81.5l408 592h46zM312 293
h165l15 262z" />
    <glyph glyph-name="Aring" unicode="&#xc5;" horiz-adv-x="625" 
d="M596 721l-31 -586v-38q0 -17 1.5 -23.5t10 -19.5t25.5 -16.5t34 -3.5l-10 -34h-264l11 34q32 0 57 6.5t31.5 26t6.5 57.5l7 130l-190 -1q-20 -28 -35.5 -50.5t-38 -58t-32 -53.5t-9.5 -27q0 -18 19 -24t49 -6h20l-10 -34h-245l10 34q9 1 21 2.5t35 11t73 81.5l408 592h46
zM312 293h165l15 262zM525 828q0 33 23.5 55.5t55.5 22.5q33 0 55.5 -23.5t22.5 -55.5t-23 -55t-56 -23q-11 0 -26.5 5t-26 16t-18 25t-7.5 33zM604 779q21 0 35 14t14 35t-14.5 34.5t-34.5 13.5q-21 0 -35 -14t-14 -35q0 -7 3 -16.5t10 -16.5t15 -11t21 -4z" />
    <glyph glyph-name="AE" unicode="&#xc6;" horiz-adv-x="896" 
d="M966 706v-160h-28l-5 33q-6 35 -23.5 57.5t-41.5 29t-84 6.5h-72l-79 -280h58q27 0 46 5t34 19.5t23.5 37.5t17.5 54h35l-79 -278h-37l17.5 62.5t3.5 23.5q0 17 -10 26t-40 9h-12h-68l-69 -243q-2 -7 -5.5 -22t-3.5 -18q0 -10 6.5 -18.5t18.5 -10.5t32 -3t44 -1
q65 0 99.5 10.5t61.5 34.5l24 25l12 17q16 23 21 33t19 42h37l-57 -197h-534l10 34h19q24 0 36 1.5t26.5 10t20.5 27t12 39.5l68 239h-150l-146 -194l-36 -48q-14 -19 -20.5 -29t-6.5 -22q0 -11 9 -16t22.5 -6.5t43.5 -1.5l-9 -34h-220l7 32q12 2 22.5 4t29 9t35 24.5
t36.5 44.5l364 486q24 32 29.5 40t5.5 18q0 12 -16 13.5t-29 1.5h-34l11 33h498zM400 391h132l78 278l1 5z" />
    <glyph glyph-name="Ccedilla" unicode="&#xc7;" horiz-adv-x="667" 
d="M765 706h29l-55 -225l-34 1q1 5 2.5 21t1.5 26q0 18 -4.5 51.5t-27.5 60t-50.5 38.5t-60.5 12q-26 0 -57.5 -9t-65.5 -34q-26 -21 -54.5 -58.5t-56 -99.5t-46 -138.5t-18.5 -136.5v-32q2 -21 14 -61t50 -70.5t92 -30.5q36 0 62.5 10t54.5 28t55 54.5t55 105.5h42
l-81 -229h-29l-13 35l-31 -15q-28 -12 -61.5 -19t-69.5 -7l-15 -31q25 -3 38.5 -8.5t23.5 -20.5t10 -33q0 -12 -2.5 -20.5t-11 -22t-32.5 -28t-60 -14.5q-27 0 -44.5 6.5t-26 17t-12 19t-3.5 17.5q0 15 7.5 21t17.5 6q22 0 22 -22l-2 -8l-3 -12q0 -10 10.5 -14.5t21.5 -4.5
q10 0 21 4t21 16q6 4 12 17.5t6 28.5q0 11 -6 22q-6 8 -14.5 12t-28.5 6l26 46l-43 7q-64 16 -107 61t-61 98.5t-18 112.5q0 34 7.5 80.5t22.5 83t22 50t18.5 32.5t20 31.5t43 55t109 86t158.5 43.5q61 0 97 -16.5t70 -44.5z" />
    <glyph glyph-name="Egrave" unicode="&#xc8;" horiz-adv-x="625" 
d="M708 706v-171h-29q-3 24 -7 39.5t-11.5 30.5t-13.5 24t-23.5 21t-43.5 15t-92 3h-64l-84 -266h78q34 0 59 7t41.5 33.5t30.5 67.5h37l-89 -278h-36q6 18 11 39t5 38q0 5 -0.5 10t-7 18.5t-24 18.5t-56.5 5h-30.5t-31.5 1l-79 -250q-2 -4 -4.5 -14.5t-2.5 -20.5
q0 -27 21.5 -31.5t55 -6.5t40.5 -2l60 2q49 0 87 14.5t75 55.5l30 38q5 8 12.5 23.5t12.5 24.5h36l-62 -195h-591l11 34q37 0 54 2.5t31.5 13t22.5 37.5l170 535q5 13 5 21q0 15 -12 21.5t-34 7.5t-34 1h-12l11 33h477zM592 779q2 -2 4 -4.5t2 -7.5q-1 -6 -5.5 -8t-9.5 -3
q-7 0 -12.5 3t-10.5 8l-119 92q-6 5 -12.5 12t-6.5 13q0 5 5 8.5t20 3.5h11h21q14 0 20 -3t15 -16z" />
    <glyph glyph-name="Eacute" unicode="&#xc9;" horiz-adv-x="625" 
d="M708 706v-171h-29q-3 24 -7 39.5t-11.5 30.5t-13.5 24t-23.5 21t-43.5 15t-92 3h-64l-84 -266h78q34 0 59 7t41.5 33.5t30.5 67.5h37l-89 -278h-36q6 18 11 39t5 38q0 5 -0.5 10t-7 18.5t-24 18.5t-56.5 5h-30.5t-31.5 1l-79 -250q-2 -4 -4.5 -14.5t-2.5 -20.5
q0 -27 21.5 -31.5t55 -6.5t40.5 -2l60 2q49 0 87 14.5t75 55.5l30 38q5 8 12.5 23.5t12.5 24.5h36l-62 -195h-591l11 34q37 0 54 2.5t31.5 13t22.5 37.5l170 535q5 13 5 21q0 15 -12 21.5t-34 7.5t-34 1h-12l11 33h477zM518 763q-11 -6 -17 -6q-4 1 -8.5 2.5t-4.5 6.5
q1 6 19 24l101 92q14 11 18.5 13t19.5 2h33q6 0 12.5 -1.5t6.5 -10.5q0 -7 -10 -15z" />
    <glyph glyph-name="Ecircumflex" unicode="&#xca;" horiz-adv-x="625" 
d="M708 706v-171h-29q-3 24 -7 39.5t-11.5 30.5t-13.5 24t-23.5 21t-43.5 15t-92 3h-64l-84 -266h78q34 0 59 7t41.5 33.5t30.5 67.5h37l-89 -278h-36q6 18 11 39t5 38q0 5 -0.5 10t-7 18.5t-24 18.5t-56.5 5h-30.5t-31.5 1l-79 -250q-2 -4 -4.5 -14.5t-2.5 -20.5
q0 -27 21.5 -31.5t55 -6.5t40.5 -2l60 2q49 0 87 14.5t75 55.5l30 38q5 8 12.5 23.5t12.5 24.5h36l-62 -195h-591l11 34q37 0 54 2.5t31.5 13t22.5 37.5l170 535q5 13 5 21q0 15 -12 21.5t-34 7.5t-34 1h-12l11 33h477zM434 761q-3 -2 -7 -4t-10 -2q-8 0 -8 7q0 6 11 14
l145 113q4 2 6.5 3t5.5 2q6 0 10 -4t7 -11l47 -103q2 -3 3 -6t1 -7q-2 -7 -6 -7l-8 3q-6 4 -20.5 17.5t-30.5 30.5t-22 17q-7 0 -20 -7z" />
    <glyph glyph-name="Edieresis" unicode="&#xcb;" horiz-adv-x="625" 
d="M708 706v-171h-29q-7 41 -14.5 63.5t-23 37t-28.5 20.5t-36.5 9t-56.5 3h-28h-68l-84 -266q18 0 35.5 -0.5t34.5 -0.5q30 0 40.5 1.5t31.5 9.5t37.5 33t29.5 65h37l-89 -278h-36q9 31 12.5 45.5t3.5 31.5q0 27 -14.5 36.5t-36.5 13t-99 3.5l-79 -250q-7 -28 -7 -35
q0 -12 5 -20t26 -14t87 -6q35 0 58.5 2t50 6t53 17.5t43.5 30.5t26.5 28t18 24.5t13.5 23t13 26.5h36l-62 -195h-591l11 34q30 0 54 3t34.5 15t12.5 16.5t7 18.5l170 535q1 4 3 9t2 12q0 10 -6 16t-15.5 9t-36 4t-34.5 1l11 33h477zM573 808q0 20 14.5 34.5t35.5 14.5
q20 0 35 -15t15 -35t-14.5 -34.5t-35.5 -14.5q-13 0 -20.5 3.5t-15.5 10.5q-7 9 -10.5 18.5t-3.5 17.5zM368 808q0 20 14.5 34.5t35.5 14.5q20 0 35 -15t15 -35t-14.5 -34.5t-35.5 -14.5q-13 0 -20.5 3.5t-14.5 10t-11 15t-4 21.5z" />
    <glyph glyph-name="Igrave" unicode="&#xcc;" horiz-adv-x="333" 
d="M508 706l-10 -33l-32 -4t-28.5 -10.5t-20 -22.5t-18.5 -50l-154 -494q-2 -5 -3.5 -13t-1.5 -12q0 -9 4 -13q7 -12 25.5 -15.5t54.5 -3.5l-10 -35h-288l11 35h24q13 0 31.5 3t30 18.5t20.5 40.5l161 520q2 6 4 12.5t2 13.5q0 17 -16 23t-36 6.5t-30 0.5l10 33h270z
M456 779q2 -2 4 -4.5t2 -7.5q0 -6 -4.5 -8t-9.5 -3q-7 0 -12.5 3t-10.5 8l-120 92q-7 6 -12.5 12t-5.5 13q0 12 24 12h11h22q14 0 20 -3t15 -16z" />
    <glyph glyph-name="Iacute" unicode="&#xcd;" horiz-adv-x="333" 
d="M508 706l-10 -33l-32 -4t-28.5 -10.5t-20 -22.5t-18.5 -50l-154 -494q-2 -5 -3.5 -13t-1.5 -12q0 -9 4 -13q7 -12 25.5 -15.5t54.5 -3.5l-10 -35h-288l11 35h24q13 0 31.5 3t30 18.5t20.5 40.5l161 520q2 6 4 12.5t2 13.5q0 17 -16 23t-36 6.5t-30 0.5l10 33h270z
M382 763q-11 -6 -17 -6l-8 2t-4 7t19 24l101 92q13 11 18 13t20 2h32q6 0 12.5 -1.5t6.5 -10.5q0 -8 -9 -15z" />
    <glyph glyph-name="Icircumflex" unicode="&#xce;" horiz-adv-x="333" 
d="M508 706l-10 -33l-32 -4t-28.5 -10.5t-20 -22.5t-18.5 -50l-154 -494q-2 -5 -3.5 -13t-1.5 -12q0 -9 4 -13q7 -12 25.5 -15.5t54.5 -3.5l-10 -35h-288l11 35h24q13 0 31.5 3t30 18.5t20.5 40.5l161 520q2 6 4 12.5t2 13.5q0 17 -16 23t-36 6.5t-30 0.5l10 33h270z
M299 761q-3 -2 -7 -4t-10 -2q-8 0 -8 7q0 6 10 14l146 113q4 2 6.5 3t5.5 2q8 0 17 -15l47 -103q2 -3 3 -6t1 -7q-3 -7 -6 -7l-9 3q-4 3 -21.5 19.5t-31 31t-20.5 14.5q-6 0 -19 -7z" />
    <glyph glyph-name="Idieresis" unicode="&#xcf;" horiz-adv-x="333" 
d="M508 706l-10 -33l-32 -4t-28.5 -10.5t-20 -22.5t-18.5 -50l-154 -494q-2 -5 -3.5 -13t-1.5 -12q0 -9 4 -13q7 -12 25.5 -15.5t54.5 -3.5l-10 -35h-288l11 35h24q13 0 31.5 3t30 18.5t20.5 40.5l161 520q2 6 4 12.5t2 13.5q0 17 -16 23t-36 6.5t-30 0.5l10 33h270z
M457 808q0 21 14 35t36 14q20 0 34.5 -14.5t14.5 -35.5t-15 -35t-35 -14q-12 0 -19.5 3.5t-18.5 14t-11 32.5zM252 808q0 21 14 35t36 14q20 0 34.5 -14.5t14.5 -35.5t-15 -35t-35 -14q-12 0 -19.5 3.5t-18.5 14t-11 32.5z" />
    <glyph glyph-name="Ntilde" unicode="&#xd1;" horiz-adv-x="708" 
d="M384 706l208 -499q3 -8 8 -21t8 -25l13 59l110 386q6 26 6 34q0 12 -9 19t-24 9t-40 2h-13l10 36h222l-9 -33l-32 -3q-29 -4 -39.5 -17t-16.5 -35l-185 -640h-17l-248 590l-139 -463q-3 -12 -5 -21t-2 -15q0 -17 10.5 -23t32.5 -8t46 -2l-10 -36h-230l9 34q16 0 33.5 3
t30.5 14.5t21.5 27.5t18.5 47l153 507q-4 5 -8.5 10t-14 13t-27.5 12t-45 4l9 34h165zM623 838q21 -8 27.5 -10t18.5 -2q10 0 20.5 3t20.5 14.5t13 11.5q4 -1 8 -3t4 -7q0 -4 -2 -9.5t-15.5 -21t-29.5 -26t-43 -10.5q-11 0 -27 4q-40 13 -67.5 21t-37.5 8q-9 0 -18.5 -5.5
t-16.5 -13.5q-2 -4 -5 -7.5t-7 -3.5q-4 1 -8 3t-4 8q0 4 2.5 9t11.5 18.5t27 26.5t42 13q16 0 34 -4t52 -17z" />
    <glyph glyph-name="Ograve" unicode="&#xd2;" horiz-adv-x="688" 
d="M632 693q55 -35 84 -101t29 -149q0 -52 -13.5 -114t-44 -117t-53 -84.5t-39.5 -46.5t-35 -30.5t-43.5 -29.5t-61.5 -26.5t-74 -10.5q-40 0 -65.5 9.5t-43.5 22t-25.5 19t-23 23.5t-34.5 54t-25.5 75.5t-6.5 70.5q0 57 14 124.5t60.5 149t118.5 137.5t159 56q35 0 66 -7.5
t57 -24.5zM468 671q-23 -11 -45.5 -31.5t-41.5 -49.5q-18 -24 -31 -50t-34.5 -77.5t-37 -130.5t-15.5 -128q0 -28 5 -59t11.5 -46.5t14.5 -26.5t18.5 -21t27.5 -18t40 -8q11 0 21.5 1.5t35 11.5t48.5 34t51 67.5t54 118.5t34.5 117t11 75.5t3.5 66.5q0 18 -2.5 50.5
t-21.5 65.5q-9 13 -15 20t-19.5 16t-28.5 12.5t-28 3.5h-11q-11 -1 -22 -4.5t-23 -9.5zM623 779q2 -2 4 -4.5t2 -7.5q0 -6 -4.5 -8t-10.5 -3q-6 0 -12 3t-11 8l-119 92q-6 5 -12.5 12t-6.5 13q0 5 5 8.5t20 3.5h11h21q14 0 20 -3t15 -16z" />
    <glyph glyph-name="Oacute" unicode="&#xd3;" horiz-adv-x="688" 
d="M632 693q55 -35 84 -101t29 -149q0 -52 -13.5 -114t-44 -117t-53 -84.5t-39.5 -46.5t-35 -30.5t-43.5 -29.5t-61.5 -26.5t-74 -10.5q-40 0 -65.5 9.5t-43.5 22t-25.5 19t-23 23.5t-34.5 54t-25.5 75.5t-6.5 70.5q0 57 14 124.5t60.5 149t118.5 137.5t159 56q35 0 66 -7.5
t57 -24.5zM468 671q-23 -11 -45.5 -31.5t-41.5 -49.5q-18 -24 -31 -50t-34.5 -77.5t-37 -130.5t-15.5 -128q0 -28 5 -59t11.5 -46.5t14.5 -26.5t18.5 -21t27.5 -18t40 -8q11 0 21.5 1.5t35 11.5t48.5 34t51 67.5t54 118.5t34.5 117t11 75.5t3.5 66.5q0 18 -2.5 50.5
t-21.5 65.5q-9 13 -15 20t-19.5 16t-28.5 12.5t-28 3.5h-11q-11 -1 -22 -4.5t-23 -9.5zM549 763q-11 -6 -17 -6l-8 2t-4 7t19 24l100 92q13 11 18.5 13t19.5 2h33q6 0 12.5 -1.5t6.5 -10.5q0 -5 -3.5 -9t-5.5 -6z" />
    <glyph glyph-name="Ocircumflex" unicode="&#xd4;" horiz-adv-x="688" 
d="M632 693q55 -35 84 -101t29 -149q0 -52 -13.5 -114t-44 -117t-53 -84.5t-39.5 -46.5t-35 -30.5t-43.5 -29.5t-61.5 -26.5t-74 -10.5q-40 0 -65.5 9.5t-43.5 22t-25.5 19t-23 23.5t-34.5 54t-25.5 75.5t-6.5 70.5q0 57 14 124.5t60.5 149t118.5 137.5t159 56q35 0 66 -7.5
t57 -24.5zM468 671q-23 -11 -45.5 -31.5t-41.5 -49.5q-18 -24 -31 -50t-34.5 -77.5t-37 -130.5t-15.5 -128q0 -28 5 -59t11.5 -46.5t14.5 -26.5t18.5 -21t27.5 -18t40 -8q11 0 21.5 1.5t35 11.5t48.5 34t51 67.5t54 118.5t34.5 117t11 75.5t3.5 66.5q0 18 -2.5 50.5
t-21.5 65.5q-9 13 -15 20t-19.5 16t-28.5 12.5t-28 3.5h-11q-11 -1 -22 -4.5t-23 -9.5zM466 761q-3 -2 -7.5 -4t-10.5 -2q-8 0 -8 7q0 6 11 14l145 113q3 2 6.5 3t6.5 2q10 0 16 -15l48 -103q2 -3 3 -6t1 -7q-2 -7 -6 -7l-9 3q-6 4 -20.5 17.5t-30.5 30.5t-22 17t-19 -7z
" />
    <glyph glyph-name="Otilde" unicode="&#xd5;" horiz-adv-x="688" 
d="M632 693q55 -35 84 -101t29 -149q0 -52 -13.5 -114t-44 -117t-53 -84.5t-39.5 -46.5t-35 -30.5t-43.5 -29.5t-61.5 -26.5t-74 -10.5q-40 0 -65.5 9.5t-43.5 22t-25.5 19t-23 23.5t-34.5 54t-25.5 75.5t-6.5 70.5q0 57 14 124.5t60.5 149t118.5 137.5t159 56q35 0 66 -7.5
t57 -24.5zM468 671q-23 -11 -45.5 -31.5t-41.5 -49.5q-18 -24 -31 -50t-34.5 -77.5t-37 -130.5t-15.5 -128q0 -28 5 -59t11.5 -46.5t14.5 -26.5t18.5 -21t27.5 -18t40 -8q11 0 21.5 1.5t35 11.5t48.5 34t51 67.5t54 118.5t34.5 117t11 75.5t3.5 66.5q0 18 -2.5 50.5
t-21.5 65.5q-9 13 -15 20t-19.5 16t-28.5 12.5t-28 3.5h-11q-11 -1 -22 -4.5t-23 -9.5zM613 838q21 -8 27.5 -10t18.5 -2q9 0 20 3.5t20.5 14.5t13.5 11q4 -1 8 -3t4 -7q0 -11 -15 -28t-32 -28t-43 -11q-11 0 -39.5 8.5t-58.5 16.5q-24 8 -35 8q-8 0 -16.5 -3.5t-18.5 -15.5
q-2 -4 -5 -7.5t-7 -3.5q-4 1 -8 3t-4 8q0 4 2.5 9t12 18.5t27 26.5t41.5 13q16 0 34.5 -4t52.5 -17z" />
    <glyph glyph-name="Odieresis" unicode="&#xd6;" horiz-adv-x="688" 
d="M412 808q0 20 15 35t35 15t35 -15t15 -35t-15 -35t-35 -15q-13 0 -21 4t-15 11.5t-10.5 18.5t-3.5 16zM617 808q0 21 14.5 35.5t35.5 14.5q20 0 34.5 -14.5t14.5 -35.5q0 -20 -15 -35t-35 -15q-12 0 -20 4t-15 11.5t-10.5 18.5t-3.5 16zM632 693q55 -35 84 -101t29 -149
q0 -52 -13.5 -114t-44 -117t-53 -84.5t-39.5 -46.5t-35 -30.5t-43.5 -29.5t-61.5 -26.5t-74 -10.5q-40 0 -65.5 9.5t-43.5 22t-25.5 19t-23 23.5t-34.5 54t-25.5 75.5t-6.5 70.5q0 57 14 124.5t60.5 149t118.5 137.5t159 56q35 0 66 -7.5t57 -24.5zM468 671
q-23 -11 -45.5 -31.5t-41.5 -49.5q-18 -24 -31 -50t-34.5 -77.5t-37 -130.5t-15.5 -128q0 -28 5 -59t11.5 -46.5t14.5 -26.5t18.5 -21t27.5 -18t40 -8q11 0 21.5 1.5t35 11.5t48.5 34t51 67.5t54 118.5t34.5 117t11 75.5t3.5 66.5q0 18 -2.5 50.5t-21.5 65.5q-9 13 -15 20
t-19.5 16t-28.5 12.5t-28 3.5h-11q-11 -1 -22 -4.5t-23 -9.5z" />
    <glyph glyph-name="Oslash" unicode="&#xd8;" horiz-adv-x="688" 
d="M706 705l28 -22l-38 -49l16 -27q18 -34 26.5 -77.5t8.5 -82.5q0 -74 -30 -168.5t-88.5 -157t-94.5 -87t-66 -34.5t-46 -13t-39 -3q-33 0 -57.5 6.5t-44.5 19t-25 16.5t-24 21l-36 -46l-28 21l41 52l-18 30q-22 42 -28.5 81t-6.5 72q0 58 17.5 134t53 129.5t55 78t40.5 42
t41.5 30.5t43 24.5t56.5 19.5t60 8q25 0 56.5 -6.5t62.5 -28.5l31 -26zM630 608l-9.5 19t-11 16t-29.5 24.5t-50 13.5q-18 0 -33.5 -4t-49 -23.5t-68 -65.5t-67.5 -119t-47 -146t-14 -116q0 -17 1 -28.5t7 -41.5zM273 98l15 -27q12 -16 34.5 -30.5t53.5 -14.5q9 0 19.5 1.5
t32.5 9.5t43 24t42 41t36.5 49t43.5 85t42.5 135t14.5 124q0 18 -2 37l-4 38z" />
    <glyph glyph-name="Ugrave" unicode="&#xd9;" horiz-adv-x="729" 
d="M514 706l-10 -34q-39 0 -51.5 -1.5t-28.5 -12.5t-29 -56l-126 -407q-4 -14 -7 -28t-3 -29q0 -20 8 -40.5t29.5 -36t49 -24.5t70.5 -9q42 0 75.5 10t64 36.5t49 64t37.5 94.5l121 388q5 16 5 24q0 10 -4.5 14.5t-11 8t-26.5 4t-33 1.5h-12l10 33h226l-11 -33
q-24 0 -35.5 -1.5t-23.5 -9t-18 -17t-14 -31.5l-127 -407l-14 -39q-22 -52 -41.5 -80t-42.5 -45t-38.5 -24.5t-33.5 -14t-48 -12.5t-66 -6q-68 0 -116 15.5t-73.5 36.5t-40 49.5t-14.5 59.5q0 19 4.5 39.5t7.5 32.5l121 393q6 20 6 29q0 14 -7 20t-17 9l-56 3l10 33h285z
M654 779q2 -2 4 -4.5t2 -7.5q0 -6 -4.5 -8t-10.5 -3q-6 0 -11.5 3t-10.5 8l-120 92q-7 6 -12.5 12t-5.5 13q0 12 24 12h11h22q14 0 20 -3t15 -16z" />
    <glyph glyph-name="Uacute" unicode="&#xda;" horiz-adv-x="729" 
d="M514 706l-10 -34q-39 0 -51.5 -1.5t-28.5 -12.5t-29 -56l-126 -407q-4 -14 -7 -28t-3 -29q0 -20 8 -40.5t29.5 -36t49 -24.5t70.5 -9q42 0 75.5 10t64 36.5t49 64t37.5 94.5l121 388q5 16 5 24q0 10 -4.5 14.5t-11 8t-26.5 4t-33 1.5h-12l10 33h226l-11 -33
q-24 0 -35.5 -1.5t-23.5 -9t-18 -17t-14 -31.5l-127 -407l-14 -39q-22 -52 -41.5 -80t-42.5 -45t-38.5 -24.5t-33.5 -14t-48 -12.5t-66 -6q-68 0 -116 15.5t-73.5 36.5t-40 49.5t-14.5 59.5q0 19 4.5 39.5t7.5 32.5l121 393q6 20 6 29q0 14 -7 20t-17 9l-56 3l10 33h285z
M580 763q-11 -6 -17 -6l-8 2t-4 7t19 24l101 92q13 11 18 13t20 2h32q6 0 12.5 -1.5t6.5 -10.5q0 -8 -9 -15z" />
    <glyph glyph-name="Ucircumflex" unicode="&#xdb;" horiz-adv-x="729" 
d="M514 706l-10 -34q-39 0 -51.5 -1.5t-28.5 -12.5t-29 -56l-126 -407q-4 -14 -7 -28t-3 -29q0 -20 8 -40.5t29.5 -36t49 -24.5t70.5 -9q42 0 75.5 10t64 36.5t49 64t37.5 94.5l121 388q5 16 5 24q0 10 -4.5 14.5t-11 8t-26.5 4t-33 1.5h-12l10 33h226l-11 -33
q-24 0 -35.5 -1.5t-23.5 -9t-18 -17t-14 -31.5l-127 -407l-14 -39q-22 -52 -41.5 -80t-42.5 -45t-38.5 -24.5t-33.5 -14t-48 -12.5t-66 -6q-68 0 -116 15.5t-73.5 36.5t-40 49.5t-14.5 59.5q0 19 4.5 39.5t7.5 32.5l121 393q6 20 6 29q0 14 -7 20t-17 9l-56 3l10 33h285z
M497 761q-3 -2 -7 -4t-10 -2q-9 0 -9 7q1 6 11 14l146 113q4 2 6.5 3t5.5 2q8 0 17 -15l47 -103q2 -3 3 -6t1 -7q-3 -7 -6 -7l-9 3q-4 3 -21.5 19.5t-31.5 31t-20 14.5t-19 -7z" />
    <glyph glyph-name="Udieresis" unicode="&#xdc;" horiz-adv-x="729" 
d="M464 809q0 21 14 35t36 14q21 0 35 -14t14 -36q0 -20 -14.5 -34.5t-35.5 -14.5q-12 0 -20 4t-14 10t-10.5 16.5t-4.5 19.5zM669 809q0 21 14 35t36 14q21 0 35 -14t14 -36q0 -20 -14.5 -34.5t-35.5 -14.5q-12 0 -20 4t-16 11.5t-10.5 16.5t-2.5 18zM514 706l-10 -34
q-39 0 -51.5 -1.5t-28.5 -12.5t-29 -56l-126 -407q-4 -14 -7 -28t-3 -29q0 -20 8 -40.5t29.5 -36t49 -24.5t70.5 -9q42 0 75.5 10t64 36.5t49 64t37.5 94.5l121 388q5 16 5 24q0 10 -4.5 14.5t-11 8t-26.5 4t-33 1.5h-12l10 33h226l-11 -33q-24 0 -35.5 -1.5t-23.5 -9
t-18 -17t-14 -31.5l-127 -407l-14 -39q-22 -52 -41.5 -80t-42.5 -45t-38.5 -24.5t-33.5 -14t-48 -12.5t-66 -6q-68 0 -116 15.5t-73.5 36.5t-40 49.5t-14.5 59.5q0 19 4.5 39.5t7.5 32.5l121 393q6 20 6 29q0 14 -7 20t-17 9l-56 3l10 33h285z" />
    <glyph glyph-name="germandbls" unicode="&#xdf;" horiz-adv-x="521" 
d="M217 491q9 29 14.5 43.5t22.5 45.5t43.5 60.5t57.5 43.5t54 20.5t48 6.5q16 0 41.5 -4.5t50 -22t33.5 -39t9 -39.5q0 -16 -3 -28.5t-18.5 -32.5t-41 -39t-42.5 -31.5t-45.5 -34.5t-28.5 -40q0 -4 1 -8t4.5 -10.5t20.5 -26t45.5 -52t47 -65.5t18.5 -63q0 -5 -1 -15.5
t-7 -30t-13 -33.5t-34 -42t-66 -44t-80 -16q-24 0 -41 5t-32.5 15t-21.5 15t-14 16t-13 23.5t-5 31.5l3 19q6 24 20.5 32.5t27.5 8.5q14 0 22.5 -7.5t8.5 -21.5q0 -7 -3.5 -13.5t-6 -12.5t-2.5 -17q0 -15 11 -31.5t30 -21t36 -5.5q10 0 25.5 2.5t30 12.5t22 17.5t13.5 17.5
t9.5 25t3.5 33q0 15 -1.5 21t-10 23.5t-20.5 33t-51 60.5l-5 6q-11 12 -19.5 23t-12.5 17.5t-6.5 15t-2.5 20.5q0 23 10 40t25 33l25 25l36 33q23 22 35 34.5t28 36.5t16 57q0 16 -5 26t-13.5 17.5t-20.5 12t-27 4.5q-34 0 -61.5 -20t-41 -40t-23.5 -47t-20 -61l-137 -478
q-22 -79 -43 -142.5t-43 -96.5t-54.5 -59t-69.5 -26q-13 0 -27.5 3.5t-26 15t-17.5 23.5t-6 29q1 7 2.5 15.5t8 17t15.5 13t22 4.5h5l7 -2q7 -2 15.5 -10t8.5 -19q0 -6 -5 -21t-5 -21q0 -11 11 -11q5 0 8.5 2t13 10t22.5 35.5t26 68.5l17 59z" />
    <glyph glyph-name="agrave" unicode="&#xe0;" horiz-adv-x="479" 
d="M431 459h82l-122 -384l-3 -21q0 -16 16 -16q9 0 17 6t20.5 19.5t23.5 29t25 37.5l29 -20q-35 -54 -68 -87t-77 -33q-30 0 -42 16t-16 36l-1 29q-26 -35 -62 -58.5t-71 -23.5q-27 0 -49.5 14t-35 46.5t-12.5 64.5q0 36 5.5 55.5t21.5 63.5l25 48q13 24 21 36.5t24 32.5
q19 27 52.5 59.5t61 42.5t38.5 12.5t29 2.5q25 0 36.5 -6t27.5 -19zM400 358q10 28 10 38q0 13 -10 24.5t-31 11.5q-35 0 -65 -34t-61 -86.5t-54 -112.5t-23 -112q0 -6 0.5 -12t6.5 -22.5t33 -16.5q12 0 22 4q6 4 13 7.5t24 21.5t30 36.5t25 42.5t31 74zM438 541l3 -7
q-1 -3 -3.5 -6t-7.5 -3q-6 1 -9.5 3.5t-6.5 3.5l-127 99q-8 5 -13 11t-5 13q1 6 4.5 8.5t22.5 2.5h11q19 0 26 -2t17 -15z" />
    <glyph glyph-name="aacute" unicode="&#xe1;" horiz-adv-x="479" 
d="M431 459h82l-122 -384l-3 -21q0 -16 16 -16q9 0 17 6t20.5 19.5t23.5 29t25 37.5l29 -20q-35 -54 -68 -87t-77 -33q-30 0 -42 16t-16 36l-1 29q-26 -35 -62 -58.5t-71 -23.5q-27 0 -49.5 14t-35 46.5t-12.5 64.5q0 36 5.5 55.5t21.5 63.5l25 48q13 24 21 36.5t24 32.5
q19 27 52.5 59.5t61 42.5t38.5 12.5t29 2.5q25 0 36.5 -6t27.5 -19zM400 358q10 28 10 38q0 13 -10 24.5t-31 11.5q-35 0 -65 -34t-61 -86.5t-54 -112.5t-23 -112q0 -6 0.5 -12t6.5 -22.5t33 -16.5q12 0 22 4q6 4 13 7.5t24 21.5t30 36.5t25 42.5t31 74zM527 666
q18 0 18 -14q0 -8 -5.5 -13t-14.5 -11l-165 -96q-13 -8 -18 -8q-10 0 -10 9q0 1 3 4.5t4 5.5l125 106q17 17 38 17h25z" />
    <glyph glyph-name="acircumflex" unicode="&#xe2;" horiz-adv-x="479" 
d="M431 459h82l-122 -384l-3 -21q0 -16 16 -16q9 0 17 6t20.5 19.5t23.5 29t25 37.5l29 -20q-35 -54 -68 -87t-77 -33q-30 0 -42 16t-16 36l-1 29q-26 -35 -62 -58.5t-71 -23.5q-27 0 -49.5 14t-35 46.5t-12.5 64.5q0 36 5.5 55.5t21.5 63.5l25 48q13 24 21 36.5t24 32.5
q19 27 52.5 59.5t61 42.5t38.5 12.5t29 2.5q25 0 36.5 -6t27.5 -19zM400 358q10 28 10 38q0 13 -10 24.5t-31 11.5q-35 0 -65 -34t-61 -86.5t-54 -112.5t-23 -112q0 -6 0.5 -12t6.5 -22.5t33 -16.5q12 0 22 4q6 4 13 7.5t24 21.5t30 36.5t25 42.5t31 74zM281 531
q-3 -2 -7 -4t-10 -2q-9 0 -9 7q1 6 11 14l146 113q4 2 6.5 3t5.5 2q8 0 17 -15l47 -104q2 -2 3 -4.5t1 -7.5q-3 -7 -6 -7l-9 3q-3 1 -17 14.5t-35 35.5q-17 15 -21 15q-6 0 -19 -7z" />
    <glyph glyph-name="atilde" unicode="&#xe3;" horiz-adv-x="479" 
d="M431 459h82l-122 -384l-3 -21q0 -16 16 -16q9 0 17 6t20.5 19.5t23.5 29t25 37.5l29 -20q-35 -54 -68 -87t-77 -33q-30 0 -42 16t-16 36l-1 29q-26 -35 -62 -58.5t-71 -23.5q-27 0 -49.5 14t-35 46.5t-12.5 64.5q0 36 5.5 55.5t21.5 63.5l25 48q13 24 21 36.5t24 32.5
q19 27 52.5 59.5t61 42.5t38.5 12.5t29 2.5q25 0 36.5 -6t27.5 -19zM400 358q10 28 10 38q0 13 -10 24.5t-31 11.5q-35 0 -65 -34t-61 -86.5t-54 -112.5t-23 -112q0 -6 0.5 -12t6.5 -22.5t33 -16.5q12 0 22 4q6 4 13 7.5t24 21.5t30 36.5t25 42.5t31 74zM418 609
q34 -13 49 -13q13 0 23 5.5t17 15t14 9.5q4 -1 7.5 -3t3.5 -8q0 -5 -14 -24.5t-33.5 -31t-42.5 -11.5q-13 0 -20 2t-20 7l-26 6l-26 9q-13 4 -24.5 6.5t-15.5 2.5q-18 0 -31 -14q-11 -15 -17 -15q-12 0 -12 11q2 5 4.5 11t11.5 17.5t26 25t41 13.5q16 0 33.5 -4t51.5 -17z
" />
    <glyph glyph-name="adieresis" unicode="&#xe4;" horiz-adv-x="479" 
d="M470 577q0 21 14.5 34.5t34.5 13.5t34 -14t14 -34t-13.5 -34.5t-34.5 -14.5q-20 0 -30.5 10.5t-14.5 21t-4 17.5zM288 577q0 21 14.5 34.5t34.5 13.5q21 0 35 -14t14 -34q0 -21 -14 -35t-35 -14q-20 0 -30.5 10.5t-14.5 21t-4 17.5zM431 459h82l-122 -384l-3 -21
q0 -16 16 -16q9 0 17 6t20.5 19.5t23.5 29t25 37.5l29 -20q-35 -54 -68 -87t-77 -33q-30 0 -42 16t-16 36l-1 29q-26 -35 -62 -58.5t-71 -23.5q-27 0 -49.5 14t-35 46.5t-12.5 64.5q0 36 5.5 55.5t21.5 63.5l25 48q13 24 21 36.5t24 32.5q19 27 52.5 59.5t61 42.5t38.5 12.5
t29 2.5q25 0 36.5 -6t27.5 -19zM400 358q10 28 10 38q0 13 -10 24.5t-31 11.5q-35 0 -65 -34t-61 -86.5t-54 -112.5t-23 -112q0 -6 0.5 -12t6.5 -22.5t33 -16.5q12 0 22 4q6 4 13 7.5t24 21.5t30 36.5t25 42.5t31 74z" />
    <glyph glyph-name="aring" unicode="&#xe5;" horiz-adv-x="479" 
d="M352 601q0 32 23 55t55 23q33 0 55.5 -23.5t22.5 -55.5t-23 -55t-55 -23q-16 2 -28.5 5.5t-25 16t-18.5 28.5t-6 29zM431 550q21 0 34.5 14.5t13.5 34.5q0 21 -14 35t-35 14t-34.5 -14.5t-13.5 -34.5q0 -9 2.5 -17.5t9 -15t14.5 -11.5t23 -5zM431 459h82l-122 -384
l-3 -21q0 -16 16 -16q9 0 17 6t20.5 19.5t23.5 29t25 37.5l29 -20q-35 -54 -68 -87t-77 -33q-30 0 -42 16t-16 36l-1 29q-26 -35 -62 -58.5t-71 -23.5q-27 0 -49.5 14t-35 46.5t-12.5 64.5q0 36 5.5 55.5t21.5 63.5l25 48q13 24 21 36.5t24 32.5q19 27 52.5 59.5t61 42.5
t38.5 12.5t29 2.5q25 0 36.5 -6t27.5 -19zM400 358q10 28 10 38q0 13 -10 24.5t-31 11.5q-35 0 -65 -34t-61 -86.5t-54 -112.5t-23 -112q0 -6 0.5 -12t6.5 -22.5t33 -16.5q12 0 22 4q6 4 13 7.5t24 21.5t30 36.5t25 42.5t31 74z" />
    <glyph glyph-name="ae" unicode="&#xe6;" horiz-adv-x="583" 
d="M424 456h80l-8 -29q35 25 54 32.5t41 7.5q29 0 48 -18t19 -48q0 -14 -1.5 -20.5t-9 -25t-19 -34t-34.5 -35.5t-52.5 -39.5t-73.5 -42.5l-40 -20l-16 -9q-5 -19 -9.5 -38t-4.5 -39q0 -21 5.5 -35.5t18 -21.5t27.5 -7q9 0 17 2.5t27 15.5t33.5 34t35.5 60l36 -9l-26 -45
q-22 -36 -58.5 -70t-93.5 -34q-35 0 -56.5 19t-27.5 32t-8.5 25t-4.5 18q-27 -35 -59.5 -64t-84.5 -29q-27 0 -42 8.5t-26 22.5t-19 36t-8 53q0 23 2.5 37t11 45.5t29.5 72.5t45.5 74t58.5 66t59.5 43.5t40 14.5t30.5 4q23 0 37 -7.5t24 -19.5zM259 343q-20 -32 -44.5 -87.5
t-33.5 -87.5t-12 -58l-3 -26q0 -21 9 -35.5t29 -14.5q11 0 22.5 5t29.5 20.5t33 37.5t37 69l21 50l15 44l17 45l16 50q9 33 9 43q0 18 -12 26.5t-30 6.5q-24 0 -50 -22.5t-53 -65.5zM566 316q22 23 31.5 43.5t9.5 36.5q0 18 -9 24t-21 6q-25 0 -53 -25q-23 -26 -36 -43
t-31 -60t-32 -81q52 28 82.5 48t58.5 51z" />
    <glyph glyph-name="ccedilla" unicode="&#xe7;" horiz-adv-x="333" 
d="M364 138l-9 -19q-27 -51 -55.5 -80.5t-52.5 -38t-41 -10.5l-18 -37q21 0 37.5 -6.5t25.5 -23.5t9 -32q0 -16 -6 -31t-22.5 -27.5t-37 -19.5t-40.5 -7q-41 0 -63.5 18t-22.5 42q0 15 7.5 21t17.5 6q9 0 15.5 -6.5t6.5 -14.5l-3 -12l-2 -8q0 -7 8.5 -13.5t22.5 -6.5t28 7.5
t24 24.5t10 33q0 9 -7 22t-24.5 16t-18.5 3l29 53q-9 2 -15.5 4t-23.5 11.5t-34 40t-17 81.5q0 70 33.5 145t77.5 118t80.5 59.5t63.5 16.5q21 -2 37 -7.5t27.5 -23.5t11.5 -34q0 -19 -11.5 -32.5t-30.5 -13.5q-14 0 -23 10t-9 23l1 10q5 13 5 19q0 7 -5 9t-12 3
q-9 0 -18 -4.5t-17.5 -10.5t-29 -33t-40 -65t-41 -96t-21.5 -116q1 -12 2.5 -26.5t12 -29.5t31.5 -15q9 0 19 3t17 9q26 16 41.5 39t38.5 69z" />
    <glyph glyph-name="egrave" unicode="&#xe8;" horiz-adv-x="354" 
d="M369 137q-22 -40 -35.5 -62.5t-40.5 -45t-48 -31.5t-48 -9q-9 0 -19 1.5t-32 11.5t-37 44t-15 74q0 68 32 141t81 126q26 31 66 55t74 24q5 0 10 -0.5t17 -4t27 -18t15 -44.5q0 -25 -15.5 -55t-38 -51.5t-28.5 -26t-23.5 -17.5t-46.5 -29.5t-82 -42.5q-2 -5 -5.5 -28.5
t-3.5 -41.5q0 -72 46 -72q16 0 28.5 7.5t31.5 27t31.5 39t24.5 44.5zM241 247l17 12q25 17 36 26t26 25t28 41t13 41q0 18 -9.5 25t-20.5 7q-19 0 -43 -25t-52.5 -80.5t-40.5 -99.5q12 6 20.5 11t25.5 17zM375 541l3 -7q-1 -3 -3.5 -6t-7.5 -3q-5 1 -15 7l-128 99
q-8 5 -13 11t-5 13q2 6 5.5 8.5t21.5 2.5h11q20 0 26.5 -2t16.5 -15z" />
    <glyph glyph-name="eacute" unicode="&#xe9;" horiz-adv-x="354" 
d="M369 137q-22 -40 -35.5 -62.5t-40.5 -45t-48 -31.5t-48 -9q-9 0 -19 1.5t-32 11.5t-37 44t-15 74q0 68 32 141t81 126q26 31 66 55t74 24q5 0 10 -0.5t17 -4t27 -18t15 -44.5q0 -25 -15.5 -55t-38 -51.5t-28.5 -26t-23.5 -17.5t-46.5 -29.5t-82 -42.5q-2 -5 -5.5 -28.5
t-3.5 -41.5q0 -72 46 -72q16 0 28.5 7.5t31.5 27t31.5 39t24.5 44.5zM241 247l17 12q25 17 36 26t26 25t28 41t13 41q0 18 -9.5 25t-20.5 7q-19 0 -43 -25t-52.5 -80.5t-40.5 -99.5q12 6 20.5 11t25.5 17zM465 666q7 0 12.5 -2t5.5 -12q-1 -10 -21 -24l-165 -96
q-13 -8 -18 -8q-9 0 -9 9q0 4 3 6.5t4 3.5l124 106q18 17 39 17h25z" />
    <glyph glyph-name="ecircumflex" unicode="&#xea;" horiz-adv-x="354" 
d="M369 137q-22 -40 -35.5 -62.5t-40.5 -45t-48 -31.5t-48 -9q-9 0 -19 1.5t-32 11.5t-37 44t-15 74q0 68 32 141t81 126q26 31 66 55t74 24q5 0 10 -0.5t17 -4t27 -18t15 -44.5q0 -25 -15.5 -55t-38 -51.5t-28.5 -26t-23.5 -17.5t-46.5 -29.5t-82 -42.5q-2 -5 -5.5 -28.5
t-3.5 -41.5q0 -72 46 -72q16 0 28.5 7.5t31.5 27t31.5 39t24.5 44.5zM241 247l17 12q25 17 36 26t26 25t28 41t13 41q0 18 -9.5 25t-20.5 7q-19 0 -43 -25t-52.5 -80.5t-40.5 -99.5q12 6 20.5 11t25.5 17zM218 531q-3 -2 -7 -4t-10 -2q-8 0 -8 7q0 6 11 14l145 113
q4 2 6.5 3t5.5 2q6 0 10 -4t7 -11l47 -104q2 -2 3 -4.5t1 -7.5q-2 -7 -6 -7l-8 3q-4 2 -20.5 17.5t-32 31.5t-20.5 16q-7 0 -20 -7z" />
    <glyph glyph-name="edieresis" unicode="&#xeb;" horiz-adv-x="354" 
d="M369 137q-12 -22 -16.5 -30t-23.5 -36.5t-57 -55t-75 -26.5q-13 0 -19.5 1t-26 9.5t-38.5 39t-19 81.5q0 20 3 41.5t12 52.5t33.5 80.5t59.5 86t69 61t76 24.5q30 0 49.5 -18.5t19.5 -48.5q0 -47 -28.5 -79.5t-67.5 -64.5q-29 -21 -55.5 -36t-82.5 -42q-3 -13 -6 -35.5
t-3 -34.5q0 -72 46 -72q13 0 29.5 9t35 29.5t29 38t22.5 41.5zM240 246l17 12q20 14 32.5 23.5t29 27t29.5 41.5t13 42t-9.5 25t-20.5 7q-25 0 -53.5 -38t-47 -79.5t-35.5 -87.5zM199 577q0 21 14.5 34.5t34.5 13.5q21 0 35 -14t14 -35t-14.5 -34.5t-34.5 -13.5q-13 0 -19 3
t-14.5 10.5t-12 17.5t-3.5 18zM381 577q0 20 14 34t35 14t34.5 -14.5t13.5 -34.5q0 -21 -14 -35t-35 -14q-19 0 -30 11t-14.5 21t-3.5 18z" />
    <glyph glyph-name="igrave" unicode="&#xec;" horiz-adv-x="292" 
d="M327 117q-8 -15 -20 -35t-29 -41q-10 -10 -25.5 -24t-29 -18.5t-20.5 -6t-17 -1.5q-36 0 -47.5 13.5t-16 21t-4.5 19.5q0 13 4 27.5t13 41.5l79 237q6 19 8.5 28t2.5 17q0 15 -13 15q-8 -2 -15.5 -7.5t-18.5 -23.5t-32 -58l-34 10l17 34q27 52 57.5 75t61.5 23
q14 0 26.5 -4.5t20.5 -15.5t10 -19.5t2 -17.5q0 -8 -1 -16.5t-5 -23.5l-83 -260q-6 -16 -9 -26t-3 -18q0 -19 15 -19q10 0 25 16.5t24 29t25 43.5zM344 541l3 -7q-1 -3 -3.5 -6t-7.5 -3q-5 1 -15 7l-128 99q-8 5 -13 11t-5 13q2 6 5 8.5t22 2.5h11q19 0 26 -2t17 -15z" />
    <glyph glyph-name="iacute" unicode="&#xed;" horiz-adv-x="292" 
d="M327 117q-8 -15 -20 -35t-29 -41q-10 -10 -25.5 -24t-29 -18.5t-20.5 -6t-17 -1.5q-36 0 -47.5 13.5t-16 21t-4.5 19.5q0 13 4 27.5t13 41.5l79 237q6 19 8.5 28t2.5 17q0 15 -13 15q-8 -2 -15.5 -7.5t-18.5 -23.5t-32 -58l-34 10l17 34q27 52 57.5 75t61.5 23
q14 0 26.5 -4.5t20.5 -15.5t10 -19.5t2 -17.5q0 -8 -1 -16.5t-5 -23.5l-83 -260q-6 -16 -9 -26t-3 -18q0 -19 15 -19q10 0 25 16.5t24 29t25 43.5zM434 666q7 0 12 -2t5 -12q0 -8 -5.5 -13t-14.5 -11l-165 -96q-13 -8 -18 -8q-9 0 -9 9q0 2 2 4.5t4 5.5l125 106q17 17 38 17
h26z" />
    <glyph glyph-name="icircumflex" unicode="&#xee;" horiz-adv-x="292" 
d="M327 117q-8 -15 -20 -35t-29 -41q-10 -10 -25.5 -24t-29 -18.5t-20.5 -6t-17 -1.5q-36 0 -47.5 13.5t-16 21t-4.5 19.5q0 13 4 27.5t13 41.5l79 237q6 19 8.5 28t2.5 17q0 15 -13 15q-8 -2 -15.5 -7.5t-18.5 -23.5t-32 -58l-34 10l17 34q27 52 57.5 75t61.5 23
q14 0 26.5 -4.5t20.5 -15.5t10 -19.5t2 -17.5q0 -8 -1 -16.5t-5 -23.5l-83 -260q-6 -16 -9 -26t-3 -18q0 -19 15 -19q10 0 25 16.5t24 29t25 43.5zM187 531q-3 -2 -7 -4t-10 -2q-8 0 -8 7q0 6 10 14l146 113q4 2 6.5 3t5.5 2q6 0 10 -4t7 -11l47 -104q2 -2 3 -4.5t1 -7.5
q-2 -7 -6 -7l-9 3q-3 1 -17 14.5t-32 32t-24 18.5t-19 -7z" />
    <glyph glyph-name="idieresis" unicode="&#xef;" horiz-adv-x="292" 
d="M327 117q-8 -15 -20 -35t-29 -41q-10 -10 -25.5 -24t-29 -18.5t-20.5 -6t-17 -1.5q-36 0 -47.5 13.5t-16 21t-4.5 19.5q0 13 4 27.5t13 41.5l79 237q6 19 8.5 28t2.5 17q0 15 -13 15q-8 -2 -15.5 -7.5t-18.5 -23.5t-32 -58l-34 10l17 34q27 52 57.5 75t61.5 23
q14 0 26.5 -4.5t20.5 -15.5t10 -19.5t2 -17.5q0 -8 -1 -16.5t-5 -23.5l-83 -260q-6 -16 -9 -26t-3 -18q0 -19 15 -19q10 0 25 16.5t24 29t25 43.5zM168 577q0 20 14 34t35 14q20 0 34 -14t14 -35q0 -20 -14 -34t-35 -14q-20 0 -34 14t-14 35zM349 577q0 21 14.5 34.5
t34.5 13.5q21 0 35 -14t14 -35t-14 -35t-35 -14q-18 0 -35 15q-14 16 -14 35z" />
    <glyph glyph-name="ntilde" unicode="&#xf1;" horiz-adv-x="500" 
d="M549 120l-17 -30q-9 -18 -32 -44.5t-41 -38.5q-18 -10 -33.5 -14.5t-30.5 -4.5q-33 0 -47.5 19t-14.5 39q0 12 7 37t9 32l72 214q4 15 9.5 33.5t5.5 26.5q0 27 -27 27q-16 0 -35 -14q-15 -9 -29 -23t-33.5 -43t-36.5 -65.5t-43 -119.5l-45 -151h-85l107 343q2 5 6.5 23
t4.5 23q0 19 -16 19q-10 0 -18.5 -7.5t-18 -21t-20.5 -32t-17 -31.5l-36 10q21 38 36 61.5t33 41.5t34 27t34 9q25 0 38.5 -15.5t13.5 -43.5q0 -21 -6 -43.5t-8 -29.5q8 13 18 28t36 44.5t56 45.5t56 16q34 0 55.5 -23.5t21.5 -58.5q0 -23 -8.5 -52.5t-22.5 -67.5l-52 -160
q-5 -13 -8.5 -24t-3.5 -19q0 -20 18 -20q11 0 18.5 5.5t17 15t22 29t24.5 43.5zM360 572q-8 2 -21.5 5.5t-18.5 3.5q-18 0 -31 -14q-11 -15 -17 -15q-11 0 -11 11l2.5 7.5t7.5 14.5q14 18 31 31.5t42 13.5q16 0 33.5 -4t51 -17t48.5 -13q14 0 24 5t17 14q4 11 13 11
q4 -1 7.5 -3t3.5 -8q0 -7 -14 -25.5t-33.5 -30t-41.5 -11.5q-14 0 -26 4t-14 5l-26 6z" />
    <glyph glyph-name="ograve" unicode="&#xf2;" horiz-adv-x="417" 
d="M421 418q14 -20 22 -46.5t8 -64.5q0 -67 -22.5 -126.5t-56 -106.5t-77 -67t-73.5 -20q-31 0 -53.5 16t-37.5 38.5t-19.5 54t-6.5 58.5q0 55 16.5 110.5t39 89t39 51t38.5 33t42.5 21.5t28 7t13.5 1q32 0 56.5 -10.5t42.5 -38.5zM293 415q-36 -28 -58.5 -83t-40 -124.5
t-17.5 -109.5q0 -13 2 -27t8 -24t16 -17t22 -7q14 0 30 10t31.5 32t25 41t22.5 57q14 33 30.5 100t16.5 101q0 33 -8.5 44.5t-19 17t-26.5 5.5q-7 0 -16.5 -4.5t-17.5 -11.5zM406 541l4 -7q-2 -3 -5 -6t-7 -3q-5 1 -15 7l-128 99q-6 4 -12 11t-6 13q2 6 5.5 8.5t21.5 2.5h11
q9 0 20 -0.5t23 -16.5z" />
    <glyph glyph-name="oacute" unicode="&#xf3;" horiz-adv-x="417" 
d="M421 418q14 -20 22 -46.5t8 -64.5q0 -67 -22.5 -126.5t-56 -106.5t-77 -67t-73.5 -20q-31 0 -53.5 16t-37.5 38.5t-19.5 54t-6.5 58.5q0 55 16.5 110.5t39 89t39 51t38.5 33t42.5 21.5t28 7t13.5 1q32 0 56.5 -10.5t42.5 -38.5zM293 415q-36 -28 -58.5 -83t-40 -124.5
t-17.5 -109.5q0 -13 2 -27t8 -24t16 -17t22 -7q14 0 30 10t31.5 32t25 41t22.5 57q14 33 30.5 100t16.5 101q0 33 -8.5 44.5t-19 17t-26.5 5.5q-7 0 -16.5 -4.5t-17.5 -11.5zM496 666q7 0 12.5 -2t5.5 -12q0 -7 -3.5 -10.5t-16.5 -13.5l-166 -96q-11 -8 -17 -8q-10 0 -10 9
q0 4 3 6.5t4 3.5l124 106q18 17 39 17h25z" />
    <glyph glyph-name="ocircumflex" unicode="&#xf4;" horiz-adv-x="417" 
d="M421 418q14 -20 22 -46.5t8 -64.5q0 -67 -22.5 -126.5t-56 -106.5t-77 -67t-73.5 -20q-31 0 -53.5 16t-37.5 38.5t-19.5 54t-6.5 58.5q0 55 16.5 110.5t39 89t39 51t38.5 33t42.5 21.5t28 7t13.5 1q32 0 56.5 -10.5t42.5 -38.5zM293 415q-36 -28 -58.5 -83t-40 -124.5
t-17.5 -109.5q0 -13 2 -27t8 -24t16 -17t22 -7q14 0 30 10t31.5 32t25 41t22.5 57q14 33 30.5 100t16.5 101q0 33 -8.5 44.5t-19 17t-26.5 5.5q-7 0 -16.5 -4.5t-17.5 -11.5zM250 531q-3 -2 -7.5 -4t-10.5 -2q-8 0 -8 7q0 6 11 14l146 113q3 2 6 3l6 2q10 0 16 -15l48 -104
q2 -2 3 -4.5t1 -7.5q-3 -7 -6 -7l-9 3q-4 2 -20.5 17.5t-32 31.5t-20.5 16q-6 0 -19 -7z" />
    <glyph glyph-name="otilde" unicode="&#xf5;" horiz-adv-x="417" 
d="M421 418q14 -20 22 -46.5t8 -64.5q0 -67 -22.5 -126.5t-56 -106.5t-77 -67t-73.5 -20q-31 0 -53.5 16t-37.5 38.5t-19.5 54t-6.5 58.5q0 55 16.5 110.5t39 89t39 51t38.5 33t42.5 21.5t28 7t13.5 1q32 0 56.5 -10.5t42.5 -38.5zM293 415q-36 -28 -58.5 -83t-40 -124.5
t-17.5 -109.5q0 -13 2 -27t8 -24t16 -17t22 -7q14 0 30 10t31.5 32t25 41t22.5 57q14 33 30.5 100t16.5 101q0 33 -8.5 44.5t-19 17t-26.5 5.5q-7 0 -16.5 -4.5t-17.5 -11.5zM318 572q-2 1 -18 5t-21 4q-18 0 -26.5 -9.5t-12.5 -14.5t-10 -5q-11 0 -11 11q2 5 4.5 11
t11.5 17.5t26 25t41 13.5q16 0 33.5 -4t51 -17t48.5 -13q14 0 24 5t17 15t13 10q12 0 12 -11q-1 -7 -16.5 -28t-37.5 -30t-36 -9q-13 0 -20 2t-20 7l-26 6z" />
    <glyph glyph-name="odieresis" unicode="&#xf6;" horiz-adv-x="417" 
d="M421 418q14 -20 22 -46.5t8 -64.5q0 -67 -22.5 -126.5t-56 -106.5t-77 -67t-73.5 -20q-31 0 -53.5 16t-37.5 38.5t-19.5 54t-6.5 58.5q0 55 16.5 110.5t39 89t39 51t38.5 33t42.5 21.5t28 7t13.5 1q32 0 56.5 -10.5t42.5 -38.5zM293 415q-36 -28 -58.5 -83t-40 -124.5
t-17.5 -109.5q0 -13 2 -27t8 -24t16 -17t22 -7q14 0 30 10t31.5 32t25 41t22.5 57q14 33 30.5 100t16.5 101q0 33 -8.5 44.5t-19 17t-26.5 5.5q-7 0 -16.5 -4.5t-17.5 -11.5zM422 577q0 21 14.5 34.5t34.5 13.5t34 -14t14 -35t-14 -35t-35 -14q-19 0 -30 11t-14.5 21
t-3.5 18zM241 577q0 21 14.5 34.5t34.5 13.5q21 0 34.5 -14.5t13.5 -34.5t-13.5 -34.5t-34.5 -14.5q-18 0 -30 11t-15.5 21t-3.5 18z" />
    <glyph glyph-name="divide" unicode="&#xf7;" horiz-adv-x="667" 
d="M382 115q-20 0 -33 13t-13 33q0 5 4 17.5t15.5 20t27.5 7.5q19 0 32 -13t13 -33q0 -19 -13 -32t-33 -13zM381 375q-19 0 -32 13t-13 33t13 33t34 13q19 0 32 -13.5t13 -33.5t-13.5 -32.5t-33.5 -12.5zM47 261v59h667v-59h-667z" />
    <glyph glyph-name="oslash" unicode="&#xf8;" horiz-adv-x="417" 
d="M432 456l20 -14l-26 -34q13 -27 18 -43.5t5 -54.5q0 -35 -6.5 -65.5t-26.5 -85.5t-61 -98.5t-76 -57.5t-64 -14q-32 0 -47.5 10t-34.5 30l-23 -30l-19 14l28 39q-9 22 -14.5 43t-5.5 55q0 46 17.5 110.5t58.5 116.5t81 70.5t72 18.5q27 0 43.5 -8t39.5 -29zM379 387
q-8 23 -20.5 32.5t-27.5 9.5q-12 0 -22.5 -4t-28.5 -18t-44 -60t-41.5 -96.5t-21.5 -81.5l-7 -59zM169 74q6 -19 15.5 -33.5t33.5 -14.5q19 3 34.5 11.5t32 30t40 70t41 98.5t17.5 119z" />
    <glyph glyph-name="ugrave" unicode="&#xf9;" horiz-adv-x="500" 
d="M530 454l-114 -361q-5 -17 -7 -25.5t-2 -12.5q0 -16 14 -16q7 0 12.5 3.5t17.5 17.5t20 26.5t25 43.5l31 -16q-31 -54 -61 -89t-70 -35q-6 0 -13.5 1.5t-15.5 7t-17 22.5t-9 39q0 13 2 23.5t9 33.5q-16 -27 -39.5 -55t-39.5 -39.5t-25 -16.5t-25.5 -11t-34.5 -6
q-11 0 -24.5 5t-29 23t-15.5 48q0 36 31 123l60 169q10 27 10 39q0 16 -14 15q-3 -1 -6.5 -2t-12 -7t-20 -24t-27.5 -52l-33 11q17 35 34.5 62.5t34.5 41t31 19t31 5.5q29 0 44.5 -18.5t15.5 -48.5q0 -22 -21 -85l-57 -163l-15 -48q-2 -6 -5.5 -20.5t-3.5 -20.5
q0 -23 24 -23q17 0 36 16t33.5 33.5t29.5 37.5t34 61.5t48 126.5l44 141h85zM448 541l3 -7q-1 -3 -3.5 -6t-7.5 -3q-5 1 -15 7l-128 99q-8 5 -13 11t-5 13q2 6 5.5 8.5t21.5 2.5h11q19 0 26 -2t17 -15z" />
    <glyph glyph-name="uacute" unicode="&#xfa;" horiz-adv-x="500" 
d="M530 454l-114 -361q-5 -17 -7 -25.5t-2 -12.5q0 -16 14 -16q7 0 12.5 3.5t17.5 17.5t20 26.5t25 43.5l31 -16q-31 -54 -61 -89t-70 -35q-6 0 -13.5 1.5t-15.5 7t-17 22.5t-9 39q0 13 2 23.5t9 33.5q-16 -27 -39.5 -55t-39.5 -39.5t-25 -16.5t-25.5 -11t-34.5 -6
q-11 0 -24.5 5t-29 23t-15.5 48q0 36 31 123l60 169q10 27 10 39q0 16 -14 15q-3 -1 -6.5 -2t-12 -7t-20 -24t-27.5 -52l-33 11q17 35 34.5 62.5t34.5 41t31 19t31 5.5q29 0 44.5 -18.5t15.5 -48.5q0 -22 -21 -85l-57 -163l-15 -48q-2 -6 -5.5 -20.5t-3.5 -20.5
q0 -23 24 -23q17 0 36 16t33.5 33.5t29.5 37.5t34 61.5t48 126.5l44 141h85zM538 666q7 0 12.5 -2t5.5 -12q-1 -10 -21 -24l-165 -96q-13 -8 -18 -8q-9 0 -9 9q0 2 2 4.5t4 5.5l125 106q17 17 39 17h25z" />
    <glyph glyph-name="ucircumflex" unicode="&#xfb;" horiz-adv-x="500" 
d="M530 454l-114 -361q-5 -17 -7 -25.5t-2 -12.5q0 -16 14 -16q7 0 12.5 3.5t17.5 17.5t20 26.5t25 43.5l31 -16q-31 -54 -61 -89t-70 -35q-6 0 -13.5 1.5t-15.5 7t-17 22.5t-9 39q0 13 2 23.5t9 33.5q-16 -27 -39.5 -55t-39.5 -39.5t-25 -16.5t-25.5 -11t-34.5 -6
q-11 0 -24.5 5t-29 23t-15.5 48q0 36 31 123l60 169q10 27 10 39q0 16 -14 15q-3 -1 -6.5 -2t-12 -7t-20 -24t-27.5 -52l-33 11q17 35 34.5 62.5t34.5 41t31 19t31 5.5q29 0 44.5 -18.5t15.5 -48.5q0 -22 -21 -85l-57 -163l-15 -48q-2 -6 -5.5 -20.5t-3.5 -20.5
q0 -23 24 -23q17 0 36 16t33.5 33.5t29.5 37.5t34 61.5t48 126.5l44 141h85zM291 531q-3 -2 -7 -4t-10 -2q-8 0 -8 7q0 6 10 14l146 113q4 2 6.5 3t5.5 2q6 0 10 -4t7 -11l47 -104q2 -2 3 -4.5t1 -7.5q-2 -7 -6 -7l-8 3q-4 2 -22 19t-32 31.5t-19 14.5q-7 0 -20 -7z" />
    <glyph glyph-name="udieresis" unicode="&#xfc;" horiz-adv-x="500" 
d="M530 454l-114 -361q-5 -17 -7 -25.5t-2 -12.5q0 -16 14 -16q7 0 12.5 3.5t17.5 17.5t20 26.5t25 43.5l31 -16q-31 -54 -61 -89t-70 -35q-6 0 -13.5 1.5t-15.5 7t-17 22.5t-9 39q0 13 2 23.5t9 33.5q-16 -27 -39.5 -55t-39.5 -39.5t-25 -16.5t-25.5 -11t-34.5 -6
q-11 0 -24.5 5t-29 23t-15.5 48q0 36 31 123l60 169q10 27 10 39q0 16 -14 15q-3 -1 -6.5 -2t-12 -7t-20 -24t-27.5 -52l-33 11q17 35 34.5 62.5t34.5 41t31 19t31 5.5q29 0 44.5 -18.5t15.5 -48.5q0 -22 -21 -85l-57 -163l-15 -48q-2 -6 -5.5 -20.5t-3.5 -20.5
q0 -23 24 -23q17 0 36 16t33.5 33.5t29.5 37.5t34 61.5t48 126.5l44 141h85zM445 576q0 21 14 35t35 14t34.5 -14.5t13.5 -34.5q0 -21 -14 -35t-35 -14q-20 0 -30 10.5t-14 21t-4 17.5zM263 576q0 21 14 35t35 14t35 -14t14 -35t-14 -35t-35 -14q-20 0 -30.5 10.5t-14.5 21
t-4 17.5z" />
    <glyph glyph-name="ydieresis" unicode="&#xff;" horiz-adv-x="396" 
d="M84 303q2 22 7 55t19 63q10 18 24.5 32.5t38.5 14.5q10 0 21 -4t29.5 -24t31.5 -74.5t21 -109.5t8 -119v-57l42 84q22 51 38 98q18 62 18 87q0 17 -3.5 24.5t-14 17.5t-17.5 20.5t-7 23.5q0 10 7 21t24 11q15 0 37 -17t22 -75q0 -22 -4 -44t-21.5 -78t-42.5 -111
t-64 -128.5t-77.5 -135.5t-70.5 -99q-19 -24 -52 -48t-68 -24q-25 0 -38.5 12.5t-13.5 27.5t11.5 24.5t27.5 9.5q7 0 22 -3t23 -3q13 0 26 5t30 22l21 21l16 23q4 6 11.5 19.5t18.5 40.5l14 43q6 23 11.5 61.5t5.5 84.5q0 48 -4 83.5t-6.5 55t-8 47t-15 64t-14.5 44t-8 9.5
t-7 3q-7 0 -15 -10t-12.5 -24t-7 -34.5t-2.5 -43.5zM220 577q0 20 14 34t35 14q20 0 34 -14t14 -35q0 -20 -14 -34t-35 -14q-20 0 -34 14t-14 35zM401 577q0 21 14.5 34.5t34.5 13.5q21 0 35 -14t14 -35t-14 -35t-35 -14q-18 0 -35 15q-14 16 -14 35z" />
    <glyph glyph-name="dotlessi" unicode="&#x131;" horiz-adv-x="292" 
d="M327 117q-8 -15 -20 -35t-29 -41q-10 -10 -25.5 -24t-29 -18.5t-20.5 -6t-17 -1.5q-36 0 -47.5 13.5t-16 21t-4.5 19.5q0 13 4 27.5t13 41.5l79 237q6 19 8.5 28t2.5 17q0 15 -13 15q-8 -2 -15.5 -7.5t-18.5 -23.5t-32 -58l-34 10l17 34q27 52 57.5 75t61.5 23
q14 0 26.5 -4.5t20.5 -15.5t10 -19.5t2 -17.5q0 -8 -1 -16.5t-5 -23.5l-83 -260q-6 -16 -9 -26t-3 -18q0 -19 15 -19q10 0 25 16.5t24 29t25 43.5z" />
    <glyph glyph-name="OE" unicode="&#x152;" horiz-adv-x="1000" 
d="M1097 546l-32 1q0 41 -6 65.5t-28.5 39.5t-46 17.5t-50.5 2.5h-105l-81 -279h79q26 0 35 1t26.5 8.5t28.5 29.5t24 73h37l-79 -275l-37 1q6 22 14 50t8 40q0 23 -16.5 26.5t-32.5 3.5h-100l-77 -268q-1 -4 -2 -10.5t-1 -7.5q0 -18 14 -23t37 -5h11h35q76 0 116 4t70.5 34
t42 52.5t29.5 69.5h36l-57 -197h-462q-23 -4 -43 -6t-44 -2q-38 0 -81 7.5t-76.5 29.5t-45 35t-33.5 43.5t-34 76t-12 93.5q0 27 4 56t22 97t87 150.5t134 104t105 28.5t90 7q49 0 76 -3q40 -7 68 -11h353v-160zM703 595q1 3 5.5 20t4.5 24t-2.5 15.5t-15.5 15.5t-34.5 9.5
t-42.5 2.5q-32 0 -69 -5.5t-64.5 -20.5t-34.5 -19.5t-24 -19t-22 -19.5t-35 -42t-63.5 -137.5t-33.5 -180.5q0 -71 23 -116.5t47 -61t46.5 -22.5t52.5 -7q12 0 23 1t36 8.5t38 24t27 54.5z" />
    <glyph glyph-name="oe" unicode="&#x153;" horiz-adv-x="583" 
d="M601 139l-19 -31q-29 -43 -66 -81.5t-93 -38.5q-37 0 -53 18t-29 46l-17 -16q-23 -23 -50 -35t-55 -12q-25 0 -42.5 7.5t-25.5 15t-17 17t-15.5 20.5t-14 37.5t-7.5 56.5q0 18 11 79t42.5 108t43 60.5t29 29t46 31.5t62.5 16q27 0 47.5 -10t31.5 -24t13.5 -18t12.5 -26
l27 26q31 26 61.5 39.5t59.5 13.5q24 0 48 -11.5t24 -48.5q0 -16 -7 -37t-23.5 -41t-43 -44.5t-61.5 -47.5t-107 -64q-5 -17 -10 -47.5t-5 -44.5q0 -28 12.5 -38t30.5 -10q14 0 29.5 7.5t35 27.5t32 38t27.5 43zM552 311q16 19 32.5 43.5t16.5 49.5q0 13 -7 20t-20 7
t-30 -10t-25 -21q-31 -32 -49.5 -73.5t-42.5 -108.5q36 21 69 45t56 48zM244 344q-25 -45 -47 -115t-22 -117q0 -37 9 -55t19 -23.5t21 -5.5q14 0 27 7.5t24 19.5l13 15l15 27q10 19 16 34t17.5 48.5t27.5 95t16 95.5q0 32 -14.5 45t-34.5 13q-22 0 -43.5 -21.5t-43.5 -62.5
z" />
    <glyph glyph-name="Ydieresis" unicode="&#x178;" horiz-adv-x="646" 
d="M472 706l-10 -33h-27q-22 0 -37.5 -6.5t-15.5 -26.5l3 -17l73 -229l202 216l18 22.5t6 17.5q0 6 -4 11t-11 8t-29 4t-42 1l9 32h255l-10 -31q-44 0 -61.5 -8t-49.5 -41l-259 -269l-74 -243q-12 -36 -12 -47q0 -13 8.5 -20t27 -9.5t51.5 -2.5l-10 -35h-296l10 34h14
q25 0 48.5 4.5t35.5 23.5t23 58l68 221l-93 284q-11 32 -28.5 40t-71.5 8l10 33h279zM613 808q0 20 14.5 34.5t35.5 14.5q20 0 35 -15t15 -35q0 -21 -15 -35t-35 -14q-13 0 -20 3.5t-16 10.5q-14 16 -14 36zM408 808q0 21 14 35t36 14q21 0 35 -15t14 -35q0 -21 -15 -35
t-35 -14q-12 0 -19.5 3.5t-18.5 14t-11 32.5z" />
    <glyph glyph-name="caron" unicode="&#x2c7;" 
d="M219 540q-4 -4 -10 -8.5t-13 -4.5q-8 0 -16 13l-59 106l-4 9q1 3 2.5 6t6.5 3l7 -2q4 -3 16.5 -13t18.5 -16l22 -21q17 -17 27 -17q6 0 14 6l101 56q10 5 14.5 7.5t8.5 2.5q9 -2 9 -6q0 -6 -11 -16z" />
    <glyph glyph-name="circumflex" unicode="&#x302;" 
d="M93 531q-3 -2 -7 -4t-10 -2q-8 0 -8 7q0 6 11 14l145 113q4 2 6.5 3t5.5 2q6 0 10 -4t7 -11l48 -104q3 -8 3 -12q-2 -7 -6 -7l-8 3q-4 2 -20.5 17.5t-32 31.5t-20.5 16q-7 0 -20 -7z" />
    <glyph glyph-name="tilde" unicode="&#x303;" 
d="M162 572q-8 2 -21.5 5.5t-18.5 3.5q-17 0 -25.5 -9.5t-12.5 -14.5t-10 -5q-11 0 -11 11q2 5 4.5 11t12 19.5t29 25t37.5 11.5q16 0 33.5 -4t51 -17t48.5 -13q14 0 24 5t17 15t13 10q11 0 11 -11q0 -7 -14 -25.5t-33.5 -30t-41.5 -11.5q-14 0 -26 4t-14 5l-26 6z" />
    <glyph glyph-name="summation" unicode="&#x3a3;" horiz-adv-x="713" 
d="M618 643l15 -129h-44q-32 105 -85 144t-169 39h-132l315 -431l-344 -394h187q122 0 172.5 31.5t82.5 116.5h45l-30 -130l-2 -7q-23 -99 -111 -99h-482l389 446l-375 514h460q65 0 82 -15q17 -13 26 -86z" />
    <glyph glyph-name="Omega" unicode="&#x3a9;" horiz-adv-x="768" 
d="M593 90q48 0 68 19t20 67h23v-176h-272v180q77 15 122.5 76.5t45.5 151.5q0 106 -59 168.5t-157 62.5t-157 -62.5t-59 -168.5q0 -90 44.5 -151t123.5 -77v-180h-272v176h23q0 -48 19 -67t69 -19h123v59q-118 21 -183 89t-65 170q0 121 92.5 194t241.5 73t241.5 -73.5
t92.5 -193.5q0 -100 -64 -168t-184 -91v-59h123z" />
    <glyph glyph-name="pi" unicode="&#x3c0;" horiz-adv-x="549" 
d="M404 373l-1 -24l-3 -150v-40q0 -84 8.5 -105t30.5 -21q28 0 41 29q17 31 17 89h25v-5q0 -80 -26 -118t-80 -38q-56 0 -79.5 40t-23.5 164l1 78l3 104l-50 1l-77 2q0 -234 -23 -311.5t-80 -77.5q-35 0 -52.5 29t-17.5 86v19h24q0 -27 9.5 -39.5t27.5 -12.5q42 0 54.5 47
t18 110.5t5.5 149.5h-22q-38 0 -59.5 -13.5t-27.5 -39.5h-23q0 34 10 57.5t36.5 44.5t112.5 21l102 -3l152 -3q34 0 49.5 7t16.5 21l23 1q0 -53 -23.5 -76.5t-74.5 -23.5h-14z" />
    <glyph glyph-name="endash" unicode="&#x2013;" horiz-adv-x="521" 
d="M554 306l-12 -61h-430l13 61h429z" />
    <glyph glyph-name="emdash" unicode="&#x2014;" horiz-adv-x="667" 
d="M47 262v59h667v-59h-667z" />
    <glyph glyph-name="quoteleft" unicode="&#x2018;" horiz-adv-x="250" 
d="M403 687q-33 -11 -55 -24t-36.5 -29.5t-21 -29.5t-6.5 -29q0 -15 11 -19t20 -7q31 -15 31 -51q0 -23 -17 -41t-41 -18q-7 0 -14 1.5t-19.5 8t-24.5 26t-12 51.5q0 12 0.5 16t9 40t41 67t51.5 40.5t33 15t31 9.5z" />
    <glyph glyph-name="quoteright" unicode="&#x2019;" horiz-adv-x="250" 
d="M195 467q22 7 47.5 20t42 32.5t22.5 31.5t6 29q0 13 -9 18q-14 5 -33.5 13t-19.5 45q0 24 17 42t42 18q7 0 13 -1t19.5 -8.5t25 -26.5t11.5 -51q0 -20 -9 -56t-41 -66.5t-55.5 -42.5t-38 -17t-21.5 -7z" />
    <glyph glyph-name="quotesinglbase" unicode="&#x201a;" horiz-adv-x="250" 
d="M41 -129q31 10 55 24t38.5 32.5t20 30t5.5 25.5q-1 8 -3.5 12.5t-10 7t-17 6.5t-17.5 12.5t-11.5 19.5t-3.5 19q0 24 17.5 41.5t41.5 17.5q17 0 29 -8q17 -8 28.5 -27t11.5 -52q0 -29 -12.5 -63.5t-36.5 -57t-39.5 -33t-25.5 -15.5t-20.5 -9t-30.5 -10z" />
    <glyph glyph-name="quotedblleft" unicode="&#x201c;" horiz-adv-x="437" 
d="M605 688q-22 -7 -47.5 -20t-42 -32.5t-22.5 -31.5t-6 -29q0 -13 9 -18q14 -5 33.5 -13t19.5 -45q0 -24 -17 -42t-42 -18q-7 0 -13 1t-19.5 8.5t-25 26.5t-11.5 51q0 20 9 56t41 66.5t55.5 42.5t38 17t21.5 7zM401 687q-33 -11 -55 -24t-36.5 -29.5t-21 -29.5t-6.5 -29
q0 -15 11 -19t20 -7q31 -15 31 -51q0 -23 -17 -41t-41 -18q-7 0 -14 1.5t-19.5 8t-24.5 26t-12 51.5q0 12 0.5 16t9 40t41 67t51.5 40.5t32.5 15t30.5 9.5z" />
    <glyph glyph-name="quotedblright" unicode="&#x201d;" horiz-adv-x="437" 
d="M394 465q24 8 48.5 20.5t41.5 32t23 31.5t6 28q0 14 -9 19q-14 5 -33.5 13t-19.5 45q0 25 17 42t42 17q17 0 30.5 -8t26 -27.5t12.5 -50.5q0 -20 -9 -56t-41.5 -67t-55.5 -42.5t-37.5 -16.5t-21.5 -7zM190 465q22 7 47.5 20t42 32.5t22.5 31.5t6 28q0 13 -9 18
q-14 5 -33.5 14t-19.5 45q0 25 17 42t42 17q7 0 13.5 -1.5t19.5 -8t24.5 -26t11.5 -51.5q0 -19 -9 -54.5t-42.5 -68t-55.5 -43t-36.5 -15.5t-21.5 -7z" />
    <glyph glyph-name="quotedblbase" unicode="&#x201e;" horiz-adv-x="437" 
d="M242 -129q22 7 47.5 20t41.5 32t23 32t7 28q0 13 -12 18t-31.5 14t-19.5 45q0 25 17 42t42 17q7 0 13.5 -1.5t19.5 -8t24.5 -26t11.5 -51.5q0 -19 -9 -54.5t-42.5 -68t-54.5 -43t-36.5 -15.5t-22.5 -7zM36 -129q22 7 47.5 20t42.5 32.5t23 31.5t6 28q0 13 -9 18
q-14 5 -33.5 14t-19.5 45q0 25 17 42t42 17q7 0 13.5 -1.5t19.5 -8t24.5 -26t11.5 -51.5q0 -19 -9 -55t-43 -68.5t-55.5 -42.5t-36 -15t-21.5 -7z" />
    <glyph glyph-name="dagger" unicode="&#x2020;" horiz-adv-x="542" 
d="M277 -34l-17 -47l-17 -59q-3 -5 -8.5 -7t-9.5 -2q-15 0 -18.5 7t-0.5 17l28 96q60 209 60 292q0 18 -2 32.5t-3 25.5l23 18q30 26 45.5 51.5t34.5 70.5q-16 -1 -33 -2.5t-40.5 -8l-47 -13t-40.5 -6.5q-14 0 -28 5t-20 16.5t-6 24.5t6.5 22.5t19.5 17.5t31 8
q13 0 31.5 -5.5t42 -11.5t43 -11t50.5 -5q9 36 11 52.5t2 41.5l2 38v21q0 20 5 33.5t15.5 22t20 12.5t18.5 4q15 0 30.5 -11t15.5 -37q0 -12 -4 -24.5t-16 -31.5l-32 -48q-6 -12 -16 -33.5t-17 -39.5q7 0 32.5 3.5t45.5 8.5t44.5 11.5t39.5 6.5q30 0 43 -13.5t13 -31.5
q0 -17 -14.5 -31.5t-44.5 -14.5q-19 0 -46 7t-45 11.5t-37 7.5t-41 3q-5 -26 -7 -41t-2 -27q0 -17 3 -32.5t17 -47.5q-8 -8 -14 -15t-20 -27t-28.5 -51.5t-39.5 -92.5l-31 -82z" />
    <glyph glyph-name="bullet" unicode="&#x2022;" horiz-adv-x="333" 
d="M322 301q-14 -32 -42 -49.5t-65 -17.5q-14 0 -24 1.5t-53.5 21t-43.5 95.5q0 50 36 85t86 35t83.5 -34.5t33.5 -84.5q0 -16 -3 -28.5t-8 -23.5z" />
    <glyph glyph-name="ellipsis" unicode="&#x2026;" horiz-adv-x="1000" 
d="M881 -6q-20 0 -33.5 13.5t-13.5 33.5t14 33t33 13q20 0 33 -13t13 -33q0 -19 -13 -33t-33 -14zM547 -6q-20 0 -33 13t-13 34q0 20 13 33t34 13q20 0 33 -13t13 -33q0 -19 -13 -33t-34 -14zM214 -6q-20 0 -33.5 13.5t-13.5 33.5t14 33t33 13q20 0 33 -13t13 -33
q0 -19 -13 -33t-33 -14z" />
    <glyph glyph-name="trademark" unicode="&#x2122;" horiz-adv-x="771" 
d="M465 454q0 -35 7 -40t13.5 -6t11.5 -2l8 -1v-31h-117v31l8 1q18 3 23 12t5 37v208l-3 4q-12 8 -28 8v31l60 -1l33 1l100 -247l105 247h93v-31h-8q-17 -2 -23.5 -8.5t-6.5 -29.5v-183v-21q0 -16 4.5 -20t9.5 -5t11 -2l8 -1l-1 -31l-76 2l-50 -2v31l7 1q18 0 22 6.5t4 20.5
v176l-98 -235h-23l-99 237v-157zM329 621l-9 24q-9 20 -19 24t-27 4h-29v-221l1 -16q0 -16 5 -21.5t21 -7.5l19 -2v-31h-12h-12h-36t-35 1h-9l-50 -1v31l17 1l18 5q7 4 8.5 12.5t1.5 28.5v221h-29q-17 0 -26 -4t-14 -15t-14 -34l-30 1l5 85l103 -1h21h21h18h15h12h12h34
t35 1h9l4 -86z" />
    <glyph glyph-name="partialdiff" unicode="&#x2202;" horiz-adv-x="417" 
d="M474 696l-210 -696h-92l182 607l-96 -33l-86 -24v41l51 16q11 3 36 12t33 12l72 29l70 36h40z" />
    <glyph glyph-name="Delta" unicode="&#x2206;" horiz-adv-x="612" 
d="M92 45h373l-186 459zM595 0h-574l276 672h22z" />
    <glyph glyph-name="product" unicode="&#x220f;" horiz-adv-x="823" 
d="M118 -176v880h-88v40h767v-40h-88v-880h88v-40h-264v40h84v880h-407v-880h84v-40h-264v40h88z" />
    <glyph glyph-name="fraction" unicode="&#x2215;" horiz-adv-x="125" 
d="M369 706l-357 -706h-43l357 706h43z" />
    <glyph glyph-name="periodcentered" unicode="&#x2219;" horiz-adv-x="187" 
d="M116 235q-15 7 -25 22.5t-10 32.5q0 25 18 42t42 17q13 0 26 -5.5t23 -20.5t10 -34q0 -25 -18 -42t-43 -17q-15 0 -23 5z" />
    <glyph glyph-name="radical" unicode="&#x221a;" horiz-adv-x="549" 
d="M594 764h-57l-290 -784h-32l-156 431l-61 -22l-12 39l138 48l125 -346l252 681h93v-47z" />
    <glyph glyph-name="infinity" unicode="&#x221e;" 
d="M184 761q-3 -2 -7 -4t-10 -2q-8 0 -8 7q0 6 11 14l145 113q4 2 6.5 3t5.5 2q6 0 10 -4t7 -11l47 -103q2 -3 3 -6t1 -7q-2 -7 -6 -7l-8 3q-6 4 -20.5 17.5t-30.5 30.5t-22 17q-7 0 -20 -7z" />
    <glyph glyph-name="integral" unicode="&#x222b;" horiz-adv-x="274" 
d="M283 757q36 0 58.5 -18.5t22.5 -48.5q0 -20 -13 -34t-36 -14q-29 0 -44 32t-29 32q-57 0 -57 -310l-3 -98q0 -63 -4.5 -120t-14 -128t-31 -120t-60 -80t-81.5 -31q-35 0 -58 18.5t-23 48.5q0 22 12.5 34.5t36.5 12.5q29 0 44 -31t30 -32q57 0 57 324l2 84q0 60 4 116
t13.5 127.5t31.5 122.5t59.5 82t82.5 31z" />
    <glyph glyph-name="approxequal" unicode="&#x2248;" horiz-adv-x="549" 
d="M15 100v77q49 31 87 44.5t74 13.5q44 0 115 -24t99 -24t61.5 15t82.5 52v-78q-42 -28 -76.5 -41.5t-72.5 -13.5q-32 0 -104 23.5t-116 23.5q-28 0 -53.5 -11t-48 -24.5t-48.5 -32.5zM15 219v77q23 14 43.5 25t50.5 21.5t66 10.5q42 0 114.5 -23.5t100.5 -23.5
q27 0 60 14.5t84 51.5v-77q-18 -12 -41 -24t-49 -21.5t-59 -9.5t-104.5 23.5t-110.5 23.5q-35 0 -66 -13.5t-89 -54.5z" />
    <glyph glyph-name="notequal" unicode="&#x2260;" 
d="M268 763q-11 -6 -17 -6q-4 1 -8.5 2.5t-4.5 6.5q1 6 19 24l101 92q14 11 18.5 13t19.5 2h33q6 0 12.5 -1.5t6.5 -10.5q0 -7 -10 -15z" />
    <glyph glyph-name="lessequal" unicode="&#x2264;" 
d="M321 838q21 -8 27.5 -10t18.5 -2q10 0 20.5 3t20.5 14.5t13 11.5q4 -1 8 -3t4 -7q0 -4 -2 -9.5t-15.5 -21t-29.5 -26t-43 -10.5q-16 0 -45 8.5t-53 16.5t-34 8q-9 0 -18.5 -5.5t-16.5 -13.5q-2 -4 -5 -7.5t-7 -3.5q-4 1 -8 3t-4 8q0 4 2.5 9t11.5 18.5t27 26.5t42 13
q17 0 34 -4t52 -17z" />
    <glyph glyph-name="greaterequal" unicode="&#x2265;" 
d="M342 808q0 20 14.5 34.5t35.5 14.5q20 0 35 -15t15 -35q0 -21 -15 -35t-35 -14q-13 0 -20 3.5t-16 10.5q-14 16 -14 36zM137 808q0 20 14.5 34.5t35.5 14.5q20 0 35 -15t15 -35q0 -21 -15 -35t-35 -14q-13 0 -20 3.5t-16 10.5q-14 16 -14 36z" />
    <glyph glyph-name="lozenge" unicode="&#x25ca;" horiz-adv-x="494" 
d="M247 688l-188 -399l188 -403l188 403zM247 807l244 -518l-244 -522l-244 522z" />
    <glyph glyph-name="apple" unicode="&#xf000;" horiz-adv-x="790" 
d="M408 594l-1 7v11q0 61 46 112t116 64v-12l1 -18q0 -64 -50.5 -114.5t-99.5 -50.5h-4zM735 197q-56 -121 -101 -167.5t-99 -46.5q-25 0 -64 16t-60 16q-23 0 -64 -16t-62 -16q-30 0 -63 21q-13 10 -30.5 27.5t-48.5 60t-59.5 120.5t-28.5 148q0 107 61.5 174.5t157.5 67.5
q16 0 35.5 -4t51.5 -17t49 -13q18 0 61 17t73 17q55 0 97.5 -19.5t77.5 -60.5q-49 -31 -73.5 -70.5t-24.5 -89.5q0 -54 30 -98t84 -67z" />
    <glyph glyph-name="fi" unicode="&#xf001;" horiz-adv-x="563" 
d="M407 446l-10 -36h-101l-112 -411q-22 -71 -35.5 -111t-38.5 -86.5t-62.5 -69.5t-74.5 -23q-42 0 -62 24.5t-20 48.5q0 22 13 37t35 15q16 0 26.5 -9.5t10.5 -23.5q0 -10 -6.5 -23t-6.5 -18q0 -15 15 -15q35 0 56.5 49t38.5 113l136 503h-110l12 35l108 1q22 75 37.5 118
t47 91t78 71.5t85.5 23.5q22 0 38.5 -5t30 -13t23 -21.5t9.5 -30.5t-11.5 -29.5t-29.5 -12.5q-11 0 -22 7t-15.5 15t-9.5 23l-5 14q-2 6 -6.5 9.5t-18.5 3.5q-16 0 -26.5 -5t-25 -16.5t-26.5 -33.5t-31 -85l-35 -124h101zM539 619q0 22 15 37t37 15t37 -15t15 -38
q0 -22 -15.5 -36.5t-36.5 -14.5q-22 0 -37 15t-15 37zM598 117q-8 -15 -20 -35t-29 -41q-10 -10 -25.5 -24t-29 -18.5t-20.5 -6t-17 -1.5q-36 0 -47.5 13.5t-16 21t-4.5 19.5q0 13 4 27.5t13 41.5l79 237q6 19 8.5 28t2.5 17q0 15 -13 15q-8 -2 -15.5 -7.5t-18.5 -23.5
t-32 -58l-34 10l17 34q27 52 57.5 75t61.5 23q14 0 26.5 -4.5t20.5 -15.5t10 -19.5t2 -17.5q0 -8 -1 -16.5t-5 -23.5l-83 -260q-6 -16 -9 -26t-3 -18q0 -19 15 -19q10 0 25 16.5t24 29t25 43.5z" />
    <glyph glyph-name="fl" unicode="&#xf002;" horiz-adv-x="542" 
d="M407 446l-10 -36h-101l-112 -411q-22 -71 -35.5 -111t-38.5 -86.5t-62.5 -69.5t-74.5 -23q-42 0 -62 24.5t-20 48.5q0 22 13 37t35 15q16 0 26.5 -9.5t10.5 -23.5q0 -10 -6.5 -23t-6.5 -18q0 -15 15 -15q35 0 56.5 49t38.5 113l136 503h-110l12 35l108 1q22 75 37.5 118
t47 91t78 71.5t85.5 23.5q22 0 38.5 -5t30 -13t23 -21.5t9.5 -30.5t-11.5 -29.5t-29.5 -12.5q-11 0 -22 7t-15.5 15t-9.5 23l-5 14q-2 6 -6.5 9.5t-18.5 3.5q-16 0 -26.5 -5t-25 -16.5t-26.5 -33.5t-31 -85l-35 -124h101zM660 738l-203 -643l-4 -25q0 -22 22 -22
q8 0 16.5 3.5t21.5 14.5t28.5 34.5t27.5 51.5l33 -15q-16 -31 -23 -43t-24.5 -37.5t-47.5 -45t-63 -19.5q-34 0 -53 21t-19 56q0 12 2 23.5t9 35.5l167 533l3 18q0 12 -18 14l-58 2l12 33h37h13q24 0 46.5 3.5t62.5 14.5z" />
    <glyph glyph-name="brokenbar" horiz-adv-x="229" 
d="M191 190v-381h-59v381h59zM132 689h59v-381h-59v381z" />
    <glyph glyph-name="minus" horiz-adv-x="667" 
d="M47 262v59h667v-59h-667z" />
    <glyph glyph-name="multiply" horiz-adv-x="667" 
d="M380 249l-207 -207l-42 41l207 208l-207 206l42 42l207 -207l208 207l42 -42l-208 -206l208 -208l-42 -41z" />
  </font>
</defs>
</svg>
