<?xml version="1.0" encoding="utf-8"?>
<!-- Generator: Adobe Illustrator 25.3.1, SVG Export Plug-In . SVG Version: 6.00 Build 0)  -->
<svg version="1.1" id="Layer_1" xmlns="http://www.w3.org/2000/svg" xmlns:xlink="http://www.w3.org/1999/xlink" x="0px" y="0px"
	 viewBox="0 0 1920 1080" style="enable-background:new 0 0 1920 1080;" xml:space="preserve">
<style type="text/css">
	.st0{enable-background:new    ;}
	.st1{fill:#ECE7E4;}
	.st2{fill:none;}
	.st3{fill:#242122;}
</style>
<g id="MAP">
</g>
<g id="PONTS">
	<g id="Layer_2_1_">
	</g>
	<g id="Layer_3">
	</g>
	<g id="Layer_4">
	</g>
	<g id="Layer_5">
	</g>
	<g id="Layer_6">
	</g>
	<g id="Layer_7">
	</g>
	<g id="Layer_8">
	</g>
	<g id="Layer_9">
	</g>
	<g id="Layer_10">
	</g>
	<g id="Layer_11">
	</g>
	<g id="Layer_12">
	</g>
	<g id="Layer_13">
	</g>
	<g id="Layer_14">
	</g>
	<g id="Layer_15">
	</g>
	<g id="Layer_16">
	</g>
	<g id="Layer_17">
	</g>
	<g id="Layer_18">
	</g>
	<g id="Layer_19">
	</g>
	<g id="Layer_20">
	</g>
</g>
<g class="st0">
	<path class="st1" d="M556.7,188.7h-56.4v215.4h-52V188.7h-56.4V146h164.8V188.7z"/>
	<path class="st1" d="M631.1,146v98.7h60.7V146h52v258h-52V289.5h-60.7v114.6h-52V146H631.1z"/>
	<path class="st1" d="M782.6,146h52v258h-52V146z"/>
	<path class="st1" d="M969.4,146c21.7,0,38.5,5.5,50.6,16.4c12,11,18.1,27.6,18.1,50.1c0,17.3-3.5,31.5-10.5,42.5
		c-7,11-17.8,18-32.5,21.1v0.7c13,1.9,22.5,6.1,28.5,12.6c6,6.5,9.8,17,11.2,31.4c0.5,4.8,0.8,10.1,1.1,15.7c0.2,5.7,0.5,12,0.7,19
		c0.5,13.7,1.2,24.2,2.2,31.4c1.4,7.2,4.6,12.2,9.4,14.8v2.2h-56.4c-2.7-3.6-4.3-7.8-5.1-12.5s-1.2-9.6-1.4-14.6l-1.4-49.5
		c-0.5-10.1-3-18.1-7.6-23.9c-4.6-5.8-12.3-8.7-23.1-8.7h-27.8v109.1h-52V146H969.4z M947,258.8c12.5,0,22.2-2.9,28.9-8.9
		c6.7-5.9,10.1-15.8,10.1-29.8c0-23.9-12.1-35.8-36.1-35.8h-24.6v74.4H947z"/>
	<path class="st1" d="M1116.1,331.1c0,6,0.5,11.5,1.4,16.4c1,4.9,2.8,9.1,5.4,12.5c2.6,3.4,6.2,6,10.7,8c4.5,1.9,10.1,2.9,16.8,2.9
		c7.9,0,15.1-2.6,21.5-7.8c6.4-5.2,9.6-13.2,9.6-24c0-5.8-0.8-10.8-2.3-15c-1.6-4.2-4.2-8-7.8-11.4c-3.6-3.4-8.4-6.4-14.3-9.2
		c-5.9-2.8-13.2-5.6-21.9-8.5c-11.6-3.9-21.6-8.1-30-12.6c-8.4-4.6-15.5-9.9-21.1-16.1c-5.7-6.1-9.8-13.2-12.5-21.3
		c-2.7-8.1-4-17.4-4-28c0-25.5,7.1-44.6,21.3-57.1c14.2-12.5,33.7-18.8,58.5-18.8c11.6,0,22.2,1.3,32,3.8
		c9.8,2.5,18.2,6.6,25.3,12.3c7.1,5.7,12.6,12.9,16.6,21.7c4,8.8,6,19.3,6,31.6v7.2h-49.9c0-12.3-2.2-21.7-6.5-28.4
		c-4.3-6.6-11.6-9.9-21.7-9.9c-5.8,0-10.6,0.8-14.5,2.5c-3.9,1.7-6.9,3.9-9.2,6.7c-2.3,2.8-3.9,6-4.7,9.6c-0.8,3.6-1.3,7.4-1.3,11.2
		c0,8,1.7,14.6,5.1,20.1c3.4,5.4,10.6,10.4,21.7,15l40.1,17.3c9.9,4.3,17.9,8.9,24.2,13.6c6.3,4.7,11.3,9.8,15,15.2
		c3.7,5.4,6.3,11.4,7.8,17.9s2.2,13.7,2.2,21.7c0,27.2-7.9,47-23.7,59.4c-15.8,12.4-37.8,18.6-66,18.6c-29.4,0-50.4-6.4-63.1-19.2
		c-12.6-12.8-19-31.1-19-54.9v-10.5h52V331.1z"/>
	<path class="st1" d="M1412.8,188.7h-56.4v215.4h-52V188.7H1248V146h164.8V188.7z"/>
	<path class="st1" d="M1510.7,245.8h0.7l36.1-99.7h56.4l-66.9,156.5v101.5h-52V302.5L1418.2,146h58.5L1510.7,245.8z"/>
</g>
<g>
	<g class="st0">
		<path class="st1" d="M431.5,698.6v40.1h-86.7v57.1h81.6V836h-81.6v105.4h-49V698.6H431.5z"/>
		<path class="st1" d="M453.3,698.6h49v202.7H589v40.1H453.3V698.6z"/>
		<path class="st1" d="M656.7,868c0,6.1,0.4,11.7,1.2,16.8c0.8,5.1,2.3,9.5,4.4,13.3c2.2,3.7,5.1,6.7,8.8,8.8
			c3.7,2.2,8.4,3.2,14.1,3.2c5.9,0,10.7-1.1,14.3-3.2c3.6-2.2,6.5-5.1,8.7-8.8c2.2-3.7,3.6-8.2,4.4-13.3c0.8-5.1,1.2-10.7,1.2-16.8
			V698.6h49V868c0,15.4-2.2,28.2-6.5,38.3c-4.3,10.1-10.1,18.1-17.3,24c-7.3,5.9-15.5,9.9-24.8,11.9c-9.3,2-18.9,3.1-28.9,3.1
			c-10,0-19.6-0.9-28.9-2.7c-9.3-1.8-17.6-5.5-24.8-11.1c-7.3-5.6-13-13.4-17.3-23.6c-4.3-10.2-6.5-23.5-6.5-39.8V698.6h49V868z"/>
		<path class="st1" d="M796.1,698.6h49v242.8h-49V698.6z"/>
		<path class="st1" d="M964.1,698.6c17,0,30.7,2.8,41.2,8.3c10.4,5.6,18.5,13.5,24.3,23.8c5.8,10.3,9.7,22.7,11.7,37.2
			c2,14.5,3.1,30.7,3.1,48.6c0,21.3-1.3,39.9-3.9,55.6c-2.6,15.8-7.1,28.7-13.4,38.9c-6.4,10.2-14.9,17.8-25.5,22.8
			c-10.7,5-24.1,7.5-40.5,7.5h-77.2V698.6H964.1z M954.6,905.4c8.6,0,15.5-1.5,20.7-4.4c5.2-2.9,9.4-7.8,12.4-14.6
			c3.1-6.8,5.1-15.8,6.1-26.9c1-11.1,1.5-24.9,1.5-41.5c0-13.8-0.5-26-1.4-36.4c-0.9-10.4-2.8-19.1-5.6-26
			c-2.8-6.9-7-12.1-12.6-15.6c-5.6-3.5-13-5.3-22.3-5.3h-20.7v170.7H954.6z"/>
	</g>
</g>
<g>
	<g>
		<g class="st0">
			<path class="st1" d="M985.6,590c0,3.5,0.3,6.6,0.8,9.5c0.6,2.9,1.6,5.3,3.1,7.2c1.5,1.9,3.6,3.5,6.2,4.6c2.6,1.1,5.8,1.7,9.7,1.7
				c4.6,0,8.7-1.5,12.4-4.5c3.7-3,5.5-7.6,5.5-13.9c0-3.3-0.5-6.2-1.4-8.7c-0.9-2.4-2.4-4.6-4.5-6.6c-2.1-1.9-4.8-3.7-8.2-5.3
				c-3.4-1.6-7.6-3.2-12.6-4.9c-6.7-2.2-12.4-4.7-17.3-7.3c-4.9-2.6-8.9-5.7-12.2-9.3c-3.3-3.5-5.7-7.6-7.2-12.3
				c-1.5-4.7-2.3-10-2.3-16.2c0-14.7,4.1-25.7,12.3-33c8.2-7.2,19.5-10.8,33.8-10.8c6.7,0,12.8,0.7,18.5,2.2
				c5.6,1.5,10.5,3.8,14.6,7.1c4.1,3.3,7.3,7.4,9.6,12.5c2.3,5.1,3.4,11.2,3.4,18.2v4.2H1021c0-7.1-1.3-12.5-3.8-16.4
				c-2.5-3.8-6.7-5.7-12.5-5.7c-3.3,0-6.1,0.5-8.3,1.5c-2.2,1-4,2.3-5.3,3.9c-1.3,1.6-2.2,3.4-2.7,5.5c-0.5,2.1-0.7,4.2-0.7,6.5
				c0,4.6,1,8.4,2.9,11.6c1.9,3.1,6.1,6,12.5,8.7l23.2,10c5.7,2.5,10.4,5.1,14,7.8c3.6,2.7,6.5,5.6,8.7,8.8
				c2.2,3.1,3.7,6.6,4.5,10.3c0.8,3.8,1.3,7.9,1.3,12.5c0,15.7-4.6,27.2-13.7,34.3c-9.1,7.2-21.8,10.7-38.1,10.7
				c-17,0-29.1-3.7-36.4-11.1c-7.3-7.4-10.9-17.9-10.9-31.7v-6h30V590z"/>
			<path class="st1" d="M1068.1,526.5c1-9.5,3.3-17.7,6.9-24.5c3.5-6.8,8.7-12.1,15.3-16c6.7-3.8,15.6-5.7,26.9-5.7
				c11.3,0,20.2,1.9,26.9,5.7c6.7,3.8,11.8,9.1,15.3,16c3.5,6.8,5.8,15,6.9,24.5c1,9.5,1.6,19.9,1.6,31.2c0,11.4-0.5,21.8-1.6,31.3
				c-1,9.5-3.3,17.6-6.9,24.4c-3.5,6.8-8.7,12-15.3,15.6c-6.7,3.6-15.6,5.4-26.9,5.4c-11.3,0-20.2-1.8-26.9-5.4
				c-6.7-3.6-11.8-8.8-15.3-15.6c-3.5-6.8-5.8-14.9-6.9-24.4c-1-9.5-1.6-19.9-1.6-31.3C1066.5,546.4,1067,536,1068.1,526.5z
				 M1097.3,583.2c0.5,7,1.5,12.7,2.9,17.1s3.5,7.6,6.3,9.6c2.7,2,6.3,3,10.7,3c4.4,0,8-1,10.7-3c2.7-2,4.8-5.2,6.3-9.6
				c1.5-4.4,2.4-10.1,2.9-17.1c0.5-7,0.7-15.5,0.7-25.6s-0.2-18.5-0.7-25.4c-0.5-7-1.5-12.7-2.9-17.1c-1.5-4.4-3.5-7.7-6.3-9.7
				c-2.7-2-6.3-3-10.7-3c-4.5,0-8,1-10.7,3c-2.7,2-4.8,5.2-6.3,9.7c-1.5,4.5-2.4,10.2-2.9,17.1c-0.5,7-0.7,15.4-0.7,25.4
				S1096.8,576.2,1097.3,583.2z"/>
			<path class="st1" d="M1245.3,509.8c-2.6-4.9-7.3-7.4-14.1-7.4c-3.8,0-6.9,1-9.3,3c-2.4,2-4.3,5.3-5.7,9.8
				c-1.4,4.5-2.4,10.4-2.9,17.7c-0.6,7.3-0.8,16.2-0.8,26.8c0,11.3,0.4,20.4,1.1,27.3c0.8,7,1.9,12.3,3.5,16.2
				c1.6,3.8,3.6,6.4,6,7.7c2.4,1.3,5.2,2,8.4,2c2.6,0,5.1-0.4,7.4-1.4c2.3-0.9,4.3-2.7,5.9-5.4c1.7-2.7,3-6.5,4-11.5
				c1-4.9,1.5-11.4,1.5-19.5h30c0,8.1-0.6,15.7-1.9,22.9c-1.3,7.2-3.6,13.6-7,19c-3.4,5.4-8.2,9.7-14.4,12.7
				c-6.2,3.1-14.2,4.6-24.1,4.6c-11.3,0-20.2-1.8-26.9-5.4s-11.8-8.8-15.3-15.6c-3.5-6.8-5.8-14.9-6.9-24.4
				c-1-9.5-1.6-19.9-1.6-31.3c0-11.3,0.5-21.7,1.6-31.2c1-9.5,3.3-17.7,6.9-24.5c3.5-6.8,8.7-12.1,15.3-16
				c6.7-3.8,15.6-5.7,26.9-5.7c10.7,0,19.2,1.7,25.3,5.2c6.2,3.5,10.8,7.9,13.9,13.2c3.1,5.4,5,11.1,5.7,17.3
				c0.8,6.2,1.1,12,1.1,17.4h-30C1249.2,522.6,1247.9,514.7,1245.3,509.8z"/>
			<path class="st1" d="M1299.1,483.2h30v148.9h-30V483.2z"/>
			<path class="st1" d="M1417.5,483.2l39.4,148.9h-31.3l-6.9-31.5h-39.6l-6.9,31.5H1341l39.4-148.9H1417.5z M1413.6,576l-14.4-67
				h-0.4l-14.4,67H1413.6z"/>
			<path class="st1" d="M1517.6,483.2c6.1,0,11.8,0.6,17,1.9c5.2,1.3,9.7,3.3,13.5,6.3c3.8,2.9,6.7,6.8,8.8,11.7
				c2.1,4.9,3.1,10.8,3.1,17.9c0,8.1-1.9,15-5.6,20.8c-3.8,5.8-9.4,9.7-16.9,11.8v0.4c8.3,1.1,14.9,4.7,19.8,10.6
				c4.9,6,7.3,14,7.3,24c0,5.8-0.8,11.4-2.3,16.7c-1.5,5.3-4.1,9.9-7.8,13.9c-3.7,4-8.5,7.1-14.4,9.5c-5.9,2.4-13.2,3.5-22,3.5
				h-50.7V483.2H1517.6z M1506,544.3c8.3,0,14.4-1.5,18.2-4.5c3.8-3,5.7-8,5.7-15.1s-1.7-12.1-5.2-15c-3.5-2.9-9-4.4-16.5-4.4h-10.8
				v39H1506z M1509.1,610c7.2,0,13.1-1.6,17.5-4.8c4.4-3.2,6.7-9.1,6.7-17.7c0-4.3-0.6-7.9-1.8-10.7c-1.2-2.8-2.8-5.1-4.8-6.9
				c-2-1.7-4.4-3-7.2-3.7c-2.8-0.7-5.8-1-9.2-1h-12.9V610H1509.1z"/>
			<path class="st1" d="M1583.3,483.2h30v124.3h53.2v24.6h-83.2V483.2z"/>
			<path class="st1" d="M1763.1,507.8h-53.2v35h50.1v24.6h-50.1v40h55.3v24.6h-85.3V483.2h83.2V507.8z"/>
		</g>
	</g>
	<g>
		<g class="st0">
			<path class="st1" d="M291.2,480.8c10.4,0,18.8,1.7,25.2,5.1c6.4,3.4,11.4,8.3,14.9,14.6c3.5,6.3,5.9,13.9,7.2,22.8
				c1.3,8.9,1.9,18.8,1.9,29.8c0,13.1-0.8,24.4-2.4,34.1c-1.6,9.7-4.3,17.6-8.2,23.9c-3.9,6.3-9.1,10.9-15.6,14
				c-6.5,3.1-14.8,4.6-24.8,4.6H242V480.8H291.2z M285.4,607.6c5.3,0,9.5-0.9,12.7-2.7c3.2-1.8,5.7-4.8,7.6-9
				c1.9-4.2,3.1-9.7,3.8-16.5c0.6-6.8,0.9-15.3,0.9-25.4c0-8.5-0.3-15.9-0.8-22.3c-0.6-6.4-1.7-11.7-3.4-16
				c-1.7-4.2-4.3-7.4-7.7-9.6c-3.4-2.2-8-3.2-13.7-3.2H272v104.7H285.4z"/>
			<path class="st1" d="M426.4,480.8l39.4,148.9h-31.3l-6.9-31.5H388l-6.9,31.5h-31.3l39.4-148.9H426.4z M422.4,573.6l-14.4-67h-0.4
				l-14.4,67H422.4z"/>
			<path class="st1" d="M531.7,480.8c12.5,0,22.2,3.2,29.2,9.5c7,6.3,10.4,16,10.4,28.9c0,10-2,18.2-6,24.5
				c-4,6.3-10.3,10.4-18.8,12.2v0.4c7.5,1.1,13,3.5,16.5,7.3c3.5,3.8,5.6,9.8,6.5,18.1c0.3,2.8,0.5,5.8,0.6,9.1
				c0.1,3.3,0.3,6.9,0.4,11c0.3,7.9,0.7,14,1.3,18.1c0.8,4.2,2.6,7,5.4,8.6v1.3h-32.5c-1.5-2.1-2.5-4.5-2.9-7.2
				c-0.4-2.7-0.7-5.5-0.8-8.4l-0.8-28.6c-0.3-5.8-1.7-10.4-4.4-13.8c-2.6-3.3-7.1-5-13.3-5h-16.1v63h-30V480.8H531.7z M518.8,545.8
				c7.2,0,12.8-1.7,16.7-5.1c3.9-3.4,5.8-9.1,5.8-17.2c0-13.8-7-20.6-20.9-20.6h-14.2v43H518.8z"/>
			<path class="st1" d="M593.7,480.8h30v148.9h-30V480.8z"/>
			<path class="st1" d="M716.9,582.8h0.4v-102h27.5v148.9h-34.2L674,525.4h-0.4v104.3H646V480.8h34.6L716.9,582.8z"/>
			<path class="st1" d="M830.9,516.4c-0.6-2.9-1.6-5.6-3-8c-1.4-2.4-3.2-4.4-5.3-6c-2.2-1.6-4.8-2.4-7.8-2.4
				c-7.2,0-12.4,4-15.6,12.1c-3.2,8.1-4.8,21.4-4.8,40c0,8.9,0.3,17,0.8,24.2c0.6,7.2,1.6,13.4,3,18.5c1.5,5.1,3.5,9,6.3,11.7
				c2.7,2.7,6.2,4.1,10.5,4.1c1.8,0,3.8-0.5,5.9-1.5c2.2-1,4.2-2.4,6-4.4c1.9-1.9,3.4-4.4,4.7-7.4c1.3-3,1.9-6.5,1.9-10.5v-15.2
				h-19.8v-22.1h48.6v80.3h-22.1v-13.8h-0.4c-3.6,5.8-8,10-13,12.4c-5.1,2.4-11.2,3.6-18.3,3.6c-9.2,0-16.7-1.6-22.4-4.8
				c-5.8-3.2-10.3-8.1-13.6-14.8c-3.3-6.7-5.5-14.9-6.6-24.7c-1.1-9.8-1.7-21.2-1.7-34.1c0-12.5,0.8-23.5,2.4-33
				c1.6-9.5,4.3-17.3,8.2-23.7c3.9-6.3,9-11.1,15.4-14.3c6.4-3.2,14.4-4.8,24-4.8c16.4,0,28.2,4.1,35.5,12.2
				c7.2,8.1,10.8,19.8,10.8,34.9h-28.8C831.8,522.2,831.5,519.3,830.9,516.4z"/>
		</g>
	</g>
</g>
<g>
	<g class="st0">
		<path class="st1" d="M1172.5,769.2c1.7-15.5,5.4-28.9,11.2-40c5.8-11.1,14.1-19.8,25-26c10.9-6.2,25.5-9.4,43.9-9.4
			s33,3.1,43.9,9.4c10.9,6.2,19.2,14.9,25,26c5.8,11.1,9.5,24.4,11.2,40c1.7,15.5,2.6,32.5,2.6,50.8c0,18.6-0.9,35.6-2.6,51
			c-1.7,15.4-5.4,28.7-11.2,39.8c-5.8,11.1-14.1,19.6-25,25.5s-25.5,8.8-43.9,8.8s-33-2.9-43.9-8.8s-19.2-14.4-25-25.5
			c-5.8-11.1-9.5-24.4-11.2-39.8c-1.7-15.4-2.6-32.4-2.6-51C1170,801.7,1170.8,784.7,1172.5,769.2z M1220.1,861.7
			c0.8,11.5,2.4,20.7,4.8,27.9c2.4,7.1,5.8,12.4,10.2,15.6c4.4,3.3,10.3,4.9,17.5,4.9c7.3,0,13.1-1.6,17.5-4.9
			c4.4-3.3,7.8-8.5,10.2-15.6c2.4-7.1,4-16.4,4.8-27.9c0.8-11.4,1.2-25.3,1.2-41.7c0-16.3-0.4-30.2-1.2-41.5
			c-0.8-11.3-2.4-20.6-4.8-27.9c-2.4-7.3-5.8-12.5-10.2-15.8c-4.4-3.3-10.3-4.9-17.5-4.9c-7.3,0-13.1,1.6-17.5,4.9
			c-4.4,3.3-7.8,8.6-10.2,15.8c-2.4,7.3-4,16.6-4.8,27.9c-0.8,11.3-1.2,25.2-1.2,41.5C1218.9,836.4,1219.3,850.3,1220.1,861.7z"/>
		<path class="st1" d="M1479.8,865h0.7V698.6h44.9v242.8h-55.8l-59.9-170.1h-0.7v170.1h-44.9V698.6h56.5L1479.8,865z"/>
		<path class="st1" d="M1695.1,738.8h-86.7v57.1h81.6V836h-81.6v65.3h90.1v40.1h-139.1V698.6h135.7V738.8z"/>
	</g>
</g>
<polygon class="st2" points="599.5,394 601.2,394 601.2,394 "/>
<g>
	<g class="st0">
		<path class="st3" d="M163.1,190h-4.7l2.1-83.2L105.2,190h-4.5l4.4-87l0.3-5c0-3-0.8-5-2.4-6.2c-1.6-1.1-4.5-1.7-8.7-1.8l1-3.4h36
			l-1,3.4c-5.5,0.1-8.8,1-10.1,2.5s-2,5.3-2.3,11.3l-3.3,66.5l55.5-83.8h3.3l-2.1,83.8l39-60.8c3.7-5.7,5.5-9.6,5.5-11.7
			c0-4.5-3.6-7.1-10.7-7.9l1-3.4h30.4l-1,3.4c-4,0.2-7.4,1.7-10.3,4.4c-2.8,2.7-6.9,8.2-12.1,16.8L163.1,190z"/>
		<path class="st3" d="M240.4,168.6h3.6c-6.3,14-14.4,21.1-24.3,21.1c-4.1,0-7.4-1.4-9.9-4.3c-2.6-2.9-3.8-6.7-3.8-11.6
			c0-6.2,1.6-13.1,4.9-20.8c3.3-7.7,8-14.4,14.1-20c6.1-5.6,11.4-8.4,15.9-8.4c2.8,0,4.9,0.9,6.3,2.6c1.4,1.8,2.2,4,2.2,6.6
			c0,5.4-2.7,10.5-8,15.4c-5.4,4.9-13.4,9.7-24.1,14.3c-1.4,4.3-2.1,8.4-2.1,12.3c0,3.2,0.6,5.6,1.9,7.1c1.2,1.6,3.1,2.4,5.5,2.4
			C229.2,185.3,235.2,179.7,240.4,168.6z M218.3,159.7c6.4-2.9,12.2-6.8,17.3-11.9c5.1-5.1,7.7-9.6,7.7-13.8c0-1.9-0.4-3.3-1.2-4.2
			c-0.8-0.9-1.9-1.4-3.5-1.4c-3,0-6.5,2.9-10.5,8.7C224,142.9,220.7,150.4,218.3,159.7z"/>
		<path class="st3" d="M338.8,125.7h8.9l-13.2,43.6c-1.9,6.3-2.9,10.1-2.9,11.5c0,1,0.2,1.7,0.7,2.3c0.4,0.5,1.1,0.8,2,0.8
			c3.4,0,7.4-3.9,11.8-11.8h3.1c-1.9,4.5-4.7,8.5-8.3,12.2c-3.6,3.6-6.9,5.5-9.9,5.5c-2.3,0-4.1-0.9-5.4-2.6
			c-1.2-1.7-1.9-3.9-1.9-6.4c0-2,0.5-4.7,1.5-8c-2.2,3.8-5.5,7.6-9.7,11.3c-4.2,3.7-8.2,5.6-11.9,5.6c-3.5,0-6.5-1.5-9-4.4
			c-2.5-3-3.8-6.9-3.8-11.9c0-6.7,1.9-14,5.8-21.7c3.9-7.7,8.9-14.2,15.1-19.3c6.2-5.2,11.5-7.7,16-7.7c2.6,0,4.6,0.6,6.1,1.9
			c1.5,1.2,2.5,3.1,3,5.6L338.8,125.7z M299.8,175.5c0,3.3,0.5,5.7,1.5,7.4c1,1.7,2.5,2.5,4.5,2.5c3.3,0,7.2-2.4,11.8-7.2
			c4.6-4.8,8.6-12.2,11.9-22.1c3.4-9.9,5.1-16.7,5.1-20.2c0-2.1-0.5-3.9-1.6-5.3c-1.1-1.5-2.6-2.2-4.6-2.2c-6.1,0-12.3,6-18.8,17.9
			C303.1,158.2,299.8,168,299.8,175.5z"/>
		<path class="st3" d="M357.1,144.6h-3.3c2.1-5.6,4.7-10.3,7.9-14.2c3.1-3.9,6.3-5.9,9.3-5.9c2.1,0,3.7,0.9,4.8,2.6
			c1,1.7,1.6,4.3,1.6,7.8c0,4.3-1.1,10.5-3.3,18.5c0.3-0.5,1.1-2.3,2.5-5.4c3.7-8.3,6.9-14.3,9.7-17.9c2.8-3.7,5.6-5.5,8.3-5.5
			c1.7,0,3.1,0.5,4.2,1.6c1,1.1,1.6,2.4,1.6,3.9c0,1.5-0.4,2.7-1.3,3.6c-0.9,0.9-1.9,1.4-3.1,1.4c-1.3,0-2.7-0.8-4.1-2.5
			c-0.5-0.6-1.1-1-1.6-1c-2.5,0-6.3,6-11.5,17.9c-5.2,11.9-9.3,23.2-12.5,33.7l-1.6,5.4h-8.9l11.8-39.4c2.2-7.5,3.3-12.7,3.3-15.3
			c0-1.4-0.2-2.5-0.6-3.2c-0.4-0.7-0.9-1-1.7-1c-1.6,0-3.7,1.8-6.1,5.3C359.9,138.5,358.2,141.7,357.1,144.6z"/>
		<path class="st3" d="M431,168.6h3.6c-6.3,14-14.4,21.1-24.3,21.1c-4.1,0-7.4-1.4-9.9-4.3c-2.6-2.9-3.8-6.7-3.8-11.6
			c0-6.2,1.6-13.1,4.9-20.8c3.3-7.7,8-14.4,14.1-20s11.4-8.4,15.9-8.4c2.8,0,4.9,0.9,6.3,2.6c1.4,1.8,2.2,4,2.2,6.6
			c0,5.4-2.7,10.5-8,15.4c-5.4,4.9-13.4,9.7-24.1,14.3c-1.4,4.3-2.1,8.4-2.1,12.3c0,3.2,0.6,5.6,1.9,7.1c1.2,1.6,3.1,2.4,5.5,2.4
			C419.8,185.3,425.8,179.7,431,168.6z M408.9,159.7c6.4-2.9,12.2-6.8,17.3-11.9c5.1-5.1,7.7-9.6,7.7-13.8c0-1.9-0.4-3.3-1.2-4.2
			c-0.8-0.9-1.9-1.4-3.5-1.4c-3,0-6.5,2.9-10.5,8.7C414.6,142.9,411.3,150.4,408.9,159.7z"/>
	</g>
</g>
<g>
	<g class="st0">
		<path class="st3" d="M540.8,424.2l-0.4,1.5h-5.8l-5.1,19.4c-2.3,8.8-4.9,14.7-7.7,17.7c-2.8,3-5.9,4.5-9.2,4.5
			c-1.9,0-3.5-0.4-5-1.3s-2.2-1.9-2.2-3.2c0-0.7,0.2-1.3,0.7-1.8s1-0.7,1.6-0.7c0.7,0,1.3,0.3,1.8,0.8c0.4,0.5,0.7,1.1,0.7,1.7
			c0,0.2,0,0.4-0.1,0.8l-0.1,0.6c0,0.4,0.3,0.8,0.8,1.2c0.5,0.4,1.2,0.5,1.9,0.5c2.7,0,4.9-1.4,6.7-4.2c1.8-2.8,3.9-8.5,6.2-17
			l5.1-18.9h-6.5l0.4-1.5h6.6c0.1-0.3,0.2-0.9,0.5-1.9c3-11,7.8-16.5,14.5-16.5c1.9,0,3.4,0.4,4.4,1.3c1,0.8,1.5,1.7,1.5,2.5
			c0,1.2-0.6,1.8-1.7,1.8c-0.9,0-1.8-0.8-2.8-2.3c-0.7-1.1-1.6-1.7-2.6-1.7c-1.5,0-2.9,0.7-4.3,2.1c-1.4,1.4-2.9,5.1-4.5,11.3
			l-1,3.6H540.8z"/>
		<path class="st3" d="M538.9,442.7c0-2.7,0.6-5.5,1.9-8.7c1.2-3.1,3-5.7,5.3-7.6c2.3-1.9,4.5-2.9,6.7-2.9c2,0,3.6,0.8,4.9,2.5
			c1.3,1.7,1.9,3.9,1.9,6.8c0,3.5-0.7,6.7-2.1,9.8c-1.4,3.1-3.2,5.5-5.3,7.1c-2.1,1.6-4.2,2.5-6.3,2.5c-1.8,0-3.4-0.7-4.8-2.1
			C539.6,448.6,538.9,446.2,538.9,442.7z M542.5,446.5c0,1.2,0.3,2.2,0.9,3.1c0.6,0.8,1.5,1.3,2.6,1.3c3,0,5.4-2.8,7.3-8.4
			c1.9-5.6,2.9-9.9,2.9-12.9c0-1.5-0.3-2.7-0.9-3.4c-0.6-0.8-1.5-1.1-2.6-1.1c-2.8,0-5.2,2.6-7.2,7.8
			C543.5,437.9,542.5,442.5,542.5,446.5z"/>
		<path class="st3" d="M564.6,432.2h-1.5c0.9-2.5,2.1-4.6,3.5-6.3c1.4-1.7,2.8-2.6,4.2-2.6c1,0,1.7,0.4,2.1,1.1s0.7,1.9,0.7,3.5
			c0,1.9-0.5,4.7-1.5,8.2c0.1-0.2,0.5-1,1.1-2.4c1.6-3.7,3.1-6.4,4.3-8c1.2-1.6,2.5-2.5,3.7-2.5c0.8,0,1.4,0.2,1.9,0.7
			c0.5,0.5,0.7,1.1,0.7,1.8c0,0.7-0.2,1.2-0.6,1.6c-0.4,0.4-0.8,0.6-1.4,0.6c-0.6,0-1.2-0.4-1.8-1.1c-0.2-0.3-0.5-0.4-0.7-0.4
			c-1.1,0-2.8,2.7-5.1,8c-2.3,5.3-4.2,10.3-5.6,15l-0.7,2.4h-4l5.3-17.6c1-3.4,1.5-5.6,1.5-6.8c0-0.6-0.1-1.1-0.2-1.4
			c-0.2-0.3-0.4-0.5-0.7-0.5c-0.7,0-1.6,0.8-2.7,2.4C565.8,429.5,565,430.9,564.6,432.2z"/>
		<path class="st3" d="M622.8,443.8h1.4c-0.7,3-1.8,5.2-3.2,6.5c-1.4,1.3-2.8,2-4.2,2c-2.8,0-4.2-1.8-4.2-5.4c0-0.5,0.1-1.6,0.2-3.3
			c0.2-2.8,0.3-4.4,0.3-4.7c0-2.1-0.8-3.2-2.5-3.2c-0.8,0-1.6,0.3-2.4,0.8c-0.8,0.6-1.3,1.2-1.7,2.1c-0.3,0.8-0.9,2.4-1.6,4.8
			l-2.6,8.5h-4l11.8-38.6c0.6-2,0.9-3.1,0.9-3.5c0-0.5-0.1-0.9-0.4-1.1c-0.3-0.2-1-0.3-2.2-0.3h-1.2l0.4-1.4
			c3.6-0.1,6.2-0.5,7.9-1.2h0.8l-9.1,29.9c5.2-5.7,8.8-9.2,10.7-10.5c1.9-1.3,3.6-1.9,5-1.9c2,0,3,0.7,3,2.2c0,0.6-0.2,1-0.6,1.4
			c-0.4,0.4-0.8,0.6-1.3,0.6c-0.4,0-1-0.2-1.8-0.7c-0.5-0.3-1-0.5-1.5-0.5c-2.1,0-5.6,2.8-10.5,8.4c0.4-0.1,0.8-0.2,1-0.2
			c3.5,0,5.4,3.6,5.7,10.8c0.1,1.9,0.2,3.1,0.5,3.6c0.2,0.5,0.7,0.8,1.3,0.8c0.8,0,1.6-0.6,2.4-1.7
			C621.8,446.8,622.4,445.4,622.8,443.8z"/>
		<path class="st3" d="M650.8,445.2h1.7c-1.3,2.4-2.7,4.2-4.1,5.4c-1.4,1.2-2.8,1.8-4.2,1.8c-1,0-1.9-0.3-2.6-0.9
			c-0.7-0.6-1.1-1.5-1.1-2.7c0-1,0.5-3,1.5-5.9l3.6-10.1c1-2.8,1.4-4.6,1.4-5.4c0-0.7-0.2-1.3-0.5-1.6c-0.3-0.4-0.8-0.5-1.5-0.5
			c-1.7,0-3.9,2-6.6,5.9c-2.7,4-5,9.1-7,15.5l-1.6,5.3h-4.1l5.8-18.9c1.1-3.5,1.6-5.5,1.6-6c0-0.4-0.1-0.7-0.2-0.8
			c-0.1-0.2-0.3-0.3-0.6-0.3c-1.3,0-2.9,1.6-4.6,4.8h-1.5c2.8-5,5.4-7.5,7.9-7.5c0.9,0,1.5,0.3,1.9,0.8c0.4,0.5,0.6,1.3,0.6,2.4
			c0,1.9-0.7,4.8-2.2,8.8c4-8,7.9-12,11.7-12c1.2,0,2.3,0.4,3.2,1.2c0.9,0.8,1.4,2,1.4,3.5c0,1-0.5,2.9-1.4,5.6l-3.6,10.6
			c-1,2.9-1.4,4.4-1.4,4.8c0,0.4,0.1,0.7,0.3,0.9c0.2,0.2,0.5,0.3,0.9,0.3c0.8,0,1.6-0.4,2.4-1.3
			C648.9,448.1,649.8,446.8,650.8,445.2z"/>
		<path class="st3" d="M655.8,442.7c0-2.7,0.6-5.5,1.9-8.7c1.2-3.1,3-5.7,5.3-7.6c2.3-1.9,4.5-2.9,6.7-2.9c2,0,3.6,0.8,4.9,2.5
			c1.3,1.7,1.9,3.9,1.9,6.8c0,3.5-0.7,6.7-2.1,9.8c-1.4,3.1-3.2,5.5-5.3,7.1c-2.1,1.6-4.2,2.5-6.3,2.5c-1.8,0-3.4-0.7-4.8-2.1
			C656.5,448.6,655.8,446.2,655.8,442.7z M659.3,446.5c0,1.2,0.3,2.2,0.9,3.1c0.6,0.8,1.5,1.3,2.6,1.3c3,0,5.4-2.8,7.3-8.4
			c1.9-5.6,2.9-9.9,2.9-12.9c0-1.5-0.3-2.7-0.9-3.4c-0.6-0.8-1.5-1.1-2.6-1.1c-2.8,0-5.2,2.6-7.2,7.8
			C660.3,437.9,659.3,442.5,659.3,446.5z"/>
		<path class="st3" d="M683.5,428.4H682c0.9-3.3,2-4.9,3.5-4.9c0.9,0,1.8,0.6,2.8,1.7c0.9,1.1,1.7,1.6,2.4,1.6
			c0.6,0,1.1-0.5,1.3-1.5c0.4-1.3,0.9-1.9,1.6-1.9c0.7,0,1,0.3,1,0.9c0,0.3-0.6,1.5-1.8,3.6c-2.8,4.8-4.6,8.7-5.5,11.9
			c-0.9,3.1-1.3,5.3-1.3,6.5c0,1.1,0.3,2.1,0.8,2.9c0.5,0.8,1.3,1.2,2.3,1.2c1.5,0,3.2-0.7,5.1-2.1s3.5-2.8,4.6-4.2
			c-0.1-0.6-0.1-1.1-0.1-1.8c0-4.6,0.9-8.8,2.8-12.9c1.8-4,3.8-6,5.8-6c0.8,0,1.5,0.3,1.9,0.9c0.4,0.6,0.6,1.5,0.6,2.7
			c0,2-0.6,4.3-1.7,6.7c-1.1,2.4-2.9,5.1-5.2,7.9c0.2,2.8,0.8,5,1.7,6.5c0.9,1.5,2.1,2.3,3.4,2.3c1.3,0,2.8-0.8,4.5-2.3
			c1.7-1.5,3.3-3.9,4.6-7c1.4-3.1,2-5.7,2-7.9c0-1.3-0.4-2.7-1.1-4.2c-0.6-1.4-1-2.5-1-3.5c0-0.7,0.2-1.2,0.5-1.6s0.8-0.6,1.2-0.6
			c0.6,0,1.2,0.4,1.7,1.3s0.8,2.3,0.8,4.3c0,2.9-0.7,6.5-2.1,10.7c-1.4,4.2-3.4,7.4-5.9,9.5c-2.5,2.2-4.9,3.2-7.2,3.2
			c-1.9,0-3.5-0.7-4.7-2.1c-1.2-1.4-2-2.9-2.3-4.4c-2.1,2.2-4.2,3.8-6.1,4.9c-2,1.1-3.9,1.7-5.7,1.7c-1.8,0-3.2-0.6-4.2-1.7
			c-0.9-1.1-1.4-2.5-1.4-4.2c0-3.7,2.4-8.9,7.1-15.7c1.2-1.6,1.9-2.6,2.1-3c-1,0.5-1.8,0.8-2.7,0.8c-0.8,0-1.6-0.4-2.5-1.2
			c-0.4-0.4-0.7-0.6-1-0.6c-0.5,0-1,0.4-1.3,1.3L683.5,428.4z M702.6,439.4c1.9-2.5,3.3-4.8,4.2-7c0.9-2.1,1.4-4,1.4-5.7
			c0-0.7-0.1-1.2-0.3-1.5c-0.2-0.3-0.5-0.5-0.9-0.5c-0.9,0-1.9,1.1-2.9,3.3c-1.1,2.2-1.6,5.4-1.6,9.7
			C702.5,438.2,702.5,438.8,702.6,439.4z"/>
		<path class="st3" d="M736.5,443.4h1.5c-2.3,5.9-5.2,8.9-8.7,8.9c-1.2,0-2.2-0.4-2.9-1.2s-1.1-1.8-1.1-3c0-1.2,0.7-4.2,2.2-8.9
			l7.8-25.6c0.7-2.2,1-3.4,1-3.8c0-0.5-0.1-0.9-0.4-1.1c-0.3-0.2-1-0.3-2.2-0.3h-1.3l0.4-1.4c3.7-0.1,6.3-0.5,8.1-1.2h0.8
			l-10.7,35.2c-0.2,0.6-0.5,1.6-1,3c-0.6,1.9-1,3.4-1,4.4c0,0.7,0.1,1.2,0.4,1.5c0.3,0.3,0.6,0.5,1.1,0.5c0.8,0,1.7-0.5,2.8-1.6
			C734.3,447.7,735.4,446,736.5,443.4z"/>
		<path class="st3" d="M755.3,442.9h1.6c-2.8,6.3-6.4,9.4-10.8,9.4c-1.8,0-3.3-0.6-4.4-1.9c-1.1-1.3-1.7-3-1.7-5.2
			c0-2.7,0.7-5.8,2.2-9.3c1.5-3.5,3.6-6.4,6.3-8.9c2.7-2.5,5.1-3.8,7.1-3.8c1.2,0,2.2,0.4,2.8,1.2c0.6,0.8,1,1.8,1,2.9
			c0,2.4-1.2,4.7-3.6,6.9c-2.4,2.2-6,4.3-10.8,6.4c-0.6,1.9-0.9,3.8-0.9,5.5c0,1.4,0.3,2.5,0.8,3.2c0.6,0.7,1.4,1.1,2.5,1.1
			C750.3,450.4,753,447.9,755.3,442.9z M745.4,438.9c2.9-1.3,5.4-3.1,7.7-5.3c2.3-2.3,3.4-4.3,3.4-6.1c0-0.8-0.2-1.5-0.5-1.9
			c-0.3-0.4-0.9-0.6-1.5-0.6c-1.3,0-2.9,1.3-4.7,3.9C748,431.5,746.5,434.8,745.4,438.9z"/>
		<path class="st3" d="M784.5,445.4h1.6c-1,1.8-2.3,3.4-3.8,4.8c-1.5,1.4-2.9,2.1-4.2,2.1c-1.2,0-2.1-0.4-2.7-1.1s-0.9-1.8-0.9-3.2
			c0-0.6,0.1-1.2,0.2-1.8c-3.1,4-6.1,6-8.7,6c-1.5,0-2.8-0.6-3.9-1.8s-1.6-3-1.6-5.3c0-3.2,0.9-6.7,2.7-10.3c1.8-3.7,4-6.5,6.6-8.6
			c2.6-2,4.9-3,6.8-3c1,0,1.8,0.2,2.5,0.7s1.3,1.2,1.7,2.1l4.1-13.4c0.5-1.6,0.7-2.6,0.7-2.9c0-0.5-0.1-0.9-0.4-1.1
			c-0.3-0.2-1-0.3-2.2-0.3h-0.9l0.4-1.4c3.2,0,5.8-0.4,7.7-1.2h0.8l-10.6,35c-1.3,4.3-2,6.9-2,7.6c0,0.6,0.1,1,0.3,1.2
			c0.2,0.3,0.5,0.4,0.9,0.4c0.7,0,1.4-0.4,2.2-1.2C782.7,448.1,783.6,446.9,784.5,445.4z M764.5,446.8c0,1.2,0.2,2.2,0.6,2.8
			s1.1,0.9,1.9,0.9c1.5,0,3.2-1,5.1-3.1c1.9-2.1,3.7-5.5,5.4-10.2c1.6-4.7,2.5-7.8,2.5-9c0-0.8-0.3-1.6-0.8-2.2
			c-0.6-0.7-1.3-1-2.2-1c-1.4,0-2.9,0.8-4.5,2.5c-1.6,1.7-3.3,4.6-5.2,8.8C765.4,440.4,764.5,443.9,764.5,446.8z"/>
		<path class="st3" d="M795.5,443.4c-1.4-0.8-2.5-1.8-3.2-3.1c-0.7-1.3-1.1-2.8-1.1-4.6c0-3.2,1.2-6.1,3.5-8.6
			c2.3-2.5,4.9-3.8,7.8-3.8c0.9,0,1.8,0.1,2.5,0.4c0.8,0.3,1.5,0.7,2.1,1.3c1.5-1.2,2.7-1.8,3.7-1.8c0.8,0,1.4,0.2,2,0.7
			c0.5,0.5,0.8,1,0.8,1.7c0,1.1-0.5,1.6-1.5,1.6c-0.6,0-1.1-0.4-1.7-1.1c-0.4-0.5-0.7-0.7-1.1-0.7c-0.4,0-0.8,0.3-1.2,0.8
			c0.9,1.5,1.3,3.2,1.3,5.2c0,3.8-1.1,6.9-3.4,9.1c-2.3,2.2-5,3.5-8.2,4c-4.8,0.6-7.2,1.9-7.2,3.9c0,0.6,0.3,1.1,0.8,1.5
			c0.6,0.4,1.7,0.8,3.5,1.2c3.1,0.7,5.6,1.3,7.5,1.9c1.9,0.6,3.4,1.4,4.3,2.4c0.9,1.1,1.4,2.3,1.4,3.8c0,2.3-1.2,4.2-3.5,5.9
			c-2.3,1.7-5.6,2.6-9.8,2.6c-4,0-7.1-0.7-9.4-2c-2.2-1.3-3.4-2.9-3.4-4.9c0-1.4,0.5-2.7,1.6-3.6c1.1-1,2-1.5,2.8-1.5
			s1.2,0.3,1.2,0.9c0,0.3-0.3,0.7-0.8,1.3c-0.9,1-1.4,1.9-1.4,2.9c0,1.4,0.7,2.7,2.2,3.8c1.5,1.1,3.7,1.7,6.7,1.7
			c3.2,0,5.7-0.6,7.4-1.7c1.7-1.1,2.5-2.4,2.5-3.9c0-1.2-0.6-2.1-1.8-2.9c-1.2-0.7-3.7-1.5-7.6-2.5c-3.4-0.8-5.5-1.6-6.3-2.5
			c-0.8-0.8-1.3-1.8-1.3-2.8c0-1.4,0.7-2.7,2.1-4C790.9,444.8,792.9,443.9,795.5,443.4z M794.8,438.7c0,1.2,0.3,2.2,1,3
			c0.7,0.8,1.6,1.1,2.6,1.1c1.2,0,2.3-0.5,3.3-1.5c1-1,1.9-2.8,2.8-5.4c0.9-2.6,1.4-4.9,1.4-6.7c0-1.5-0.3-2.7-0.8-3.4
			c-0.5-0.8-1.4-1.1-2.4-1.1c-1.9,0-3.7,1.6-5.4,4.8C795.6,432.7,794.8,435.8,794.8,438.7z"/>
		<path class="st3" d="M828.2,442.9h1.6c-2.8,6.3-6.4,9.4-10.8,9.4c-1.8,0-3.3-0.6-4.4-1.9c-1.1-1.3-1.7-3-1.7-5.2
			c0-2.7,0.7-5.8,2.2-9.3c1.5-3.5,3.6-6.4,6.3-8.9c2.7-2.5,5.1-3.8,7.1-3.8c1.2,0,2.2,0.4,2.8,1.2c0.6,0.8,1,1.8,1,2.9
			c0,2.4-1.2,4.7-3.6,6.9c-2.4,2.2-6,4.3-10.8,6.4c-0.6,1.9-0.9,3.8-0.9,5.5c0,1.4,0.3,2.5,0.8,3.2c0.6,0.7,1.4,1.1,2.5,1.1
			C823.2,450.4,825.9,447.9,828.2,442.9z M818.3,438.9c2.9-1.3,5.4-3.1,7.7-5.3c2.3-2.3,3.4-4.3,3.4-6.1c0-0.8-0.2-1.5-0.5-1.9
			c-0.3-0.4-0.9-0.6-1.5-0.6c-1.3,0-2.9,1.3-4.7,3.9C820.9,431.5,819.4,434.8,818.3,438.9z"/>
		<path class="st3" d="M872.1,423.8h4l-5.9,19.5c-0.9,2.8-1.3,4.5-1.3,5.1c0,0.4,0.1,0.8,0.3,1s0.5,0.3,0.9,0.3
			c1.5,0,3.3-1.7,5.3-5.2h1.4c-0.9,2-2.1,3.8-3.7,5.4c-1.6,1.6-3.1,2.4-4.4,2.4c-1,0-1.8-0.4-2.4-1.2c-0.6-0.8-0.8-1.7-0.8-2.9
			c0-0.9,0.2-2.1,0.7-3.6c-1,1.7-2.4,3.4-4.3,5.1s-3.7,2.5-5.3,2.5c-1.5,0-2.9-0.7-4-2c-1.1-1.3-1.7-3.1-1.7-5.3
			c0-3,0.9-6.2,2.6-9.7c1.7-3.4,4-6.3,6.8-8.6c2.8-2.3,5.2-3.5,7.1-3.5c1.2,0,2.1,0.3,2.7,0.8c0.7,0.6,1.1,1.4,1.3,2.5L872.1,423.8z
			 M854.7,446c0,1.5,0.2,2.6,0.7,3.3c0.4,0.7,1.1,1.1,2,1.1c1.5,0,3.2-1.1,5.3-3.2c2-2.1,3.8-5.4,5.3-9.9c1.5-4.4,2.3-7.4,2.3-9
			c0-0.9-0.2-1.7-0.7-2.4c-0.5-0.7-1.2-1-2-1c-2.7,0-5.5,2.7-8.4,8C856.2,438.3,854.7,442.7,854.7,446z"/>
		<path class="st3" d="M903.5,445.2h1.7c-1.3,2.4-2.7,4.2-4.1,5.4c-1.4,1.2-2.8,1.8-4.2,1.8c-1,0-1.9-0.3-2.6-0.9
			c-0.7-0.6-1.1-1.5-1.1-2.7c0-1,0.5-3,1.5-5.9l3.6-10.1c1-2.8,1.4-4.6,1.4-5.4c0-0.7-0.2-1.3-0.5-1.6c-0.3-0.4-0.8-0.5-1.5-0.5
			c-1.7,0-3.9,2-6.6,5.9c-2.7,4-5,9.1-7,15.5l-1.6,5.3h-4.1l5.8-18.9c1.1-3.5,1.6-5.5,1.6-6c0-0.4-0.1-0.7-0.2-0.8
			c-0.1-0.2-0.3-0.3-0.6-0.3c-1.3,0-2.9,1.6-4.6,4.8H879c2.8-5,5.4-7.5,7.9-7.5c0.9,0,1.5,0.3,1.9,0.8c0.4,0.5,0.6,1.3,0.6,2.4
			c0,1.9-0.7,4.8-2.2,8.8c4-8,7.9-12,11.7-12c1.2,0,2.3,0.4,3.2,1.2c0.9,0.8,1.4,2,1.4,3.5c0,1-0.5,2.9-1.4,5.6l-3.6,10.6
			c-1,2.9-1.4,4.4-1.4,4.8c0,0.4,0.1,0.7,0.3,0.9c0.2,0.2,0.5,0.3,0.9,0.3c0.8,0,1.6-0.4,2.4-1.3
			C901.6,448.1,902.5,446.8,903.5,445.2z"/>
		<path class="st3" d="M931.9,445.4h1.6c-1,1.8-2.3,3.4-3.8,4.8c-1.5,1.4-2.9,2.1-4.2,2.1c-1.2,0-2.1-0.4-2.7-1.1s-0.9-1.8-0.9-3.2
			c0-0.6,0.1-1.2,0.2-1.8c-3.1,4-6.1,6-8.7,6c-1.5,0-2.8-0.6-3.9-1.8s-1.6-3-1.6-5.3c0-3.2,0.9-6.7,2.7-10.3c1.8-3.7,4-6.5,6.6-8.6
			c2.6-2,4.9-3,6.8-3c1,0,1.8,0.2,2.5,0.7s1.3,1.2,1.7,2.1l4.1-13.4c0.5-1.6,0.7-2.6,0.7-2.9c0-0.5-0.1-0.9-0.4-1.1
			c-0.3-0.2-1-0.3-2.2-0.3h-0.9l0.4-1.4c3.2,0,5.8-0.4,7.7-1.2h0.8l-10.6,35c-1.3,4.3-2,6.9-2,7.6c0,0.6,0.1,1,0.3,1.2
			c0.2,0.3,0.5,0.4,0.9,0.4c0.7,0,1.4-0.4,2.2-1.2C930,448.1,930.9,446.9,931.9,445.4z M911.8,446.8c0,1.2,0.2,2.2,0.6,2.8
			s1.1,0.9,1.9,0.9c1.5,0,3.2-1,5.1-3.1c1.9-2.1,3.7-5.5,5.4-10.2c1.6-4.7,2.5-7.8,2.5-9c0-0.8-0.3-1.6-0.8-2.2
			c-0.6-0.7-1.3-1-2.2-1c-1.4,0-3,0.8-4.5,2.5c-1.6,1.7-3.3,4.6-5.2,8.8C912.7,440.4,911.8,443.9,911.8,446.8z"/>
		<path class="st3" d="M968.5,442.9h1.6c-2.8,6.3-6.4,9.4-10.8,9.4c-1.8,0-3.3-0.6-4.4-1.9c-1.1-1.3-1.7-3-1.7-5.2
			c0-2.7,0.7-5.8,2.2-9.3c1.5-3.5,3.6-6.4,6.3-8.9c2.7-2.5,5.1-3.8,7.1-3.8c1.2,0,2.2,0.4,2.8,1.2c0.6,0.8,1,1.8,1,2.9
			c0,2.4-1.2,4.7-3.6,6.9c-2.4,2.2-6,4.3-10.8,6.4c-0.6,1.9-0.9,3.8-0.9,5.5c0,1.4,0.3,2.5,0.8,3.2c0.6,0.7,1.4,1.1,2.5,1.1
			C963.5,450.4,966.1,447.9,968.5,442.9z M958.6,438.9c2.9-1.3,5.4-3.1,7.7-5.3s3.4-4.3,3.4-6.1c0-0.8-0.2-1.5-0.5-1.9
			c-0.3-0.4-0.9-0.6-1.5-0.6c-1.3,0-2.9,1.3-4.7,3.9C961.2,431.5,959.7,434.8,958.6,438.9z"/>
		<path class="st3" d="M979,431.4h-1.4c0.7-2,1.6-3.9,2.8-5.6c1.2-1.7,2.4-2.6,3.5-2.6c0.8,0,1.3,0.4,1.8,1.1c0.4,0.7,1,2.1,1.5,4.3
			l1.4,5.4l5.3-6.6c2.3-2.8,3.9-4.2,5-4.2c1,0,1.5,0.6,1.5,1.8c0,1.7-0.4,3.6-1.3,5.7h-1.4c0.8-2.4,1.1-4.1,1.1-5
			c0-0.5-0.2-0.7-0.5-0.7c-0.5,0-1.5,1-3,3l-6.3,7.7l2,8.1c0.5,2.1,0.9,3.6,1.2,4.2c0.3,0.7,0.6,1,1,1c0.3,0,0.8-0.5,1.3-1.4
			s1.1-2.2,1.5-3.8h1.5c-1.6,5.6-3.6,8.4-6,8.4c-1,0-1.7-0.5-2.3-1.4s-1.2-2.8-1.9-5.5l-1.4-5.6l-6,7.8c-1.7,2.1-2.8,3.5-3.4,3.9
			s-1.2,0.7-1.7,0.7c-1.1,0-1.6-0.7-1.6-2.1c0-1.3,0.6-3.2,1.7-5.5h1.4c-1,2.4-1.6,4-1.6,4.8c0,0.6,0.2,1,0.6,1c0.5,0,1.8-1.4,4-4.2
			l6.3-8.3l-1.8-7.3c-0.7-2.9-1.2-4.3-1.7-4.3C981.3,426.5,980.3,428.2,979,431.4z"/>
		<path class="st3" d="M1003,437.7h-1.5l6.3-10.1c1.8-2.9,3-5,3.6-6.2c0.6-1.2,1.2-3.1,2-5.5l0.5-1.6h4l-2.3,7.4l-2.8,7.8
			c3-4.2,5.9-6.3,8.6-6.3c1.6,0,3,0.8,4.2,2.3c1.2,1.5,1.7,3.4,1.7,5.7c0,2.7-0.7,5.7-2.1,9.2s-3.3,6.3-5.8,8.5
			c-2.5,2.2-5,3.4-7.5,3.4c-2.4,0-3.9-1.1-4.5-3.4l-3.9,12.8c-0.5,1.6-0.7,2.6-0.7,2.9c0,0.4,0.2,0.7,0.5,1c0.3,0.3,1.3,0.4,2.8,0.4
			h1.5l-0.5,1.5h-13.9l0.5-1.5h0.7c1.9,0,3.1-0.1,3.5-0.4c0.4-0.3,1-1.6,1.7-4.2l6.9-22.8c1.5-4.8,3.1-9.6,5-14.6
			c-0.2,0.3-0.8,1.3-1.8,3c-0.1,0.2-0.5,0.7-1.1,1.7L1003,437.7z M1009.2,442.8c-0.6,2-0.9,3.4-0.9,4.2c0,1.1,0.3,2,0.9,2.8
			c0.6,0.8,1.4,1.1,2.5,1.1c1.6,0,3.3-0.9,5-2.8c1.7-1.8,3.2-4.9,4.6-9.2c1.4-4.3,2.1-7.5,2.1-9.7c0-1.4-0.2-2.5-0.7-3.2
			c-0.4-0.7-1.1-1.1-2-1.1c-1.2,0-2.8,0.9-4.8,2.6c-2,1.7-3.8,5.4-5.5,10.9L1009.2,442.8z"/>
		<path class="st3" d="M1045.6,442.9h1.6c-2.8,6.3-6.4,9.4-10.8,9.4c-1.8,0-3.3-0.6-4.4-1.9c-1.1-1.3-1.7-3-1.7-5.2
			c0-2.7,0.7-5.8,2.2-9.3c1.5-3.5,3.6-6.4,6.3-8.9c2.7-2.5,5.1-3.8,7.1-3.8c1.2,0,2.2,0.4,2.8,1.2c0.6,0.8,1,1.8,1,2.9
			c0,2.4-1.2,4.7-3.6,6.9c-2.4,2.2-6,4.3-10.8,6.4c-0.6,1.9-0.9,3.8-0.9,5.5c0,1.4,0.3,2.5,0.8,3.2c0.6,0.7,1.4,1.1,2.5,1.1
			C1040.6,450.4,1043.3,447.9,1045.6,442.9z M1035.8,438.9c2.9-1.3,5.4-3.1,7.7-5.3s3.4-4.3,3.4-6.1c0-0.8-0.2-1.5-0.5-1.9
			c-0.3-0.4-0.9-0.6-1.5-0.6c-1.3,0-2.9,1.3-4.7,3.9C1038.3,431.5,1036.9,434.8,1035.8,438.9z"/>
		<path class="st3" d="M1052.4,432.2h-1.5c0.9-2.5,2.1-4.6,3.5-6.3c1.4-1.7,2.8-2.6,4.2-2.6c1,0,1.7,0.4,2.1,1.1s0.7,1.9,0.7,3.5
			c0,1.9-0.5,4.7-1.5,8.2c0.1-0.2,0.5-1,1.1-2.4c1.6-3.7,3.1-6.4,4.3-8c1.2-1.6,2.5-2.5,3.7-2.5c0.8,0,1.4,0.2,1.9,0.7
			c0.5,0.5,0.7,1.1,0.7,1.8c0,0.7-0.2,1.2-0.6,1.6c-0.4,0.4-0.8,0.6-1.4,0.6c-0.6,0-1.2-0.4-1.8-1.1c-0.2-0.3-0.5-0.4-0.7-0.4
			c-1.1,0-2.8,2.7-5.1,8c-2.3,5.3-4.2,10.3-5.6,15l-0.7,2.4h-4l5.3-17.6c1-3.4,1.5-5.6,1.5-6.8c0-0.6-0.1-1.1-0.2-1.4
			c-0.2-0.3-0.4-0.5-0.7-0.5c-0.7,0-1.6,0.8-2.7,2.4C1053.6,429.5,1052.9,430.9,1052.4,432.2z"/>
		<path class="st3" d="M1083.4,444.1h1.6c-1,2.1-2.4,4.1-4.1,5.7c-1.7,1.7-3.3,2.5-4.8,2.5c-1,0-2-0.4-2.7-1.1
			c-0.8-0.7-1.2-1.8-1.2-3.3c0-1.2,0.6-3.4,1.9-6.7l3.8-10.1c0.9-2.4,1.3-3.8,1.3-4.3c0-0.4-0.1-0.8-0.3-1c-0.2-0.2-0.5-0.3-0.9-0.3
			c-0.9,0-1.9,0.7-3.1,2c-1.2,1.3-2,2.6-2.5,3.6h-1.6c1.2-2.4,2.6-4.3,4.2-5.7s3-2.1,4.4-2.1c1,0,1.9,0.4,2.6,1.1
			c0.7,0.7,1,1.6,1,2.8c0,1.2-0.6,3.3-1.8,6.4l-3.2,8.6c-1.2,3.1-1.8,5.1-1.8,5.9c0,0.6,0.1,1.1,0.4,1.4c0.3,0.3,0.6,0.5,1.1,0.5
			C1079.3,450,1081.2,448,1083.4,444.1z M1081,408.6c0-0.8,0.3-1.5,0.8-2s1.2-0.8,2-0.8s1.5,0.3,2,0.8s0.8,1.2,0.8,2
			s-0.3,1.5-0.8,2.1c-0.6,0.6-1.2,0.9-2,0.9c-0.8,0-1.5-0.3-2.1-0.9C1081.3,410.1,1081,409.4,1081,408.6z"/>
		<path class="st3" d="M1102.3,442.9h1.6c-2.8,6.3-6.4,9.4-10.8,9.4c-1.8,0-3.3-0.6-4.4-1.9c-1.1-1.3-1.7-3-1.7-5.2
			c0-2.7,0.7-5.8,2.2-9.3c1.5-3.5,3.6-6.4,6.3-8.9c2.7-2.5,5.1-3.8,7.1-3.8c1.2,0,2.2,0.4,2.8,1.2c0.6,0.8,1,1.8,1,2.9
			c0,2.4-1.2,4.7-3.6,6.9c-2.4,2.2-6,4.3-10.8,6.4c-0.6,1.9-0.9,3.8-0.9,5.5c0,1.4,0.3,2.5,0.8,3.2c0.6,0.7,1.4,1.1,2.5,1.1
			C1097.3,450.4,1100,447.9,1102.3,442.9z M1092.4,438.9c2.9-1.3,5.4-3.1,7.7-5.3s3.4-4.3,3.4-6.1c0-0.8-0.2-1.5-0.5-1.9
			c-0.3-0.4-0.9-0.6-1.5-0.6c-1.3,0-2.9,1.3-4.7,3.9C1095,431.5,1093.5,434.8,1092.4,438.9z"/>
		<path class="st3" d="M1132.3,445.2h1.7c-1.3,2.4-2.7,4.2-4.1,5.4c-1.4,1.2-2.8,1.8-4.2,1.8c-1,0-1.9-0.3-2.6-0.9
			c-0.7-0.6-1.1-1.5-1.1-2.7c0-1,0.5-3,1.5-5.9l3.6-10.1c1-2.8,1.4-4.6,1.4-5.4c0-0.7-0.2-1.3-0.5-1.6c-0.3-0.4-0.8-0.5-1.5-0.5
			c-1.7,0-3.9,2-6.6,5.9c-2.7,4-5,9.1-7,15.5l-1.6,5.3h-4.1l5.8-18.9c1.1-3.5,1.6-5.5,1.6-6c0-0.4-0.1-0.7-0.2-0.8
			c-0.1-0.2-0.3-0.3-0.6-0.3c-1.3,0-2.9,1.6-4.6,4.8h-1.5c2.8-5,5.4-7.5,7.9-7.5c0.9,0,1.5,0.3,1.9,0.8c0.4,0.5,0.6,1.3,0.6,2.4
			c0,1.9-0.7,4.8-2.2,8.8c4-8,7.9-12,11.7-12c1.2,0,2.3,0.4,3.2,1.2c0.9,0.8,1.4,2,1.4,3.5c0,1-0.5,2.9-1.4,5.6l-3.6,10.6
			c-1,2.9-1.4,4.4-1.4,4.8c0,0.4,0.1,0.7,0.3,0.9c0.2,0.2,0.5,0.3,0.9,0.3c0.8,0,1.6-0.4,2.4-1.3
			C1130.4,448.1,1131.3,446.8,1132.3,445.2z"/>
		<path class="st3" d="M1152.3,442h1.3c-1.1,3.2-2.6,5.7-4.5,7.6c-1.9,1.9-4,2.8-6.1,2.8c-1.8,0-3.2-0.7-4.3-2s-1.6-3.2-1.6-5.7
			c0-2.9,0.7-6,2.2-9.3c1.5-3.4,3.5-6.2,6.2-8.5c2.7-2.3,5-3.5,7.1-3.5c1.2,0,2.2,0.4,3,1.1c0.8,0.8,1.2,1.7,1.2,2.7
			c0,1.6-0.6,2.4-1.9,2.4c-1.3,0-2-0.9-2-2.6c0-1.3-0.5-2-1.5-2c-1.2,0-2.7,1.1-4.3,3.4s-3,5.3-4.2,9.2s-1.8,6.7-1.8,8.7
			c0,1.3,0.3,2.3,1,3c0.6,0.8,1.4,1.1,2.3,1.1c1.3,0,2.7-0.8,4.3-2.3C1150.1,446.6,1151.4,444.5,1152.3,442z"/>
		<path class="st3" d="M1171.3,444.1h1.6c-1,2.1-2.4,4.1-4.1,5.7c-1.7,1.7-3.3,2.5-4.8,2.5c-1,0-2-0.4-2.7-1.1
			c-0.8-0.7-1.2-1.8-1.2-3.3c0-1.2,0.6-3.4,1.9-6.7l3.8-10.1c0.9-2.4,1.3-3.8,1.3-4.3c0-0.4-0.1-0.8-0.3-1c-0.2-0.2-0.5-0.3-0.9-0.3
			c-0.9,0-1.9,0.7-3.1,2c-1.2,1.3-2,2.6-2.5,3.6h-1.6c1.2-2.4,2.6-4.3,4.2-5.7s3-2.1,4.4-2.1c1,0,1.9,0.4,2.6,1.1
			c0.7,0.7,1,1.6,1,2.8c0,1.2-0.6,3.3-1.8,6.4l-3.2,8.6c-1.2,3.1-1.8,5.1-1.8,5.9c0,0.6,0.1,1.1,0.4,1.4c0.3,0.3,0.6,0.5,1.1,0.5
			C1167.2,450,1169.1,448,1171.3,444.1z M1168.8,408.6c0-0.8,0.3-1.5,0.8-2s1.2-0.8,2-0.8s1.5,0.3,2,0.8s0.8,1.2,0.8,2
			s-0.3,1.5-0.8,2.1c-0.6,0.6-1.2,0.9-2,0.9c-0.8,0-1.5-0.3-2.1-0.9C1169.1,410.1,1168.8,409.4,1168.8,408.6z"/>
		<path class="st3" d="M1199.6,445.2h1.7c-1.3,2.4-2.7,4.2-4.1,5.4c-1.4,1.2-2.8,1.8-4.2,1.8c-1,0-1.9-0.3-2.6-0.9
			c-0.7-0.6-1.1-1.5-1.1-2.7c0-1,0.5-3,1.5-5.9l3.6-10.1c1-2.8,1.4-4.6,1.4-5.4c0-0.7-0.2-1.3-0.5-1.6c-0.3-0.4-0.8-0.5-1.5-0.5
			c-1.7,0-3.9,2-6.6,5.9c-2.7,4-5,9.1-7,15.5l-1.6,5.3h-4.1l5.8-18.9c1.1-3.5,1.6-5.5,1.6-6c0-0.4-0.1-0.7-0.2-0.8
			c-0.1-0.2-0.3-0.3-0.6-0.3c-1.3,0-2.9,1.6-4.6,4.8h-1.5c2.8-5,5.4-7.5,7.9-7.5c0.9,0,1.5,0.3,1.9,0.8c0.4,0.5,0.6,1.3,0.6,2.4
			c0,1.9-0.7,4.8-2.2,8.8c4-8,7.9-12,11.7-12c1.2,0,2.3,0.4,3.2,1.2c0.9,0.8,1.4,2,1.4,3.5c0,1-0.5,2.9-1.4,5.6l-3.6,10.6
			c-1,2.9-1.4,4.4-1.4,4.8c0,0.4,0.1,0.7,0.3,0.9c0.2,0.2,0.5,0.3,0.9,0.3c0.8,0,1.6-0.4,2.4-1.3
			C1197.7,448.1,1198.6,446.8,1199.6,445.2z"/>
		<path class="st3" d="M1210.6,443.4c-1.4-0.8-2.5-1.8-3.2-3.1c-0.7-1.3-1.1-2.8-1.1-4.6c0-3.2,1.2-6.1,3.5-8.6
			c2.3-2.5,4.9-3.8,7.8-3.8c0.9,0,1.8,0.1,2.5,0.4c0.8,0.3,1.5,0.7,2.1,1.3c1.5-1.2,2.7-1.8,3.7-1.8c0.8,0,1.4,0.2,2,0.7
			c0.5,0.5,0.8,1,0.8,1.7c0,1.1-0.5,1.6-1.5,1.6c-0.6,0-1.1-0.4-1.7-1.1c-0.4-0.5-0.7-0.7-1.1-0.7c-0.4,0-0.8,0.3-1.2,0.8
			c0.9,1.5,1.3,3.2,1.3,5.2c0,3.8-1.1,6.9-3.4,9.1c-2.3,2.2-5,3.5-8.2,4c-4.8,0.6-7.2,1.9-7.2,3.9c0,0.6,0.3,1.1,0.8,1.5
			s1.7,0.8,3.5,1.2c3.1,0.7,5.6,1.3,7.5,1.9c1.9,0.6,3.4,1.4,4.3,2.4c0.9,1.1,1.4,2.3,1.4,3.8c0,2.3-1.2,4.2-3.5,5.9
			c-2.3,1.7-5.6,2.6-9.8,2.6c-4,0-7.1-0.7-9.4-2c-2.2-1.3-3.4-2.9-3.4-4.9c0-1.4,0.5-2.7,1.6-3.6c1.1-1,2-1.5,2.8-1.5
			c0.8,0,1.2,0.3,1.2,0.9c0,0.3-0.3,0.7-0.8,1.3c-0.9,1-1.4,1.9-1.4,2.9c0,1.4,0.7,2.7,2.2,3.8c1.5,1.1,3.7,1.7,6.7,1.7
			c3.2,0,5.7-0.6,7.4-1.7c1.7-1.1,2.5-2.4,2.5-3.9c0-1.2-0.6-2.1-1.8-2.9s-3.7-1.5-7.6-2.5c-3.4-0.8-5.5-1.6-6.3-2.5
			c-0.8-0.8-1.3-1.8-1.3-2.8c0-1.4,0.7-2.7,2.1-4C1206,444.8,1208,443.9,1210.6,443.4z M1209.9,438.7c0,1.2,0.3,2.2,1,3
			c0.7,0.8,1.6,1.1,2.6,1.1c1.2,0,2.3-0.5,3.3-1.5c1-1,1.9-2.8,2.8-5.4c0.9-2.6,1.4-4.9,1.4-6.7c0-1.5-0.3-2.7-0.8-3.4
			c-0.5-0.8-1.4-1.1-2.4-1.1c-1.9,0-3.7,1.6-5.4,4.8C1210.7,432.7,1209.9,435.8,1209.9,438.7z"/>
		<path class="st3" d="M1269.7,445.2h1.7c-1.3,2.4-2.7,4.2-4.1,5.4c-1.4,1.2-2.8,1.8-4.2,1.8c-1,0-1.9-0.3-2.6-0.9
			c-0.7-0.6-1.1-1.5-1.1-2.7c0-1,0.5-3,1.5-5.9l3.6-10.1c1-2.8,1.4-4.6,1.4-5.4c0-0.7-0.2-1.3-0.5-1.6c-0.3-0.4-0.8-0.5-1.5-0.5
			c-1.7,0-3.9,2-6.6,5.9c-2.7,4-5,9.1-7,15.5l-1.6,5.3h-4.1l5.8-18.9c1.1-3.5,1.6-5.5,1.6-6c0-0.4-0.1-0.7-0.2-0.8
			c-0.1-0.2-0.3-0.3-0.6-0.3c-1.3,0-2.9,1.6-4.6,4.8h-1.5c2.8-5,5.4-7.5,7.9-7.5c0.9,0,1.5,0.3,1.9,0.8c0.4,0.5,0.6,1.3,0.6,2.4
			c0,1.9-0.7,4.8-2.2,8.8c4-8,7.9-12,11.7-12c1.2,0,2.3,0.4,3.2,1.2c0.9,0.8,1.4,2,1.4,3.5c0,1-0.5,2.9-1.4,5.6l-3.6,10.6
			c-1,2.9-1.4,4.4-1.4,4.8c0,0.4,0.1,0.7,0.3,0.9c0.2,0.2,0.5,0.3,0.9,0.3c0.8,0,1.6-0.4,2.4-1.3
			C1267.8,448.1,1268.7,446.8,1269.7,445.2z"/>
		<path class="st3" d="M1289.3,442.9h1.6c-2.8,6.3-6.4,9.4-10.8,9.4c-1.8,0-3.3-0.6-4.4-1.9c-1.1-1.3-1.7-3-1.7-5.2
			c0-2.7,0.7-5.8,2.2-9.3c1.5-3.5,3.6-6.4,6.3-8.9c2.7-2.5,5.1-3.8,7.1-3.8c1.2,0,2.2,0.4,2.8,1.2c0.6,0.8,1,1.8,1,2.9
			c0,2.4-1.2,4.7-3.6,6.9c-2.4,2.2-6,4.3-10.8,6.4c-0.6,1.9-0.9,3.8-0.9,5.5c0,1.4,0.3,2.5,0.8,3.2c0.6,0.7,1.4,1.1,2.5,1.1
			C1284.4,450.4,1287,447.9,1289.3,442.9z M1279.5,438.9c2.9-1.3,5.4-3.1,7.7-5.3s3.4-4.3,3.4-6.1c0-0.8-0.2-1.5-0.5-1.9
			c-0.3-0.4-0.9-0.6-1.5-0.6c-1.3,0-2.9,1.3-4.7,3.9C1282,431.5,1280.6,434.8,1279.5,438.9z"/>
		<path class="st3" d="M1298.7,428.4h-1.4c0.9-3.3,2-4.9,3.5-4.9c0.9,0,1.8,0.6,2.8,1.7c0.9,1.1,1.7,1.6,2.4,1.6
			c0.6,0,1.1-0.5,1.3-1.5c0.4-1.3,0.9-1.9,1.6-1.9s1,0.3,1,0.9c0,0.3-0.6,1.5-1.8,3.6c-2.8,4.8-4.6,8.7-5.5,11.9
			c-0.9,3.1-1.3,5.3-1.3,6.5c0,1.1,0.3,2.1,0.8,2.9c0.5,0.8,1.3,1.2,2.3,1.2c1.5,0,3.2-0.7,5.1-2.1s3.5-2.8,4.6-4.2
			c-0.1-0.6-0.1-1.1-0.1-1.8c0-4.6,0.9-8.8,2.8-12.9s3.8-6,5.8-6c0.8,0,1.5,0.3,1.9,0.9c0.4,0.6,0.6,1.5,0.6,2.7
			c0,2-0.6,4.3-1.7,6.7c-1.1,2.4-2.9,5.1-5.2,7.9c0.2,2.8,0.8,5,1.7,6.5c0.9,1.5,2.1,2.3,3.4,2.3c1.3,0,2.8-0.8,4.5-2.3
			c1.7-1.5,3.3-3.9,4.6-7c1.4-3.1,2-5.7,2-7.9c0-1.3-0.4-2.7-1.1-4.2c-0.6-1.4-1-2.5-1-3.5c0-0.7,0.2-1.2,0.5-1.6s0.8-0.6,1.2-0.6
			c0.6,0,1.2,0.4,1.7,1.3s0.8,2.3,0.8,4.3c0,2.9-0.7,6.5-2.1,10.7c-1.4,4.2-3.4,7.4-5.9,9.5c-2.5,2.2-4.9,3.2-7.2,3.2
			c-1.9,0-3.5-0.7-4.7-2.1c-1.2-1.4-2-2.9-2.3-4.4c-2.1,2.2-4.2,3.8-6.1,4.9s-3.9,1.7-5.7,1.7c-1.8,0-3.2-0.6-4.2-1.7
			c-0.9-1.1-1.4-2.5-1.4-4.2c0-3.7,2.4-8.9,7.1-15.7c1.2-1.6,1.9-2.6,2.1-3c-1,0.5-1.8,0.8-2.7,0.8c-0.8,0-1.6-0.4-2.5-1.2
			c-0.4-0.4-0.7-0.6-1-0.6c-0.5,0-1,0.4-1.3,1.3L1298.7,428.4z M1317.8,439.4c1.9-2.5,3.3-4.8,4.2-7c0.9-2.1,1.4-4,1.4-5.7
			c0-0.7-0.1-1.2-0.3-1.5c-0.2-0.3-0.5-0.5-0.9-0.5c-0.9,0-1.9,1.1-2.9,3.3c-1.1,2.2-1.6,5.4-1.6,9.7
			C1317.8,438.2,1317.8,438.8,1317.8,439.4z"/>
		<path class="st3" d="M1373,424.2l-0.5,1.5h-5l-4.4,14.5c-1.5,4.8-2.2,7.5-2.2,8.3c0,0.5,0.1,0.9,0.3,1.2c0.2,0.3,0.6,0.4,1,0.4
			c0.8,0,1.8-0.8,3.1-2.3c1.3-1.5,2.4-3.4,3.5-5.7h1.5c-1.3,3.3-2.9,5.8-4.6,7.6c-1.7,1.7-3.3,2.6-4.8,2.6c-1.1,0-2-0.4-2.7-1.2
			c-0.7-0.8-1-1.8-1-3c0-1,0.7-3.8,2.1-8.3l4.3-14.1h-4.6l0.5-1.5h4.5l3.1-10.1h4l-3.1,10.1H1373z"/>
		<path class="st3" d="M1374.8,451.9h-4l11.7-38.3c0.7-2.2,1-3.4,1-3.8c0-0.5-0.1-0.9-0.4-1.1c-0.3-0.2-1-0.3-2.2-0.3h-1.1l0.4-1.4
			c3.5-0.1,6.1-0.5,7.8-1.2h0.8l-7.5,24.8c4-4.8,7.6-7.2,10.9-7.2c1.5,0,2.6,0.3,3.3,0.9c0.7,0.6,1.1,1.6,1.1,2.8c0,1-0.7,3.4-2,7.1
			l-2.9,8.3c-1.1,3.3-1.7,5.1-1.7,5.6c0,0.6,0.1,1,0.3,1.3c0.2,0.3,0.6,0.4,1,0.4c0.8,0,1.7-0.5,2.7-1.4c1-1,1.8-2.1,2.6-3.6h1.6
			c-1.1,2.3-2.5,4.1-4,5.4s-3,2.1-4.4,2.1c-1,0-1.9-0.4-2.6-1.1s-1.1-1.7-1.1-3c0-1.3,0.6-3.7,1.9-7.1l2.8-7.7c1.3-3.5,2-5.7,2-6.6
			c0-0.6-0.1-1-0.4-1.2c-0.3-0.3-0.8-0.4-1.4-0.4c-1,0-2.2,0.4-3.5,1.2c-1.3,0.8-2.8,2.2-4.2,4.1s-2.5,3.7-3.2,5.3
			c-0.7,1.7-1.6,4.3-2.6,7.9L1374.8,451.9z"/>
		<path class="st3" d="M1413.3,444.1h1.6c-1,2.1-2.4,4.1-4.1,5.7c-1.7,1.7-3.3,2.5-4.8,2.5c-1,0-2-0.4-2.7-1.1
			c-0.8-0.7-1.2-1.8-1.2-3.3c0-1.2,0.6-3.4,1.9-6.7l3.8-10.1c0.9-2.4,1.3-3.8,1.3-4.3c0-0.4-0.1-0.8-0.3-1c-0.2-0.2-0.5-0.3-0.9-0.3
			c-0.9,0-1.9,0.7-3.1,2c-1.2,1.3-2,2.6-2.5,3.6h-1.6c1.2-2.4,2.6-4.3,4.2-5.7s3-2.1,4.4-2.1c1,0,1.9,0.4,2.6,1.1
			c0.7,0.7,1,1.6,1,2.8c0,1.2-0.6,3.3-1.8,6.4l-3.2,8.6c-1.2,3.1-1.8,5.1-1.8,5.9c0,0.6,0.1,1.1,0.4,1.4c0.3,0.3,0.6,0.5,1.1,0.5
			C1409.1,450,1411.1,448,1413.3,444.1z M1410.8,408.6c0-0.8,0.3-1.5,0.8-2s1.2-0.8,2-0.8s1.5,0.3,2,0.8s0.8,1.2,0.8,2
			s-0.3,1.5-0.8,2.1c-0.6,0.6-1.2,0.9-2,0.9c-0.8,0-1.5-0.3-2.1-0.9C1411.1,410.1,1410.8,409.4,1410.8,408.6z"/>
		<path class="st3" d="M1441.6,445.2h1.7c-1.3,2.4-2.7,4.2-4.1,5.4c-1.4,1.2-2.8,1.8-4.2,1.8c-1,0-1.9-0.3-2.6-0.9
			c-0.7-0.6-1.1-1.5-1.1-2.7c0-1,0.5-3,1.5-5.9l3.6-10.1c1-2.8,1.4-4.6,1.4-5.4c0-0.7-0.2-1.3-0.5-1.6c-0.3-0.4-0.8-0.5-1.5-0.5
			c-1.7,0-3.9,2-6.6,5.9c-2.7,4-5,9.1-7,15.5l-1.6,5.3h-4.1l5.8-18.9c1.1-3.5,1.6-5.5,1.6-6c0-0.4-0.1-0.7-0.2-0.8
			c-0.1-0.2-0.3-0.3-0.6-0.3c-1.3,0-2.9,1.6-4.6,4.8h-1.5c2.8-5,5.4-7.5,7.9-7.5c0.9,0,1.5,0.3,1.9,0.8c0.4,0.5,0.6,1.3,0.6,2.4
			c0,1.9-0.7,4.8-2.2,8.8c4-8,7.9-12,11.7-12c1.2,0,2.3,0.4,3.2,1.2c0.9,0.8,1.4,2,1.4,3.5c0,1-0.5,2.9-1.4,5.6l-3.6,10.6
			c-1,2.9-1.4,4.4-1.4,4.8c0,0.4,0.1,0.7,0.3,0.9c0.2,0.2,0.5,0.3,0.9,0.3c0.8,0,1.6-0.4,2.4-1.3
			C1439.7,448.1,1440.6,446.8,1441.6,445.2z"/>
		<path class="st3" d="M1452.6,443.4c-1.4-0.8-2.5-1.8-3.2-3.1c-0.7-1.3-1.1-2.8-1.1-4.6c0-3.2,1.2-6.1,3.5-8.6
			c2.3-2.5,4.9-3.8,7.8-3.8c0.9,0,1.8,0.1,2.5,0.4c0.8,0.3,1.5,0.7,2.1,1.3c1.5-1.2,2.7-1.8,3.7-1.8c0.8,0,1.4,0.2,2,0.7
			c0.5,0.5,0.8,1,0.8,1.7c0,1.1-0.5,1.6-1.5,1.6c-0.6,0-1.1-0.4-1.7-1.1c-0.4-0.5-0.7-0.7-1.1-0.7c-0.4,0-0.8,0.3-1.2,0.8
			c0.9,1.5,1.3,3.2,1.3,5.2c0,3.8-1.1,6.9-3.4,9.1c-2.3,2.2-5,3.5-8.2,4c-4.8,0.6-7.2,1.9-7.2,3.9c0,0.6,0.3,1.1,0.8,1.5
			s1.7,0.8,3.5,1.2c3.1,0.7,5.6,1.3,7.5,1.9c1.9,0.6,3.4,1.4,4.3,2.4c0.9,1.1,1.4,2.3,1.4,3.8c0,2.3-1.2,4.2-3.5,5.9
			c-2.3,1.7-5.6,2.6-9.8,2.6c-4,0-7.1-0.7-9.4-2c-2.2-1.3-3.4-2.9-3.4-4.9c0-1.4,0.5-2.7,1.6-3.6c1.1-1,2-1.5,2.8-1.5
			c0.8,0,1.2,0.3,1.2,0.9c0,0.3-0.3,0.7-0.8,1.3c-0.9,1-1.4,1.9-1.4,2.9c0,1.4,0.7,2.7,2.2,3.8c1.5,1.1,3.7,1.7,6.7,1.7
			c3.2,0,5.7-0.6,7.4-1.7c1.7-1.1,2.5-2.4,2.5-3.9c0-1.2-0.6-2.1-1.8-2.9s-3.7-1.5-7.6-2.5c-3.4-0.8-5.5-1.6-6.3-2.5
			c-0.8-0.8-1.3-1.8-1.3-2.8c0-1.4,0.7-2.7,2.1-4C1448,444.8,1450,443.9,1452.6,443.4z M1451.9,438.7c0,1.2,0.3,2.2,1,3
			c0.7,0.8,1.6,1.1,2.6,1.1c1.2,0,2.3-0.5,3.3-1.5c1-1,1.9-2.8,2.8-5.4c0.9-2.6,1.4-4.9,1.4-6.7c0-1.5-0.3-2.7-0.8-3.4
			c-0.5-0.8-1.4-1.1-2.4-1.1c-1.9,0-3.7,1.6-5.4,4.8C1452.7,432.7,1451.9,435.8,1451.9,438.7z"/>
		<path class="st3" d="M1485.1,444.1c0,2.1-0.8,3.9-2.4,5.7c-1.6,1.7-3.9,2.6-7,2.6c-2.3,0-4-0.5-5.1-1.5c-1.1-1-1.7-2.1-1.7-3.2
			c0-0.6,0.2-1.2,0.5-1.6c0.3-0.4,0.8-0.7,1.3-0.7c1.2,0,1.8,0.6,1.8,1.9c0,0.3-0.1,0.7-0.2,1.2c-0.1,0.2-0.1,0.4-0.1,0.6
			c0,0.5,0.3,1,1,1.4c0.7,0.4,1.5,0.6,2.5,0.6c1.5,0,2.8-0.5,4.1-1.4c1.2-0.9,1.8-2.2,1.8-3.9c0-1.4-0.9-3.7-2.6-6.8
			c-2-3.6-3-6.2-3-7.9c0-2.1,0.8-3.9,2.5-5.4s3.6-2.2,5.7-2.2c1.6,0,2.9,0.4,4,1.2c1.1,0.8,1.7,1.6,1.7,2.6c0,1.2-0.5,1.8-1.5,1.8
			c-0.7,0-1.3-0.7-1.6-2c-0.4-1.4-1.3-2.2-2.9-2.2c-1.3,0-2.4,0.3-3.3,1c-0.9,0.7-1.4,1.6-1.4,2.7c0,1.5,0.7,3.6,2.2,6.2
			c1.4,2.4,2.3,4.2,2.8,5.5C1484.8,441.5,1485.1,442.8,1485.1,444.1z"/>
	</g>
</g>
<g>
	<g class="st0">
		<path class="st3" d="M1087.2,651.3h4l-5.9,19.5c-0.9,2.8-1.3,4.5-1.3,5.1c0,0.4,0.1,0.8,0.3,1s0.5,0.3,0.9,0.3
			c1.5,0,3.3-1.7,5.3-5.2h1.4c-0.9,2-2.1,3.8-3.7,5.4c-1.6,1.6-3.1,2.4-4.4,2.4c-1,0-1.8-0.4-2.4-1.2c-0.6-0.8-0.8-1.7-0.8-2.9
			c0-0.9,0.2-2.1,0.7-3.6c-1,1.7-2.4,3.4-4.3,5.1s-3.7,2.5-5.3,2.5c-1.6,0-2.9-0.7-4-2c-1.1-1.3-1.7-3.1-1.7-5.3
			c0-3,0.9-6.2,2.6-9.7c1.7-3.4,4-6.3,6.8-8.6c2.8-2.3,5.2-3.5,7.1-3.5c1.2,0,2.1,0.3,2.7,0.8c0.7,0.6,1.1,1.4,1.3,2.5L1087.2,651.3
			z M1069.8,673.6c0,1.5,0.2,2.6,0.7,3.3c0.4,0.7,1.1,1.1,2,1.1c1.5,0,3.2-1.1,5.3-3.2c2-2.1,3.8-5.4,5.3-9.9c1.5-4.4,2.3-7.4,2.3-9
			c0-0.9-0.2-1.7-0.7-2.4c-0.5-0.7-1.2-1-2-1c-2.7,0-5.5,2.7-8.4,8C1071.3,665.8,1069.8,670.2,1069.8,673.6z"/>
		<path class="st3" d="M1118.6,672.7h1.7c-1.3,2.4-2.7,4.2-4.1,5.4c-1.4,1.2-2.8,1.8-4.2,1.8c-1,0-1.9-0.3-2.6-0.9
			c-0.7-0.6-1.1-1.5-1.1-2.7c0-1,0.5-3,1.5-5.9l3.6-10.1c1-2.8,1.4-4.6,1.4-5.4c0-0.7-0.2-1.3-0.5-1.6c-0.3-0.4-0.8-0.5-1.5-0.5
			c-1.7,0-3.9,2-6.6,5.9c-2.7,4-5,9.1-7,15.5l-1.6,5.3h-4.1l5.8-18.9c1.1-3.5,1.6-5.5,1.6-6c0-0.4-0.1-0.7-0.2-0.8
			c-0.1-0.2-0.3-0.3-0.6-0.3c-1.3,0-2.9,1.6-4.6,4.8h-1.5c2.8-5,5.4-7.5,7.9-7.5c0.9,0,1.5,0.3,1.9,0.8c0.4,0.5,0.6,1.3,0.6,2.4
			c0,1.9-0.7,4.8-2.2,8.8c4-8,7.9-12,11.7-12c1.2,0,2.3,0.4,3.2,1.2c0.9,0.8,1.4,2,1.4,3.5c0,1-0.5,2.9-1.4,5.6l-3.6,10.6
			c-1,2.9-1.4,4.4-1.4,4.8c0,0.4,0.1,0.7,0.3,0.9c0.2,0.2,0.5,0.3,0.9,0.3c0.8,0,1.6-0.4,2.4-1.3
			C1116.7,675.6,1117.6,674.4,1118.6,672.7z"/>
		<path class="st3" d="M1146.9,672.9h1.6c-1,1.8-2.3,3.4-3.8,4.8c-1.5,1.4-2.9,2.1-4.2,2.1c-1.2,0-2.1-0.4-2.7-1.1s-0.9-1.8-0.9-3.2
			c0-0.6,0.1-1.2,0.2-1.8c-3.1,4-6.1,6-8.7,6c-1.5,0-2.8-0.6-3.9-1.8s-1.6-3-1.6-5.3c0-3.2,0.9-6.7,2.7-10.3c1.8-3.7,4-6.5,6.6-8.6
			c2.6-2,4.9-3,6.8-3c1,0,1.8,0.2,2.5,0.7s1.3,1.2,1.7,2.1l4.1-13.4c0.5-1.6,0.7-2.6,0.7-2.9c0-0.5-0.2-0.9-0.4-1.1
			c-0.3-0.2-1-0.3-2.2-0.3h-0.9l0.4-1.4c3.2,0,5.8-0.4,7.7-1.2h0.8l-10.6,35c-1.3,4.3-2,6.9-2,7.6c0,0.6,0.1,1,0.3,1.2
			c0.2,0.3,0.5,0.4,0.9,0.4c0.7,0,1.4-0.4,2.2-1.2C1145.1,675.6,1146,674.4,1146.9,672.9z M1126.9,674.3c0,1.2,0.2,2.2,0.6,2.8
			s1.1,0.9,1.9,0.9c1.5,0,3.2-1,5.1-3.1c1.9-2.1,3.7-5.5,5.4-10.2c1.6-4.7,2.5-7.8,2.5-9c0-0.8-0.3-1.6-0.8-2.2
			c-0.6-0.7-1.3-1-2.2-1c-1.4,0-3,0.8-4.5,2.5c-1.6,1.7-3.3,4.6-5.2,8.8C1127.8,668,1126.9,671.5,1126.9,674.3z"/>
		<path class="st3" d="M1183.9,669.5h1.3c-1.1,3.2-2.6,5.7-4.5,7.6c-1.9,1.9-4,2.8-6.1,2.8c-1.8,0-3.2-0.7-4.3-2s-1.6-3.2-1.6-5.7
			c0-2.9,0.7-6,2.2-9.3c1.5-3.4,3.5-6.2,6.2-8.5c2.7-2.3,5-3.5,7.1-3.5c1.2,0,2.2,0.4,3,1.1c0.8,0.8,1.2,1.7,1.2,2.7
			c0,1.6-0.6,2.4-1.9,2.4c-1.3,0-2-0.9-2-2.6c0-1.3-0.5-2-1.5-2c-1.2,0-2.7,1.1-4.3,3.4c-1.6,2.3-3,5.3-4.2,9.2
			c-1.2,3.8-1.8,6.7-1.8,8.7c0,1.3,0.3,2.3,1,3c0.6,0.8,1.4,1.1,2.3,1.1c1.3,0,2.7-0.8,4.3-2.3
			C1181.8,674.1,1183,672.1,1183.9,669.5z"/>
		<path class="st3" d="M1190.8,670.2c0-2.7,0.6-5.5,1.9-8.7c1.2-3.1,3-5.7,5.3-7.6c2.3-1.9,4.5-2.9,6.7-2.9c2,0,3.6,0.8,4.9,2.5
			c1.3,1.7,1.9,3.9,1.9,6.8c0,3.5-0.7,6.7-2.1,9.8c-1.4,3.1-3.2,5.5-5.3,7.1c-2.1,1.6-4.2,2.5-6.3,2.5c-1.8,0-3.4-0.7-4.8-2.1
			C1191.5,676.2,1190.8,673.7,1190.8,670.2z M1194.4,674c0,1.2,0.3,2.2,0.9,3.1c0.6,0.8,1.5,1.3,2.6,1.3c3,0,5.4-2.8,7.3-8.4
			c1.9-5.6,2.9-9.9,2.9-12.9c0-1.5-0.3-2.7-0.9-3.4c-0.6-0.8-1.5-1.1-2.6-1.1c-2.8,0-5.2,2.6-7.2,7.8
			C1195.4,665.5,1194.4,670.1,1194.4,674z"/>
		<path class="st3" d="M1227.8,671h1.5c-2.3,5.9-5.2,8.9-8.7,8.9c-1.2,0-2.2-0.4-2.9-1.2s-1.1-1.8-1.1-3c0-1.2,0.7-4.2,2.2-8.9
			l7.8-25.6c0.7-2.2,1-3.4,1-3.8c0-0.5-0.2-0.9-0.4-1.1c-0.3-0.2-1-0.3-2.2-0.3h-1.3l0.4-1.4c3.7-0.1,6.3-0.5,8.1-1.2h0.8
			l-10.7,35.2c-0.2,0.6-0.5,1.6-1,3c-0.6,1.9-1,3.4-1,4.4c0,0.7,0.1,1.2,0.4,1.5c0.3,0.3,0.6,0.5,1.1,0.5c0.8,0,1.7-0.5,2.8-1.6
			C1225.7,675.3,1226.8,673.5,1227.8,671z"/>
		<path class="st3" d="M1244.1,671h1.5c-2.3,5.9-5.2,8.9-8.7,8.9c-1.2,0-2.2-0.4-2.9-1.2s-1.1-1.8-1.1-3c0-1.2,0.7-4.2,2.2-8.9
			l7.8-25.6c0.7-2.2,1-3.4,1-3.8c0-0.5-0.2-0.9-0.4-1.1c-0.3-0.2-1-0.3-2.2-0.3h-1.3l0.4-1.4c3.7-0.1,6.3-0.5,8.1-1.2h0.8
			l-10.7,35.2c-0.2,0.6-0.5,1.6-1,3c-0.6,1.9-1,3.4-1,4.4c0,0.7,0.1,1.2,0.4,1.5c0.3,0.3,0.6,0.5,1.1,0.5c0.8,0,1.7-0.5,2.8-1.6
			C1242,675.3,1243.1,673.5,1244.1,671z"/>
		<path class="st3" d="M1269.2,651.3h4l-5.9,19.5c-0.9,2.8-1.3,4.5-1.3,5.1c0,0.4,0.1,0.8,0.3,1s0.5,0.3,0.9,0.3
			c1.5,0,3.3-1.7,5.3-5.2h1.4c-0.9,2-2.1,3.8-3.7,5.4c-1.6,1.6-3.1,2.4-4.4,2.4c-1,0-1.8-0.4-2.4-1.2c-0.6-0.8-0.8-1.7-0.8-2.9
			c0-0.9,0.2-2.1,0.7-3.6c-1,1.7-2.4,3.4-4.3,5.1s-3.7,2.5-5.3,2.5c-1.6,0-2.9-0.7-4-2c-1.1-1.3-1.7-3.1-1.7-5.3
			c0-3,0.9-6.2,2.6-9.7c1.7-3.4,4-6.3,6.8-8.6c2.8-2.3,5.2-3.5,7.1-3.5c1.2,0,2.1,0.3,2.7,0.8c0.7,0.6,1.1,1.4,1.3,2.5L1269.2,651.3
			z M1251.9,673.6c0,1.5,0.2,2.6,0.7,3.3c0.4,0.7,1.1,1.1,2,1.1c1.5,0,3.2-1.1,5.3-3.2c2-2.1,3.8-5.4,5.3-9.9c1.5-4.4,2.3-7.4,2.3-9
			c0-0.9-0.2-1.7-0.7-2.4c-0.5-0.7-1.2-1-2-1c-2.7,0-5.5,2.7-8.4,8C1253.3,665.8,1251.9,670.2,1251.9,673.6z"/>
		<path class="st3" d="M1285.8,657.4c2.9-4.4,5.8-6.5,8.5-6.5c1.9,0,3.4,0.8,4.5,2.4s1.5,3.4,1.5,5.3c0,2.6-0.7,5.7-2.1,9.1
			c-1.4,3.5-3.6,6.4-6.5,8.7s-5.6,3.5-8.2,3.5c-1.8,0-3.2-0.5-4.4-1.6c-1.2-1.1-1.8-2.5-1.8-4.3c0-1.2,0.5-3.3,1.4-6.5l8.1-26.6
			c0.6-2,0.9-3.2,0.9-3.6c0-0.5-0.1-0.9-0.4-1.1c-0.3-0.2-1-0.3-2.2-0.3h-1.1l0.4-1.4c3.5-0.1,6.1-0.5,7.8-1.2h0.8L1285.8,657.4z
			 M1280.8,675.3c0,1,0.2,1.8,0.7,2.3c0.5,0.5,1.2,0.8,2.1,0.8c3.2,0,6.1-2.7,8.8-8.2c2.7-5.4,4.1-9.8,4.1-13.2
			c0-1.3-0.3-2.4-0.8-3.2c-0.5-0.8-1.2-1.2-2.1-1.2c-1.4,0-3.1,1-5,3.1c-1.9,2-3.7,5.4-5.3,10.2
			C1281.7,670.6,1280.8,673.7,1280.8,675.3z"/>
		<path class="st3" d="M1304.9,670.2c0-2.7,0.6-5.5,1.9-8.7c1.2-3.1,3-5.7,5.3-7.6c2.3-1.9,4.5-2.9,6.7-2.9c2,0,3.6,0.8,4.9,2.5
			c1.3,1.7,1.9,3.9,1.9,6.8c0,3.5-0.7,6.7-2.1,9.8c-1.4,3.1-3.2,5.5-5.3,7.1c-2.1,1.6-4.2,2.5-6.3,2.5c-1.8,0-3.4-0.7-4.8-2.1
			C1305.6,676.2,1304.9,673.7,1304.9,670.2z M1308.4,674c0,1.2,0.3,2.2,0.9,3.1c0.6,0.8,1.5,1.3,2.6,1.3c3,0,5.4-2.8,7.3-8.4
			c1.9-5.6,2.9-9.9,2.9-12.9c0-1.5-0.3-2.7-0.9-3.4c-0.6-0.8-1.5-1.1-2.6-1.1c-2.8,0-5.2,2.6-7.2,7.8
			C1309.5,665.5,1308.4,670.1,1308.4,674z"/>
		<path class="st3" d="M1330.6,659.8h-1.5c0.9-2.5,2.1-4.6,3.5-6.3c1.4-1.7,2.8-2.6,4.2-2.6c1,0,1.7,0.4,2.1,1.1s0.7,1.9,0.7,3.5
			c0,1.9-0.5,4.7-1.5,8.2c0.1-0.2,0.5-1,1.1-2.4c1.6-3.7,3.1-6.4,4.3-8c1.2-1.6,2.5-2.5,3.7-2.5c0.8,0,1.4,0.2,1.9,0.7
			c0.5,0.5,0.7,1.1,0.7,1.8c0,0.7-0.2,1.2-0.6,1.6c-0.4,0.4-0.8,0.6-1.4,0.6c-0.6,0-1.2-0.4-1.8-1.1c-0.2-0.3-0.5-0.4-0.7-0.4
			c-1.1,0-2.8,2.7-5.1,8c-2.3,5.3-4.2,10.3-5.6,15l-0.7,2.4h-4l5.3-17.6c1-3.4,1.5-5.6,1.5-6.8c0-0.6-0.1-1.1-0.2-1.4
			c-0.2-0.3-0.4-0.5-0.7-0.5c-0.7,0-1.6,0.8-2.7,2.4C1331.8,657,1331,658.5,1330.6,659.8z"/>
		<path class="st3" d="M1369.8,651.3h4l-5.9,19.5c-0.9,2.8-1.3,4.5-1.3,5.1c0,0.4,0.1,0.8,0.3,1s0.5,0.3,0.9,0.3
			c1.5,0,3.3-1.7,5.3-5.2h1.4c-0.9,2-2.1,3.8-3.7,5.4s-3.1,2.4-4.4,2.4c-1,0-1.8-0.4-2.4-1.2c-0.6-0.8-0.8-1.7-0.8-2.9
			c0-0.9,0.2-2.1,0.7-3.6c-1,1.7-2.4,3.4-4.3,5.1s-3.7,2.5-5.3,2.5c-1.6,0-2.9-0.7-4-2c-1.1-1.3-1.7-3.1-1.7-5.3
			c0-3,0.9-6.2,2.6-9.7c1.7-3.4,4-6.3,6.8-8.6c2.8-2.3,5.2-3.5,7.1-3.5c1.2,0,2.1,0.3,2.7,0.8c0.7,0.6,1.1,1.4,1.3,2.5L1369.8,651.3
			z M1352.5,673.6c0,1.5,0.2,2.6,0.7,3.3c0.4,0.7,1.1,1.1,2,1.1c1.5,0,3.2-1.1,5.3-3.2c2-2.1,3.8-5.4,5.3-9.9c1.5-4.4,2.3-7.4,2.3-9
			c0-0.9-0.2-1.7-0.7-2.4c-0.5-0.7-1.2-1-2-1c-2.7,0-5.5,2.7-8.4,8C1353.9,665.8,1352.5,670.2,1352.5,673.6z"/>
		<path class="st3" d="M1393.6,651.7l-0.5,1.5h-5l-4.4,14.5c-1.5,4.8-2.2,7.5-2.2,8.3c0,0.5,0.1,0.9,0.3,1.2c0.2,0.3,0.6,0.4,1,0.4
			c0.8,0,1.8-0.8,3.1-2.3c1.3-1.5,2.4-3.4,3.5-5.7h1.5c-1.4,3.3-2.9,5.8-4.6,7.6s-3.3,2.6-4.8,2.6c-1.1,0-2-0.4-2.7-1.2s-1-1.8-1-3
			c0-1,0.7-3.8,2.1-8.3l4.3-14.1h-4.6l0.5-1.5h4.5l3.1-10.1h4l-3.1,10.1H1393.6z"/>
		<path class="st3" d="M1405.6,671.7h1.6c-1,2.1-2.4,4.1-4.1,5.7s-3.3,2.5-4.8,2.5c-1,0-2-0.4-2.7-1.1s-1.2-1.8-1.2-3.3
			c0-1.2,0.6-3.4,1.9-6.7l3.8-10.1c0.9-2.4,1.3-3.8,1.3-4.3c0-0.4-0.1-0.8-0.3-1c-0.2-0.2-0.5-0.3-0.9-0.3c-0.9,0-1.9,0.7-3.1,2
			c-1.2,1.3-2,2.6-2.5,3.6h-1.6c1.2-2.4,2.6-4.3,4.2-5.7s3-2.1,4.4-2.1c1,0,1.9,0.4,2.6,1.1c0.7,0.7,1,1.6,1,2.8
			c0,1.2-0.6,3.3-1.8,6.4l-3.2,8.6c-1.2,3.1-1.8,5.1-1.8,5.9c0,0.6,0.1,1.1,0.4,1.4c0.3,0.3,0.6,0.5,1.1,0.5
			C1401.4,677.5,1403.4,675.6,1405.6,671.7z M1403.1,636.2c0-0.8,0.3-1.5,0.8-2s1.2-0.8,2-0.8s1.5,0.3,2,0.8s0.8,1.2,0.8,2
			s-0.3,1.5-0.8,2.1c-0.6,0.6-1.2,0.9-2,0.9c-0.8,0-1.5-0.3-2.1-0.9C1403.4,637.6,1403.1,637,1403.1,636.2z"/>
		<path class="st3" d="M1410.7,656h-1.4c1-3.4,2.5-5.1,4.3-5.1c1,0,1.9,0.8,2.9,2.4c0.4,0.6,0.8,0.9,1.3,0.9c0.5,0,0.9-0.5,1.2-1.4
			c0.4-1.3,1-2,1.6-2c0.5,0,0.8,0.2,0.8,0.7c0,0.5-0.3,1.3-1,2.6c-2.7,5-4.5,8.8-5.5,11.5c-1,2.7-1.5,5.1-1.5,7.3
			c0,1.5,0.3,2.8,1,3.6c0.7,0.9,1.4,1.3,2.3,1.3c2.6,0,5.1-2,7.6-6.1c2.4-4,3.7-8,3.7-11.8c0-1.5-0.3-3-1-4.5
			c-0.4-0.9-0.6-1.7-0.6-2.4c0-1.5,0.6-2.3,1.7-2.3c0.7,0,1.2,0.4,1.6,1.2c0.4,0.8,0.6,1.8,0.6,3.2c0,2.9-0.6,6.6-1.9,10.8
			c-1.3,4.3-3.1,7.7-5.5,10.2c-2.4,2.5-4.9,3.7-7.6,3.7c-1.8,0-3.2-0.5-4.2-1.6s-1.6-2.6-1.6-4.5c0-2,0.5-4.2,1.6-6.6
			c1.1-2.4,2.9-5.5,5.5-9.3c0.4-0.6,0.8-1.2,1.1-1.8c0.3-0.5,0.5-0.8,0.6-1c-0.9,0.6-1.7,0.8-2.4,0.8c-0.7,0-1.4-0.3-1.9-0.8
			c-0.6-0.6-1.1-0.8-1.6-0.8C1411.7,654.3,1411.1,654.9,1410.7,656z"/>
		<path class="st3" d="M1449.2,670.5h1.6c-2.8,6.3-6.4,9.4-10.8,9.4c-1.8,0-3.3-0.6-4.4-1.9s-1.7-3-1.7-5.2c0-2.7,0.7-5.8,2.2-9.3
			s3.6-6.4,6.3-8.9c2.7-2.5,5.1-3.8,7.1-3.8c1.2,0,2.2,0.4,2.8,1.2c0.6,0.8,1,1.8,1,2.9c0,2.4-1.2,4.7-3.6,6.9
			c-2.4,2.2-6,4.3-10.8,6.4c-0.6,1.9-0.9,3.8-0.9,5.5c0,1.4,0.3,2.5,0.8,3.2c0.6,0.7,1.4,1.1,2.5,1.1
			C1444.2,677.9,1446.9,675.4,1449.2,670.5z M1439.3,666.5c2.9-1.3,5.4-3.1,7.7-5.3c2.3-2.3,3.4-4.3,3.4-6.1c0-0.8-0.2-1.5-0.5-1.9
			c-0.3-0.4-0.9-0.6-1.5-0.6c-1.3,0-2.9,1.3-4.7,3.9C1441.9,659,1440.4,662.4,1439.3,666.5z"/>
		<path class="st3" d="M1487.1,669.5h1.3c-1.1,3.2-2.6,5.7-4.5,7.6c-1.9,1.9-4,2.8-6.1,2.8c-1.8,0-3.2-0.7-4.3-2s-1.6-3.2-1.6-5.7
			c0-2.9,0.7-6,2.2-9.3c1.5-3.4,3.5-6.2,6.2-8.5s5-3.5,7.1-3.5c1.2,0,2.2,0.4,3,1.1c0.8,0.8,1.2,1.7,1.2,2.7c0,1.6-0.6,2.4-1.9,2.4
			c-1.3,0-2-0.9-2-2.6c0-1.3-0.5-2-1.5-2c-1.2,0-2.7,1.1-4.3,3.4c-1.6,2.3-3,5.3-4.2,9.2c-1.2,3.8-1.8,6.7-1.8,8.7
			c0,1.3,0.3,2.3,1,3c0.6,0.8,1.4,1.1,2.3,1.1c1.3,0,2.7-0.8,4.3-2.3C1485,674.1,1486.2,672.1,1487.1,669.5z"/>
		<path class="st3" d="M1494.9,659.8h-1.5c0.9-2.5,2.1-4.6,3.5-6.3c1.4-1.7,2.8-2.6,4.2-2.6c1,0,1.7,0.4,2.1,1.1s0.7,1.9,0.7,3.5
			c0,1.9-0.5,4.7-1.5,8.2c0.1-0.2,0.5-1,1.1-2.4c1.6-3.7,3.1-6.4,4.3-8c1.2-1.6,2.5-2.5,3.7-2.5c0.8,0,1.4,0.2,1.9,0.7
			c0.5,0.5,0.7,1.1,0.7,1.8c0,0.7-0.2,1.2-0.6,1.6c-0.4,0.4-0.8,0.6-1.4,0.6c-0.6,0-1.2-0.4-1.8-1.1c-0.2-0.3-0.5-0.4-0.7-0.4
			c-1.1,0-2.8,2.7-5.1,8c-2.3,5.3-4.2,10.3-5.6,15l-0.7,2.4h-4l5.3-17.6c1-3.4,1.5-5.6,1.5-6.8c0-0.6-0.1-1.1-0.2-1.4
			c-0.2-0.3-0.4-0.5-0.7-0.5c-0.7,0-1.6,0.8-2.7,2.4C1496.1,657,1495.3,658.5,1494.9,659.8z"/>
		<path class="st3" d="M1527.8,670.5h1.6c-2.8,6.3-6.4,9.4-10.8,9.4c-1.8,0-3.3-0.6-4.4-1.9s-1.7-3-1.7-5.2c0-2.7,0.7-5.8,2.2-9.3
			s3.6-6.4,6.3-8.9c2.7-2.5,5.1-3.8,7.1-3.8c1.2,0,2.2,0.4,2.8,1.2c0.6,0.8,1,1.8,1,2.9c0,2.4-1.2,4.7-3.6,6.9
			c-2.4,2.2-6,4.3-10.8,6.4c-0.6,1.9-0.9,3.8-0.9,5.5c0,1.4,0.3,2.5,0.8,3.2c0.6,0.7,1.4,1.1,2.5,1.1
			C1522.9,677.9,1525.5,675.4,1527.8,670.5z M1518,666.5c2.9-1.3,5.4-3.1,7.7-5.3c2.3-2.3,3.4-4.3,3.4-6.1c0-0.8-0.2-1.5-0.5-1.9
			c-0.3-0.4-0.9-0.6-1.5-0.6c-1.3,0-2.9,1.3-4.7,3.9C1520.5,659,1519.1,662.4,1518,666.5z"/>
		<path class="st3" d="M1554.7,651.3h4l-5.9,19.5c-0.9,2.8-1.3,4.5-1.3,5.1c0,0.4,0.1,0.8,0.3,1s0.5,0.3,0.9,0.3
			c1.5,0,3.3-1.7,5.3-5.2h1.4c-0.9,2-2.1,3.8-3.7,5.4s-3.1,2.4-4.4,2.4c-1,0-1.8-0.4-2.4-1.2c-0.6-0.8-0.8-1.7-0.8-2.9
			c0-0.9,0.2-2.1,0.7-3.6c-1,1.7-2.4,3.4-4.3,5.1s-3.7,2.5-5.3,2.5c-1.6,0-2.9-0.7-4-2s-1.7-3.1-1.7-5.3c0-3,0.9-6.2,2.6-9.7
			c1.7-3.4,4-6.3,6.8-8.6c2.8-2.3,5.2-3.5,7.1-3.5c1.2,0,2.1,0.3,2.7,0.8c0.7,0.6,1.1,1.4,1.3,2.5L1554.7,651.3z M1537.4,673.6
			c0,1.5,0.2,2.6,0.7,3.3c0.4,0.7,1.1,1.1,2,1.1c1.5,0,3.2-1.1,5.3-3.2c2-2.1,3.8-5.4,5.3-9.9c1.5-4.4,2.3-7.4,2.3-9
			c0-0.9-0.2-1.7-0.7-2.4c-0.5-0.7-1.2-1-2-1c-2.7,0-5.5,2.7-8.4,8C1538.8,665.8,1537.4,670.2,1537.4,673.6z"/>
		<path class="st3" d="M1578.5,651.7l-0.5,1.5h-5l-4.4,14.5c-1.5,4.8-2.2,7.5-2.2,8.3c0,0.5,0.1,0.9,0.3,1.2c0.2,0.3,0.6,0.4,1,0.4
			c0.8,0,1.8-0.8,3.1-2.3c1.3-1.5,2.4-3.4,3.5-5.7h1.5c-1.4,3.3-2.9,5.8-4.6,7.6s-3.3,2.6-4.8,2.6c-1.1,0-2-0.4-2.7-1.2s-1-1.8-1-3
			c0-1,0.7-3.8,2.1-8.3l4.3-14.1h-4.6l0.5-1.5h4.5l3.1-10.1h4l-3.1,10.1H1578.5z"/>
		<path class="st3" d="M1602.7,672.1h1.4c-1.9,5.2-4.4,7.8-7.6,7.8c-1.1,0-1.9-0.3-2.4-0.9s-0.8-1.5-0.8-2.7c0-1.7,0.6-4.4,1.8-8.1
			c-3.9,7.8-7.7,11.7-11.5,11.7c-1.4,0-2.5-0.4-3.3-1.3s-1.2-1.9-1.2-3.2c0-1.3,0.5-3.4,1.5-6.3l4.1-11.9c0.6-1.8,0.9-2.8,0.9-3.2
			c0-0.6-0.3-0.9-0.9-0.9c-1.4,0-2.9,1.9-4.6,5.6h-1.6c0.9-2.3,2-4.2,3.5-5.7c1.4-1.5,2.9-2.2,4.2-2.2c0.9,0,1.6,0.3,2.2,0.8
			c0.6,0.5,0.9,1.4,0.9,2.4c0,0.8-0.4,2.3-1.2,4.6l-4.2,12.3c-0.8,2.4-1.2,4-1.2,4.7c0,0.7,0.2,1.2,0.5,1.6c0.3,0.4,0.8,0.5,1.4,0.5
			c1.9,0,4.3-2.1,6.9-6.2c2.7-4.1,5.2-10.3,7.7-18.5l0.6-1.9h4l-5.8,19.1c-0.9,3.1-1.4,5-1.4,5.6c0,0.6,0.1,1,0.3,1.2
			c0.2,0.3,0.6,0.4,1,0.4C1599.6,677.6,1601.2,675.8,1602.7,672.1z"/>
		<path class="st3" d="M1608.3,659.8h-1.5c0.9-2.5,2.1-4.6,3.5-6.3c1.4-1.7,2.8-2.6,4.2-2.6c1,0,1.7,0.4,2.1,1.1s0.7,1.9,0.7,3.5
			c0,1.9-0.5,4.7-1.5,8.2c0.1-0.2,0.5-1,1.1-2.4c1.6-3.7,3.1-6.4,4.3-8c1.2-1.6,2.5-2.5,3.7-2.5c0.8,0,1.4,0.2,1.9,0.7
			c0.5,0.5,0.7,1.1,0.7,1.8c0,0.7-0.2,1.2-0.6,1.6c-0.4,0.4-0.8,0.6-1.4,0.6c-0.6,0-1.2-0.4-1.8-1.1c-0.2-0.3-0.5-0.4-0.7-0.4
			c-1.1,0-2.8,2.7-5.1,8c-2.3,5.3-4.2,10.3-5.6,15l-0.7,2.4h-4l5.3-17.6c1-3.4,1.5-5.6,1.5-6.8c0-0.6-0.1-1.1-0.2-1.4
			c-0.2-0.3-0.4-0.5-0.7-0.5c-0.7,0-1.6,0.8-2.7,2.4C1609.5,657,1608.7,658.5,1608.3,659.8z"/>
		<path class="st3" d="M1641.2,670.5h1.6c-2.8,6.3-6.4,9.4-10.8,9.4c-1.8,0-3.3-0.6-4.4-1.9s-1.7-3-1.7-5.2c0-2.7,0.7-5.8,2.2-9.3
			s3.6-6.4,6.3-8.9c2.7-2.5,5.1-3.8,7.1-3.8c1.2,0,2.2,0.4,2.8,1.2c0.6,0.8,1,1.8,1,2.9c0,2.4-1.2,4.7-3.6,6.9
			c-2.4,2.2-6,4.3-10.8,6.4c-0.6,1.9-0.9,3.8-0.9,5.5c0,1.4,0.3,2.5,0.8,3.2c0.6,0.7,1.4,1.1,2.5,1.1
			C1636.2,677.9,1638.9,675.4,1641.2,670.5z M1631.3,666.5c2.9-1.3,5.4-3.1,7.7-5.3c2.3-2.3,3.4-4.3,3.4-6.1c0-0.8-0.2-1.5-0.5-1.9
			c-0.3-0.4-0.9-0.6-1.5-0.6c-1.3,0-2.9,1.3-4.7,3.9C1633.9,659,1632.5,662.4,1631.3,666.5z"/>
		<path class="st3" d="M1661.6,671.6c0,2.1-0.8,3.9-2.4,5.7s-3.9,2.6-7,2.6c-2.3,0-4-0.5-5.1-1.5s-1.7-2.1-1.7-3.2
			c0-0.6,0.2-1.2,0.5-1.6c0.3-0.4,0.8-0.7,1.3-0.7c1.2,0,1.8,0.6,1.8,1.9c0,0.3-0.1,0.7-0.2,1.2c-0.1,0.2-0.1,0.4-0.1,0.6
			c0,0.5,0.3,1,1,1.4c0.7,0.4,1.5,0.6,2.5,0.6c1.5,0,2.8-0.5,4.1-1.4c1.2-0.9,1.8-2.2,1.8-3.9c0-1.4-0.9-3.7-2.6-6.8
			c-2-3.6-3-6.2-3-7.9c0-2.1,0.8-3.9,2.5-5.4c1.7-1.5,3.6-2.2,5.7-2.2c1.6,0,2.9,0.4,4,1.2s1.7,1.6,1.7,2.6c0,1.2-0.5,1.8-1.5,1.8
			c-0.7,0-1.3-0.7-1.6-2c-0.4-1.4-1.3-2.2-2.9-2.2c-1.3,0-2.4,0.3-3.3,1c-0.9,0.7-1.4,1.6-1.4,2.7c0,1.5,0.7,3.6,2.2,6.2
			c1.4,2.4,2.3,4.2,2.8,5.5S1661.6,670.3,1661.6,671.6z"/>
	</g>
</g>
<g>
	<g class="st0">
		<path class="st3" d="M415.5,649.5L415,651h-5l-4.4,14.5c-1.5,4.8-2.2,7.5-2.2,8.3c0,0.5,0.1,0.9,0.3,1.2c0.2,0.3,0.6,0.4,1,0.4
			c0.8,0,1.8-0.8,3.1-2.3c1.3-1.5,2.4-3.4,3.5-5.7h1.5c-1.4,3.3-2.9,5.8-4.6,7.6c-1.7,1.7-3.3,2.6-4.8,2.6c-1.1,0-2-0.4-2.7-1.2
			c-0.7-0.8-1-1.8-1-3c0-1,0.7-3.8,2.1-8.3l4.3-14.1h-4.6l0.5-1.5h4.5l3.1-10.1h4l-3.1,10.1H415.5z"/>
		<path class="st3" d="M415.4,668c0-2.7,0.6-5.5,1.9-8.7c1.2-3.1,3-5.7,5.3-7.6c2.3-1.9,4.5-2.9,6.7-2.9c2,0,3.6,0.8,4.9,2.5
			c1.3,1.7,1.9,3.9,1.9,6.8c0,3.5-0.7,6.7-2.1,9.8c-1.4,3.1-3.2,5.5-5.3,7.1c-2.1,1.6-4.2,2.5-6.3,2.5c-1.8,0-3.4-0.7-4.8-2.1
			C416,674,415.4,671.5,415.4,668z M418.9,671.8c0,1.2,0.3,2.2,0.9,3.1c0.6,0.8,1.5,1.3,2.6,1.3c3,0,5.4-2.8,7.3-8.4
			c1.9-5.6,2.9-9.9,2.9-12.9c0-1.5-0.3-2.7-0.9-3.4c-0.6-0.8-1.5-1.1-2.6-1.1c-2.8,0-5.2,2.6-7.2,7.8
			C419.9,663.3,418.9,667.9,418.9,671.8z"/>
		<path class="st3" d="M466.4,655.2c2.9-4.4,5.8-6.5,8.5-6.5c1.9,0,3.4,0.8,4.5,2.4s1.5,3.4,1.5,5.3c0,2.6-0.7,5.7-2.1,9.1
			c-1.4,3.5-3.6,6.4-6.5,8.7s-5.6,3.5-8.2,3.5c-1.7,0-3.2-0.5-4.4-1.6c-1.2-1.1-1.8-2.5-1.8-4.3c0-1.2,0.5-3.3,1.4-6.5l8.1-26.6
			c0.6-2,0.9-3.2,0.9-3.6c0-0.5-0.1-0.9-0.4-1.1c-0.3-0.2-1-0.3-2.2-0.3h-1.1l0.4-1.4c3.5-0.1,6.1-0.5,7.8-1.2h0.8L466.4,655.2z
			 M461.4,673.1c0,1,0.2,1.8,0.7,2.3c0.5,0.5,1.2,0.8,2.1,0.8c3.2,0,6.1-2.7,8.8-8.2c2.7-5.4,4.1-9.8,4.1-13.2
			c0-1.3-0.3-2.4-0.8-3.2c-0.5-0.8-1.2-1.2-2.1-1.2c-1.4,0-3.1,1-5,3.1c-1.9,2-3.7,5.4-5.3,10.2
			C462.2,668.4,461.4,671.5,461.4,673.1z"/>
		<path class="st3" d="M500.1,668.3h1.6c-2.8,6.3-6.4,9.4-10.8,9.4c-1.8,0-3.3-0.6-4.4-1.9c-1.1-1.3-1.7-3-1.7-5.2
			c0-2.7,0.7-5.8,2.2-9.3c1.5-3.5,3.6-6.4,6.3-8.9c2.7-2.5,5.1-3.8,7.1-3.8c1.2,0,2.2,0.4,2.8,1.2c0.6,0.8,1,1.8,1,2.9
			c0,2.4-1.2,4.7-3.6,6.9c-2.4,2.2-6,4.3-10.8,6.4c-0.6,1.9-0.9,3.8-0.9,5.5c0,1.4,0.3,2.5,0.8,3.2c0.6,0.7,1.4,1.1,2.5,1.1
			C495.2,675.7,497.8,673.2,500.1,668.3z M490.3,664.3c2.9-1.3,5.4-3.1,7.7-5.3c2.3-2.3,3.4-4.3,3.4-6.1c0-0.8-0.2-1.5-0.5-1.9
			c-0.3-0.4-0.9-0.6-1.5-0.6c-1.3,0-2.9,1.3-4.7,3.9C492.8,656.8,491.4,660.2,490.3,664.3z"/>
		<path class="st3" d="M546.4,670.7h1.6c-1,1.8-2.3,3.4-3.8,4.8c-1.5,1.4-2.9,2.1-4.2,2.1c-1.2,0-2.1-0.4-2.7-1.1s-0.9-1.8-0.9-3.2
			c0-0.6,0.1-1.2,0.2-1.8c-3.1,4-6.1,6-8.7,6c-1.5,0-2.8-0.6-3.9-1.8s-1.6-3-1.6-5.3c0-3.2,0.9-6.7,2.7-10.3c1.8-3.7,4-6.5,6.6-8.6
			c2.6-2,4.9-3,6.8-3c1,0,1.8,0.2,2.5,0.7s1.3,1.2,1.7,2.1l4.1-13.4c0.5-1.6,0.7-2.6,0.7-2.9c0-0.5-0.1-0.9-0.4-1.1
			c-0.3-0.2-1-0.3-2.2-0.3H544l0.4-1.4c3.2,0,5.8-0.4,7.7-1.2h0.8l-10.6,35c-1.3,4.3-2,6.9-2,7.6c0,0.6,0.1,1,0.3,1.2
			c0.2,0.3,0.5,0.4,0.9,0.4c0.7,0,1.4-0.4,2.2-1.2C544.6,673.4,545.5,672.2,546.4,670.7z M526.4,672.1c0,1.2,0.2,2.2,0.6,2.8
			s1.1,0.9,1.9,0.9c1.5,0,3.2-1,5.1-3.1c1.9-2.1,3.7-5.5,5.4-10.2c1.6-4.7,2.5-7.8,2.5-9c0-0.8-0.3-1.6-0.8-2.2
			c-0.6-0.7-1.3-1-2.2-1c-1.4,0-2.9,0.8-4.5,2.5c-1.6,1.7-3.3,4.6-5.2,8.8C527.3,665.8,526.4,669.3,526.4,672.1z"/>
		<path class="st3" d="M563.4,669.5h1.6c-1,2.1-2.4,4.1-4.1,5.7c-1.7,1.7-3.3,2.5-4.8,2.5c-1,0-2-0.4-2.7-1.1
			c-0.8-0.7-1.2-1.8-1.2-3.3c0-1.2,0.6-3.4,1.9-6.7l3.8-10.1c0.9-2.4,1.3-3.8,1.3-4.3c0-0.4-0.1-0.8-0.3-1c-0.2-0.2-0.5-0.3-0.9-0.3
			c-0.9,0-1.9,0.7-3.1,2c-1.2,1.3-2,2.6-2.5,3.6h-1.6c1.2-2.4,2.6-4.3,4.2-5.7s3-2.1,4.4-2.1c1,0,1.9,0.4,2.6,1.1
			c0.7,0.7,1,1.6,1,2.8c0,1.2-0.6,3.3-1.8,6.4l-3.2,8.6c-1.2,3.1-1.8,5.1-1.8,5.9c0,0.6,0.1,1.1,0.4,1.4c0.3,0.3,0.6,0.5,1.1,0.5
			C559.3,675.3,561.2,673.4,563.4,669.5z M561,634c0-0.8,0.3-1.5,0.8-2s1.2-0.8,2-0.8s1.5,0.3,2,0.8s0.8,1.2,0.8,2s-0.3,1.5-0.8,2.1
			c-0.6,0.6-1.2,0.9-2,0.9c-0.8,0-1.5-0.3-2.1-0.9C561.3,635.4,561,634.8,561,634z"/>
		<path class="st3" d="M585.9,649.5l-0.4,1.5h-5.8l-5.1,19.4c-2.3,8.8-4.9,14.7-7.7,17.7c-2.8,3-5.9,4.5-9.2,4.5
			c-1.9,0-3.5-0.4-5-1.3s-2.2-1.9-2.2-3.2c0-0.7,0.2-1.3,0.7-1.8s1-0.7,1.6-0.7c0.7,0,1.3,0.3,1.8,0.8c0.4,0.5,0.7,1.1,0.7,1.7
			c0,0.2,0,0.4-0.1,0.8l-0.1,0.6c0,0.4,0.3,0.8,0.8,1.2c0.5,0.4,1.2,0.5,1.9,0.5c2.7,0,4.9-1.4,6.7-4.2c1.8-2.8,3.9-8.5,6.2-17
			l5.1-18.9H569l0.4-1.5h6.6c0.1-0.3,0.2-0.9,0.5-1.9c3-11,7.8-16.5,14.5-16.5c1.9,0,3.4,0.4,4.4,1.3c1,0.8,1.5,1.7,1.5,2.5
			c0,1.2-0.6,1.8-1.7,1.8c-0.9,0-1.8-0.8-2.8-2.3c-0.7-1.1-1.6-1.7-2.6-1.7c-1.5,0-2.9,0.7-4.3,2.1c-1.4,1.4-2.9,5.1-4.5,11.3
			l-1,3.6H585.9z"/>
		<path class="st3" d="M604.1,649.5l-0.4,1.5h-5.8l-5.1,19.4c-2.3,8.8-4.9,14.7-7.7,17.7c-2.8,3-5.9,4.5-9.2,4.5
			c-1.9,0-3.5-0.4-5-1.3s-2.2-1.9-2.2-3.2c0-0.7,0.2-1.3,0.7-1.8s1-0.7,1.6-0.7c0.7,0,1.3,0.3,1.8,0.8c0.4,0.5,0.7,1.1,0.7,1.7
			c0,0.2,0,0.4-0.1,0.8l-0.1,0.6c0,0.4,0.3,0.8,0.8,1.2c0.5,0.4,1.2,0.5,1.9,0.5c2.7,0,4.9-1.4,6.7-4.2c1.8-2.8,3.9-8.5,6.2-17
			l5.1-18.9h-6.5l0.4-1.5h6.6c0.1-0.3,0.2-0.9,0.5-1.9c3-11,7.8-16.5,14.5-16.5c1.9,0,3.4,0.4,4.4,1.3c1,0.8,1.5,1.7,1.5,2.5
			c0,1.2-0.6,1.8-1.7,1.8c-0.9,0-1.8-0.8-2.8-2.3c-0.7-1.1-1.6-1.7-2.6-1.7c-1.5,0-2.9,0.7-4.3,2.1c-1.4,1.4-2.9,5.1-4.5,11.3
			l-1,3.6H604.1z"/>
		<path class="st3" d="M616.9,668.3h1.6c-2.8,6.3-6.4,9.4-10.8,9.4c-1.8,0-3.3-0.6-4.4-1.9c-1.1-1.3-1.7-3-1.7-5.2
			c0-2.7,0.7-5.8,2.2-9.3c1.5-3.5,3.6-6.4,6.3-8.9c2.7-2.5,5.1-3.8,7.1-3.8c1.2,0,2.2,0.4,2.8,1.2c0.6,0.8,1,1.8,1,2.9
			c0,2.4-1.2,4.7-3.6,6.9c-2.4,2.2-6,4.3-10.8,6.4c-0.6,1.9-0.9,3.8-0.9,5.5c0,1.4,0.3,2.5,0.8,3.2c0.6,0.7,1.4,1.1,2.5,1.1
			C611.9,675.7,614.6,673.2,616.9,668.3z M607,664.3c2.9-1.3,5.4-3.1,7.7-5.3c2.3-2.3,3.4-4.3,3.4-6.1c0-0.8-0.2-1.5-0.5-1.9
			c-0.3-0.4-0.9-0.6-1.5-0.6c-1.3,0-2.9,1.3-4.7,3.9C609.6,656.8,608.1,660.2,607,664.3z"/>
		<path class="st3" d="M623.6,657.6h-1.5c0.9-2.5,2.1-4.6,3.5-6.3c1.4-1.7,2.8-2.6,4.2-2.6c1,0,1.7,0.4,2.1,1.1s0.7,1.9,0.7,3.5
			c0,1.9-0.5,4.7-1.5,8.2c0.1-0.2,0.5-1,1.1-2.4c1.6-3.7,3.1-6.4,4.3-8c1.2-1.6,2.5-2.5,3.7-2.5c0.8,0,1.4,0.2,1.9,0.7
			c0.5,0.5,0.7,1.1,0.7,1.8c0,0.7-0.2,1.2-0.6,1.6c-0.4,0.4-0.8,0.6-1.4,0.6c-0.6,0-1.2-0.4-1.8-1.1c-0.2-0.3-0.5-0.4-0.7-0.4
			c-1.1,0-2.8,2.7-5.1,8c-2.3,5.3-4.2,10.3-5.6,15l-0.7,2.4h-4l5.3-17.6c1-3.4,1.5-5.6,1.5-6.8c0-0.6-0.1-1.1-0.2-1.4
			c-0.2-0.3-0.4-0.5-0.7-0.5c-0.7,0-1.6,0.8-2.7,2.4C624.9,654.8,624.1,656.3,623.6,657.6z"/>
		<path class="st3" d="M656.6,668.3h1.6c-2.8,6.3-6.4,9.4-10.8,9.4c-1.8,0-3.3-0.6-4.4-1.9c-1.1-1.3-1.7-3-1.7-5.2
			c0-2.7,0.7-5.8,2.2-9.3c1.5-3.5,3.6-6.4,6.3-8.9c2.7-2.5,5.1-3.8,7.1-3.8c1.2,0,2.2,0.4,2.8,1.2c0.6,0.8,1,1.8,1,2.9
			c0,2.4-1.2,4.7-3.6,6.9c-2.4,2.2-6,4.3-10.8,6.4c-0.6,1.9-0.9,3.8-0.9,5.5c0,1.4,0.3,2.5,0.8,3.2c0.6,0.7,1.4,1.1,2.5,1.1
			C651.6,675.7,654.3,673.2,656.6,668.3z M646.7,664.3c2.9-1.3,5.4-3.1,7.7-5.3c2.3-2.3,3.4-4.3,3.4-6.1c0-0.8-0.2-1.5-0.5-1.9
			c-0.3-0.4-0.9-0.6-1.5-0.6c-1.3,0-2.9,1.3-4.7,3.9C649.3,656.8,647.8,660.2,646.7,664.3z"/>
		<path class="st3" d="M686.6,670.5h1.7c-1.3,2.4-2.7,4.2-4.1,5.4c-1.4,1.2-2.8,1.8-4.2,1.8c-1,0-1.9-0.3-2.6-0.9
			c-0.7-0.6-1.1-1.5-1.1-2.7c0-1,0.5-3,1.5-5.9l3.6-10.1c1-2.8,1.4-4.6,1.4-5.4c0-0.7-0.2-1.3-0.5-1.6c-0.3-0.4-0.8-0.5-1.5-0.5
			c-1.7,0-3.9,2-6.6,5.9c-2.7,4-5,9.1-7,15.5l-1.6,5.3h-4.1l5.8-18.9c1.1-3.5,1.6-5.5,1.6-6c0-0.4-0.1-0.7-0.2-0.8
			c-0.1-0.2-0.3-0.3-0.6-0.3c-1.3,0-2.9,1.6-4.6,4.8H662c2.8-5,5.4-7.5,7.9-7.5c0.9,0,1.5,0.3,1.9,0.8c0.4,0.5,0.6,1.3,0.6,2.4
			c0,1.9-0.7,4.8-2.2,8.8c4-8,7.9-12,11.7-12c1.2,0,2.3,0.4,3.2,1.2c0.9,0.8,1.4,2,1.4,3.5c0,1-0.5,2.9-1.4,5.6l-3.6,10.6
			c-1,2.9-1.4,4.4-1.4,4.8c0,0.4,0.1,0.7,0.3,0.9c0.2,0.2,0.5,0.3,0.9,0.3c0.8,0,1.6-0.4,2.4-1.3
			C684.7,673.4,685.6,672.2,686.6,670.5z"/>
		<path class="st3" d="M708,649.5l-0.5,1.5h-5l-4.4,14.5c-1.5,4.8-2.2,7.5-2.2,8.3c0,0.5,0.1,0.9,0.3,1.2c0.2,0.3,0.6,0.4,1,0.4
			c0.8,0,1.8-0.8,3.1-2.3c1.3-1.5,2.4-3.4,3.5-5.7h1.5c-1.4,3.3-2.9,5.8-4.6,7.6c-1.7,1.7-3.3,2.6-4.8,2.6c-1.1,0-2-0.4-2.7-1.2
			c-0.7-0.8-1-1.8-1-3c0-1,0.7-3.8,2.1-8.3l4.3-14.1H694l0.5-1.5h4.5l3.1-10.1h4l-3.1,10.1H708z"/>
	</g>
</g>
<g>
	<g class="st0">
		<path class="st3" d="M1262.8,961.1l-0.5,1.5h-5l-4.4,14.5c-1.5,4.8-2.2,7.5-2.2,8.3c0,0.5,0.1,0.9,0.3,1.2c0.2,0.3,0.6,0.4,1,0.4
			c0.8,0,1.8-0.8,3.1-2.3c1.3-1.5,2.4-3.4,3.5-5.7h1.5c-1.3,3.3-2.9,5.8-4.6,7.6c-1.7,1.7-3.3,2.6-4.8,2.6c-1.1,0-2-0.4-2.7-1.2
			c-0.7-0.8-1-1.8-1-3c0-1,0.7-3.8,2.1-8.3l4.3-14.1h-4.6l0.5-1.5h4.5l3.1-10.1h4l-3.1,10.1H1262.8z"/>
		<path class="st3" d="M1277.3,979.8h1.6c-2.8,6.3-6.4,9.4-10.8,9.4c-1.8,0-3.3-0.6-4.4-1.9c-1.1-1.3-1.7-3-1.7-5.2
			c0-2.7,0.7-5.8,2.2-9.3c1.5-3.5,3.6-6.4,6.3-8.9c2.7-2.5,5.1-3.8,7.1-3.8c1.2,0,2.2,0.4,2.8,1.2c0.6,0.8,1,1.8,1,2.9
			c0,2.4-1.2,4.7-3.6,6.9c-2.4,2.2-6,4.3-10.8,6.4c-0.6,1.9-0.9,3.8-0.9,5.5c0,1.4,0.3,2.5,0.8,3.2c0.6,0.7,1.4,1.1,2.5,1.1
			C1272.4,987.3,1275,984.8,1277.3,979.8z M1267.5,975.9c2.9-1.3,5.4-3.1,7.7-5.3c2.3-2.3,3.4-4.3,3.4-6.1c0-0.8-0.2-1.5-0.5-1.9
			c-0.3-0.4-0.9-0.6-1.5-0.6c-1.3,0-2.9,1.3-4.7,3.9C1270,968.4,1268.6,971.7,1267.5,975.9z"/>
		<path class="st3" d="M1304.2,960.7h4l-5.9,19.5c-0.9,2.8-1.3,4.5-1.3,5.1c0,0.4,0.1,0.8,0.3,1s0.5,0.3,0.9,0.3
			c1.5,0,3.3-1.7,5.3-5.2h1.4c-0.9,2-2.1,3.8-3.7,5.4c-1.6,1.6-3.1,2.4-4.4,2.4c-1,0-1.8-0.4-2.4-1.2c-0.6-0.8-0.8-1.7-0.8-2.9
			c0-0.9,0.2-2.1,0.7-3.6c-1,1.7-2.4,3.4-4.3,5.1s-3.7,2.5-5.3,2.5c-1.5,0-2.9-0.7-4-2c-1.1-1.3-1.7-3.1-1.7-5.3
			c0-3,0.9-6.2,2.6-9.7c1.7-3.4,4-6.3,6.8-8.6c2.8-2.3,5.2-3.5,7.1-3.5c1.2,0,2.1,0.3,2.7,0.8c0.7,0.6,1.1,1.4,1.3,2.5L1304.2,960.7
			z M1286.9,982.9c0,1.5,0.2,2.6,0.7,3.3c0.4,0.7,1.1,1.1,2,1.1c1.5,0,3.2-1.1,5.3-3.2c2-2.1,3.8-5.4,5.3-9.9c1.5-4.4,2.3-7.4,2.3-9
			c0-0.9-0.2-1.7-0.7-2.4c-0.5-0.7-1.2-1-2-1c-2.7,0-5.5,2.7-8.4,8C1288.3,975.2,1286.9,979.6,1286.9,982.9z"/>
		<path class="st3" d="M1350.2,982h1.4c-1,2.1-2.2,3.8-3.7,5.1c-1.5,1.4-3,2.1-4.4,2.1c-1,0-1.8-0.3-2.5-1c-0.7-0.7-1.1-1.7-1.1-2.9
			c0-1.1,0.5-3.3,1.6-6.4l3.1-9c0.9-2.7,1.4-4.4,1.4-5.1c0-0.7-0.1-1.3-0.4-1.6s-0.7-0.5-1.3-0.5c-1.9,0-4.1,1.6-6.7,4.7
			c-2.6,3.2-5.3,9.4-8.1,18.6l-0.9,2.9h-4l5.4-17.8c0.9-3.1,1.4-5.2,1.4-6.3c0-0.7-0.1-1.2-0.4-1.5c-0.3-0.3-0.6-0.5-1.2-0.5
			c-1.5,0-3.6,1.6-6.3,4.9c-2.6,3.3-5.3,9.2-7.9,17.9l-1,3.3h-4l6.1-19.9c0.8-2.7,1.2-4.3,1.2-4.8c0-0.4-0.1-0.6-0.2-0.8
			c-0.1-0.2-0.3-0.3-0.6-0.3c-0.6,0-1.3,0.5-2.3,1.4s-1.9,2.3-2.9,4h-1.5c1.1-2.2,2.4-4.1,3.9-5.5c1.5-1.4,2.9-2.2,4.1-2.2
			c0.9,0,1.5,0.3,2,0.9c0.5,0.6,0.7,1.4,0.7,2.3c0,1.6-0.7,4.3-2,8.2c1.5-3.1,3.3-5.8,5.5-8.1c2.2-2.3,4.2-3.4,6-3.4
			c1.3,0,2.2,0.4,2.9,1.1c0.6,0.7,0.9,1.9,0.9,3.3c0,1.8-0.5,4-1.4,6.6c1.9-3.9,3.9-6.7,6-8.4c2.1-1.7,4-2.6,5.7-2.6
			c1.3,0,2.4,0.4,3.2,1.3c0.9,0.9,1.3,2,1.3,3.5c0,0.9-0.1,1.7-0.2,2.2c-0.1,0.6-0.7,2.3-1.6,5.1l-2.6,7.5c-1.1,3-1.6,4.9-1.6,5.6
			c0,0.5,0.1,0.9,0.3,1.1c0.2,0.3,0.5,0.4,0.9,0.4c0.8,0,1.6-0.4,2.5-1.3C1348.2,985.1,1349.2,983.8,1350.2,982z"/>
		<path class="st3" d="M1348.9,1000.2v-1.3c3.7-0.5,6.4-1.7,8-3.7c1.6-1.9,2.5-3.6,2.5-4.9c0-1-0.4-1.5-1.3-1.5c-0.2,0-0.3,0-0.5,0
			c-0.4,0-0.7,0.1-0.9,0.1c-0.8,0-1.5-0.3-2.2-0.8c-0.7-0.6-1-1.4-1-2.4c0-1.2,0.3-2,1-2.7c0.7-0.6,1.5-1,2.5-1
			c1.4,0,2.5,0.6,3.3,1.7c0.8,1.1,1.2,2.6,1.2,4.4c0,2.9-1.1,5.6-3.4,8C1356,998.6,1352.9,999.9,1348.9,1000.2z"/>
		<path class="st3" d="M1426.7,982h1.4c-1,2.1-2.2,3.8-3.7,5.1c-1.5,1.4-3,2.1-4.4,2.1c-1,0-1.8-0.3-2.5-1c-0.7-0.7-1.1-1.7-1.1-2.9
			c0-1.1,0.5-3.3,1.6-6.4l3.1-9c0.9-2.7,1.4-4.4,1.4-5.1c0-0.7-0.1-1.3-0.4-1.6s-0.7-0.5-1.3-0.5c-1.9,0-4.1,1.6-6.7,4.7
			c-2.6,3.2-5.3,9.4-8.1,18.6l-0.9,2.9h-4l5.4-17.8c0.9-3.1,1.4-5.2,1.4-6.3c0-0.7-0.1-1.2-0.4-1.5c-0.3-0.3-0.6-0.5-1.2-0.5
			c-1.5,0-3.6,1.6-6.3,4.9c-2.6,3.3-5.3,9.2-7.9,17.9l-1,3.3h-4l6.1-19.9c0.8-2.7,1.2-4.3,1.2-4.8c0-0.4-0.1-0.6-0.2-0.8
			c-0.1-0.2-0.3-0.3-0.6-0.3c-0.6,0-1.3,0.5-2.3,1.4s-1.9,2.3-2.9,4h-1.5c1.1-2.2,2.4-4.1,3.9-5.5c1.5-1.4,2.9-2.2,4.1-2.2
			c0.9,0,1.5,0.3,2,0.9c0.5,0.6,0.7,1.4,0.7,2.3c0,1.6-0.7,4.3-2,8.2c1.5-3.1,3.3-5.8,5.5-8.1c2.2-2.3,4.2-3.4,6-3.4
			c1.3,0,2.2,0.4,2.9,1.1c0.6,0.7,0.9,1.9,0.9,3.3c0,1.8-0.5,4-1.4,6.6c1.9-3.9,3.9-6.7,6-8.4c2.1-1.7,4-2.6,5.7-2.6
			c1.3,0,2.4,0.4,3.2,1.3c0.9,0.9,1.3,2,1.3,3.5c0,0.9-0.1,1.7-0.2,2.2c-0.1,0.6-0.7,2.3-1.6,5.1l-2.6,7.5c-1.1,3-1.6,4.9-1.6,5.6
			c0,0.5,0.1,0.9,0.3,1.1c0.2,0.3,0.5,0.4,0.9,0.4c0.8,0,1.6-0.4,2.5-1.3C1424.7,985.1,1425.7,983.8,1426.7,982z"/>
		<path class="st3" d="M1452.3,960.7h4l-5.9,19.5c-0.9,2.8-1.3,4.5-1.3,5.1c0,0.4,0.1,0.8,0.3,1s0.5,0.3,0.9,0.3
			c1.5,0,3.3-1.7,5.3-5.2h1.4c-0.9,2-2.1,3.8-3.7,5.4c-1.6,1.6-3.1,2.4-4.4,2.4c-1,0-1.8-0.4-2.4-1.2c-0.6-0.8-0.8-1.7-0.8-2.9
			c0-0.9,0.2-2.1,0.7-3.6c-1,1.7-2.4,3.4-4.3,5.1s-3.7,2.5-5.3,2.5c-1.5,0-2.9-0.7-4-2c-1.1-1.3-1.7-3.1-1.7-5.3
			c0-3,0.9-6.2,2.6-9.7c1.7-3.4,4-6.3,6.8-8.6c2.8-2.3,5.2-3.5,7.1-3.5c1.2,0,2.1,0.3,2.7,0.8c0.7,0.6,1.1,1.4,1.3,2.5L1452.3,960.7
			z M1434.9,982.9c0,1.5,0.2,2.6,0.7,3.3c0.4,0.7,1.1,1.1,2,1.1c1.5,0,3.2-1.1,5.3-3.2c2-2.1,3.8-5.4,5.3-9.9c1.5-4.4,2.3-7.4,2.3-9
			c0-0.9-0.2-1.7-0.7-2.4c-0.5-0.7-1.2-1-2-1c-2.7,0-5.5,2.7-8.4,8C1436.3,975.2,1434.9,979.6,1434.9,982.9z"/>
		<path class="st3" d="M1483.7,982.1h1.7c-1.3,2.4-2.7,4.2-4.1,5.4c-1.4,1.2-2.8,1.8-4.2,1.8c-1,0-1.9-0.3-2.6-0.9
			c-0.7-0.6-1.1-1.5-1.1-2.7c0-1,0.5-3,1.5-5.9l3.6-10.1c1-2.8,1.4-4.6,1.4-5.4c0-0.7-0.2-1.3-0.5-1.6c-0.3-0.4-0.8-0.5-1.5-0.5
			c-1.7,0-3.9,2-6.6,5.9c-2.7,4-5,9.1-7,15.5l-1.6,5.3h-4.1l5.8-18.9c1.1-3.5,1.6-5.5,1.6-6c0-0.4-0.1-0.7-0.2-0.8
			c-0.1-0.2-0.3-0.3-0.6-0.3c-1.3,0-2.9,1.6-4.6,4.8h-1.5c2.8-5,5.4-7.5,7.9-7.5c0.9,0,1.5,0.3,1.9,0.8c0.4,0.5,0.6,1.3,0.6,2.4
			c0,1.9-0.7,4.8-2.2,8.8c4-8,7.9-12,11.7-12c1.2,0,2.3,0.4,3.2,1.2c0.9,0.8,1.4,2,1.4,3.5c0,1-0.5,2.9-1.4,5.6l-3.6,10.6
			c-1,2.9-1.4,4.4-1.4,4.8c0,0.4,0.1,0.7,0.3,0.9c0.2,0.2,0.5,0.3,0.9,0.3c0.8,0,1.6-0.4,2.4-1.3
			C1481.8,985,1482.7,983.8,1483.7,982.1z"/>
		<path class="st3" d="M1489.9,969.2h-1.4c0.3-3.1,1-5.4,2.1-6.9c1.1-1.4,2.3-2.1,3.6-2.1c1.6,0,2.9,1,3.9,3c1,2,1.5,5.1,1.5,9.1
			c0,5.3-0.6,10.2-1.8,14.6c2.2-2.4,4.3-5.4,6.4-9c2.1-3.7,3.1-6.8,3.1-9.3c0-1.2-0.4-2.4-1.1-3.6c-0.7-1.2-1.1-2.1-1.1-2.7
			c0-0.6,0.2-1.1,0.5-1.5c0.3-0.4,0.8-0.6,1.2-0.6c0.8,0,1.5,0.5,2,1.4c0.5,0.9,0.8,2.2,0.8,4c0,2.7-0.8,5.9-2.4,9.7
			s-4,7.6-7.2,11.4c-3.1,3.8-6.3,7.1-9.4,10.2c-3.1,3-5.8,5.1-8,6.3c-2.2,1.2-4.4,1.8-6.6,1.8c-2.8,0-4.2-0.8-4.2-2.4
			c0-0.7,0.3-1.2,0.9-1.6c0.6-0.4,1.2-0.6,1.9-0.6c0.5,0,1.3,0.1,2.4,0.4c1.4,0.4,2.6,0.6,3.5,0.6c1.3,0,2.6-0.4,3.9-1.1
			c1.3-0.7,2.8-2,4.7-3.9c1.9-1.8,3.2-3.4,3.9-4.8c0.8-1.4,1.4-3.9,2-7.4c0.6-3.5,0.9-7.3,0.9-11.4c0-3.1-0.3-5.5-0.9-7.2
			c-0.6-1.7-1.3-2.5-2.1-2.5C1491.3,963,1490.3,965.1,1489.9,969.2z"/>
		<path class="st3" d="M1531.3,965.3h-1.4c1-3.4,2.5-5.1,4.3-5.1c1,0,1.9,0.8,2.9,2.4c0.4,0.6,0.8,0.9,1.3,0.9
			c0.5,0,0.9-0.5,1.2-1.4c0.4-1.3,1-2,1.6-2c0.5,0,0.8,0.2,0.8,0.7c0,0.5-0.3,1.3-1,2.6c-2.7,5-4.5,8.8-5.5,11.5
			c-1,2.7-1.5,5.1-1.5,7.3c0,1.5,0.3,2.8,1,3.6c0.7,0.9,1.4,1.3,2.3,1.3c2.6,0,5.1-2,7.6-6.1c2.4-4,3.7-8,3.7-11.8
			c0-1.5-0.3-3-1-4.5c-0.4-0.9-0.6-1.7-0.6-2.4c0-1.5,0.6-2.3,1.7-2.3c0.7,0,1.2,0.4,1.6,1.2c0.4,0.8,0.6,1.8,0.6,3.2
			c0,2.9-0.6,6.6-1.9,10.8s-3.1,7.7-5.5,10.2s-4.9,3.7-7.6,3.7c-1.7,0-3.1-0.5-4.2-1.6c-1.1-1.1-1.6-2.6-1.6-4.5
			c0-2,0.5-4.2,1.6-6.6c1.1-2.4,2.9-5.5,5.5-9.3c0.4-0.6,0.8-1.2,1.1-1.8c0.3-0.5,0.5-0.8,0.6-1c-0.9,0.6-1.7,0.8-2.4,0.8
			c-0.7,0-1.4-0.3-1.9-0.8c-0.6-0.6-1.1-0.8-1.6-0.8C1532.3,963.7,1531.8,964.2,1531.3,965.3z"/>
		<path class="st3" d="M1555.2,979.6c0-2.7,0.6-5.5,1.9-8.7c1.2-3.1,3-5.7,5.3-7.6c2.3-1.9,4.5-2.9,6.7-2.9c2,0,3.6,0.8,4.9,2.5
			c1.3,1.7,1.9,3.9,1.9,6.8c0,3.5-0.7,6.7-2.1,9.8c-1.4,3.1-3.2,5.5-5.3,7.1c-2.1,1.6-4.2,2.5-6.3,2.5c-1.8,0-3.4-0.7-4.8-2.1
			C1555.9,985.5,1555.2,983.1,1555.2,979.6z M1558.7,983.4c0,1.2,0.3,2.2,0.9,3.1c0.6,0.8,1.5,1.3,2.6,1.3c3,0,5.4-2.8,7.3-8.4
			c1.9-5.6,2.9-9.9,2.9-12.9c0-1.5-0.3-2.7-0.9-3.4c-0.6-0.8-1.5-1.1-2.6-1.1c-2.8,0-5.2,2.6-7.2,7.8
			C1559.7,974.9,1558.7,979.4,1558.7,983.4z"/>
		<path class="st3" d="M1592.1,981h1.6c-1,2.1-2.4,4.1-4.1,5.7c-1.7,1.7-3.3,2.5-4.8,2.5c-1,0-2-0.4-2.7-1.1
			c-0.8-0.7-1.2-1.8-1.2-3.3c0-1.2,0.6-3.4,1.9-6.7l3.8-10.1c0.9-2.4,1.3-3.8,1.3-4.3c0-0.4-0.1-0.8-0.3-1c-0.2-0.2-0.5-0.3-0.9-0.3
			c-0.9,0-1.9,0.7-3.1,2c-1.2,1.3-2,2.6-2.5,3.6h-1.6c1.2-2.4,2.6-4.3,4.2-5.7s3-2.1,4.4-2.1c1,0,1.9,0.4,2.6,1.1
			c0.7,0.7,1,1.6,1,2.8c0,1.2-0.6,3.3-1.8,6.4l-3.2,8.6c-1.2,3.1-1.8,5.1-1.8,5.9c0,0.6,0.1,1.1,0.4,1.4c0.3,0.3,0.6,0.5,1.1,0.5
			C1587.9,986.9,1589.9,985,1592.1,981z M1589.6,945.5c0-0.8,0.3-1.5,0.8-2s1.2-0.8,2-0.8s1.5,0.3,2,0.8s0.8,1.2,0.8,2
			s-0.3,1.5-0.8,2.1c-0.6,0.6-1.2,0.9-2,0.9c-0.8,0-1.5-0.3-2.1-0.9C1589.9,947,1589.6,946.3,1589.6,945.5z"/>
		<path class="st3" d="M1611.3,978.9h1.3c-1.1,3.2-2.6,5.7-4.5,7.6c-1.9,1.9-4,2.8-6.1,2.8c-1.8,0-3.2-0.7-4.3-2s-1.6-3.2-1.6-5.7
			c0-2.9,0.7-6,2.2-9.3c1.5-3.4,3.5-6.2,6.2-8.5c2.7-2.3,5-3.5,7.1-3.5c1.2,0,2.2,0.4,3,1.1c0.8,0.8,1.2,1.7,1.2,2.7
			c0,1.6-0.6,2.4-1.9,2.4c-1.3,0-2-0.9-2-2.6c0-1.3-0.5-2-1.5-2c-1.2,0-2.7,1.1-4.3,3.4s-3,5.3-4.2,9.2s-1.8,6.7-1.8,8.7
			c0,1.3,0.3,2.3,1,3c0.6,0.8,1.4,1.1,2.3,1.1c1.3,0,2.7-0.8,4.3-2.3C1609.2,983.5,1610.4,981.5,1611.3,978.9z"/>
		<path class="st3" d="M1632.9,979.8h1.6c-2.8,6.3-6.4,9.4-10.8,9.4c-1.8,0-3.3-0.6-4.4-1.9c-1.1-1.3-1.7-3-1.7-5.2
			c0-2.7,0.7-5.8,2.2-9.3c1.5-3.5,3.6-6.4,6.3-8.9c2.7-2.5,5.1-3.8,7.1-3.8c1.2,0,2.2,0.4,2.8,1.2c0.6,0.8,1,1.8,1,2.9
			c0,2.4-1.2,4.7-3.6,6.9c-2.4,2.2-6,4.3-10.8,6.4c-0.6,1.9-0.9,3.8-0.9,5.5c0,1.4,0.3,2.5,0.8,3.2c0.6,0.7,1.4,1.1,2.5,1.1
			C1627.9,987.3,1630.6,984.8,1632.9,979.8z M1623,975.9c2.9-1.3,5.4-3.1,7.7-5.3s3.4-4.3,3.4-6.1c0-0.8-0.2-1.5-0.5-1.9
			c-0.3-0.4-0.9-0.6-1.5-0.6c-1.3,0-2.9,1.3-4.7,3.9C1625.6,968.4,1624.1,971.7,1623,975.9z"/>
		<path class="st3" d="M1653.2,981c0,2.1-0.8,3.9-2.4,5.7c-1.6,1.7-3.9,2.6-7,2.6c-2.3,0-4-0.5-5.1-1.5c-1.1-1-1.7-2.1-1.7-3.2
			c0-0.6,0.2-1.2,0.5-1.6c0.3-0.4,0.8-0.7,1.3-0.7c1.2,0,1.8,0.6,1.8,1.9c0,0.3-0.1,0.7-0.2,1.2c-0.1,0.2-0.1,0.4-0.1,0.6
			c0,0.5,0.3,1,1,1.4c0.7,0.4,1.5,0.6,2.5,0.6c1.5,0,2.8-0.5,4.1-1.4c1.2-0.9,1.8-2.2,1.8-3.9c0-1.4-0.9-3.7-2.6-6.8
			c-2-3.6-3-6.2-3-7.9c0-2.1,0.8-3.9,2.5-5.4s3.6-2.2,5.7-2.2c1.6,0,2.9,0.4,4,1.2c1.1,0.8,1.7,1.6,1.7,2.6c0,1.2-0.5,1.8-1.5,1.8
			c-0.7,0-1.3-0.7-1.6-2c-0.4-1.4-1.3-2.2-2.9-2.2c-1.3,0-2.4,0.3-3.3,1c-0.9,0.7-1.4,1.6-1.4,2.7c0,1.5,0.7,3.6,2.2,6.2
			c1.4,2.4,2.3,4.2,2.8,5.5C1653,978.4,1653.2,979.7,1653.2,981z"/>
	</g>
</g>
<g>
	<g class="st0">
		<path class="st3" d="M248.4,981.4h1.6c-1,2.1-2.4,4.1-4.1,5.7c-1.7,1.7-3.3,2.5-4.8,2.5c-1,0-2-0.4-2.7-1.1
			c-0.8-0.7-1.2-1.8-1.2-3.3c0-1.2,0.6-3.4,1.9-6.7l3.8-10.1c0.9-2.4,1.3-3.8,1.3-4.3c0-0.4-0.1-0.8-0.3-1c-0.2-0.2-0.5-0.3-0.9-0.3
			c-0.9,0-1.9,0.7-3.1,2c-1.2,1.3-2,2.6-2.5,3.6h-1.6c1.2-2.4,2.6-4.3,4.2-5.7s3-2.1,4.4-2.1c1,0,1.9,0.4,2.6,1.1
			c0.7,0.7,1,1.6,1,2.8c0,1.2-0.6,3.3-1.8,6.4l-3.2,8.6c-1.2,3.1-1.8,5.1-1.8,5.9c0,0.6,0.1,1.1,0.4,1.4c0.3,0.3,0.6,0.5,1.1,0.5
			C244.3,987.3,246.2,985.4,248.4,981.4z M245.9,945.9c0-0.8,0.3-1.5,0.8-2s1.2-0.8,2-0.8s1.5,0.3,2,0.8s0.8,1.2,0.8,2
			s-0.3,1.5-0.8,2.1c-0.6,0.6-1.2,0.9-2,0.9c-0.8,0-1.5-0.3-2.1-0.9C246.2,947.4,245.9,946.7,245.9,945.9z"/>
		<path class="st3" d="M276.7,982.5h1.7c-1.3,2.4-2.7,4.2-4.1,5.4c-1.4,1.2-2.8,1.8-4.2,1.8c-1,0-1.9-0.3-2.6-0.9
			c-0.7-0.6-1.1-1.5-1.1-2.7c0-1,0.5-3,1.5-5.9l3.6-10.1c1-2.8,1.4-4.6,1.4-5.4c0-0.7-0.2-1.3-0.5-1.6c-0.3-0.4-0.8-0.5-1.5-0.5
			c-1.7,0-3.9,2-6.6,5.9c-2.7,4-5,9.1-7,15.5l-1.6,5.3h-4.1l5.8-18.9c1.1-3.5,1.6-5.5,1.6-6c0-0.4-0.1-0.7-0.2-0.8
			c-0.1-0.2-0.3-0.3-0.6-0.3c-1.3,0-2.9,1.6-4.6,4.8h-1.5c2.8-5,5.4-7.5,7.9-7.5c0.9,0,1.5,0.3,1.9,0.8c0.4,0.5,0.6,1.3,0.6,2.4
			c0,1.9-0.7,4.8-2.2,8.8c4-8,7.9-12,11.7-12c1.2,0,2.3,0.4,3.2,1.2c0.9,0.8,1.4,2,1.4,3.5c0,1-0.5,2.9-1.4,5.6l-3.6,10.6
			c-1,2.9-1.4,4.4-1.4,4.8c0,0.4,0.1,0.7,0.3,0.9c0.2,0.2,0.5,0.3,0.9,0.3c0.8,0,1.6-0.4,2.4-1.3
			C274.8,985.4,275.7,984.1,276.7,982.5z"/>
		<path class="st3" d="M298.7,980c0-2.7,0.6-5.5,1.9-8.7c1.2-3.1,3-5.7,5.3-7.6c2.3-1.9,4.5-2.9,6.7-2.9c2,0,3.6,0.8,4.9,2.5
			c1.3,1.7,1.9,3.9,1.9,6.8c0,3.5-0.7,6.7-2.1,9.8c-1.4,3.1-3.2,5.5-5.3,7.1c-2.1,1.6-4.2,2.5-6.3,2.5c-1.8,0-3.4-0.7-4.8-2.1
			C299.4,985.9,298.7,983.5,298.7,980z M302.2,983.8c0,1.2,0.3,2.2,0.9,3.1c0.6,0.8,1.5,1.3,2.6,1.3c3,0,5.4-2.8,7.3-8.4
			c1.9-5.6,2.9-9.9,2.9-12.9c0-1.5-0.3-2.7-0.9-3.4c-0.6-0.8-1.5-1.1-2.6-1.1c-2.8,0-5.2,2.6-7.2,7.8
			C303.2,975.2,302.2,979.8,302.2,983.8z"/>
		<path class="st3" d="M347.8,981.9h1.4c-1.9,5.2-4.4,7.8-7.6,7.8c-1.1,0-1.9-0.3-2.4-0.9c-0.5-0.6-0.8-1.5-0.8-2.7
			c0-1.7,0.6-4.4,1.8-8.1c-3.9,7.8-7.7,11.7-11.5,11.7c-1.4,0-2.5-0.4-3.3-1.3s-1.2-1.9-1.2-3.2c0-1.3,0.5-3.4,1.5-6.3l4.1-11.9
			c0.6-1.8,0.9-2.8,0.9-3.2c0-0.6-0.3-0.9-0.9-0.9c-1.4,0-2.9,1.9-4.6,5.6h-1.6c0.9-2.3,2-4.2,3.5-5.7c1.4-1.5,2.9-2.2,4.2-2.2
			c0.9,0,1.6,0.3,2.2,0.8c0.6,0.5,0.9,1.4,0.9,2.4c0,0.8-0.4,2.3-1.2,4.6l-4.2,12.3c-0.8,2.4-1.2,4-1.2,4.7c0,0.7,0.2,1.2,0.5,1.6
			c0.3,0.4,0.8,0.5,1.4,0.5c1.9,0,4.3-2.1,6.9-6.2c2.7-4.1,5.2-10.3,7.7-18.5l0.6-1.9h4l-5.8,19.1c-0.9,3.1-1.4,5-1.4,5.6
			c0,0.6,0.1,1,0.3,1.2c0.2,0.3,0.6,0.4,1,0.4C344.7,987.3,346.3,985.5,347.8,981.9z"/>
		<path class="st3" d="M353.4,969.6h-1.5c0.9-2.5,2.1-4.6,3.5-6.3c1.4-1.7,2.8-2.6,4.2-2.6c1,0,1.7,0.4,2.1,1.1s0.7,1.9,0.7,3.5
			c0,1.9-0.5,4.7-1.5,8.2c0.1-0.2,0.5-1,1.1-2.4c1.6-3.7,3.1-6.4,4.3-8c1.2-1.6,2.5-2.5,3.7-2.5c0.8,0,1.4,0.2,1.9,0.7
			c0.5,0.5,0.7,1.1,0.7,1.8c0,0.7-0.2,1.2-0.6,1.6c-0.4,0.4-0.8,0.6-1.4,0.6c-0.6,0-1.2-0.4-1.8-1.1c-0.2-0.3-0.5-0.4-0.7-0.4
			c-1.1,0-2.8,2.7-5.1,8c-2.3,5.3-4.2,10.3-5.6,15l-0.7,2.4h-4l5.3-17.6c1-3.4,1.5-5.6,1.5-6.8c0-0.6-0.1-1.1-0.2-1.4
			c-0.2-0.3-0.4-0.5-0.7-0.5c-0.7,0-1.6,0.8-2.7,2.4C354.6,966.8,353.9,968.2,353.4,969.6z"/>
		<path class="st3" d="M410.3,961.1h4l-5.9,19.5c-0.9,2.8-1.3,4.5-1.3,5.1c0,0.4,0.1,0.8,0.3,1s0.5,0.3,0.9,0.3
			c1.5,0,3.3-1.7,5.3-5.2h1.4c-0.9,2-2.1,3.8-3.7,5.4c-1.6,1.6-3.1,2.4-4.4,2.4c-1,0-1.8-0.4-2.4-1.2c-0.6-0.8-0.8-1.7-0.8-2.9
			c0-0.9,0.2-2.1,0.7-3.6c-1,1.7-2.4,3.4-4.3,5.1s-3.7,2.5-5.3,2.5c-1.5,0-2.9-0.7-4-2c-1.1-1.3-1.7-3.1-1.7-5.3
			c0-3,0.9-6.2,2.6-9.7c1.7-3.4,4-6.3,6.8-8.6c2.8-2.3,5.2-3.5,7.1-3.5c1.2,0,2.1,0.3,2.7,0.8c0.7,0.6,1.1,1.4,1.3,2.5L410.3,961.1z
			 M393,983.3c0,1.5,0.2,2.6,0.7,3.3c0.4,0.7,1.1,1.1,2,1.1c1.5,0,3.2-1.1,5.3-3.2c2-2.1,3.8-5.4,5.3-9.9c1.5-4.4,2.3-7.4,2.3-9
			c0-0.9-0.2-1.7-0.7-2.4c-0.5-0.7-1.2-1-2-1c-2.7,0-5.5,2.7-8.4,8C394.4,975.6,393,980,393,983.3z"/>
		<path class="st3" d="M418.7,975h-1.5l6.3-10.1c1.8-2.9,3-5,3.6-6.2c0.6-1.2,1.2-3.1,2-5.5l0.5-1.6h4l-2.3,7.4l-2.8,7.8
			c3-4.2,5.9-6.3,8.6-6.3c1.6,0,3,0.8,4.2,2.3c1.2,1.5,1.7,3.4,1.7,5.7c0,2.7-0.7,5.7-2.1,9.2c-1.4,3.5-3.3,6.3-5.8,8.5
			c-2.5,2.2-5,3.4-7.5,3.4c-2.4,0-3.9-1.1-4.5-3.4l-3.9,12.8c-0.5,1.6-0.7,2.6-0.7,2.9c0,0.4,0.2,0.7,0.5,1c0.3,0.3,1.3,0.4,2.8,0.4
			h1.5l-0.5,1.5h-13.9l0.5-1.5h0.7c1.9,0,3.1-0.1,3.5-0.4c0.4-0.3,1-1.6,1.7-4.2l6.9-22.8c1.5-4.8,3.1-9.6,5-14.6
			c-0.2,0.3-0.8,1.3-1.8,3c-0.1,0.2-0.5,0.7-1.1,1.7L418.7,975z M424.8,980.1c-0.6,2-0.9,3.4-0.9,4.2c0,1.1,0.3,2,0.9,2.8
			c0.6,0.8,1.4,1.1,2.5,1.1c1.6,0,3.3-0.9,5-2.8c1.7-1.8,3.2-4.9,4.6-9.2c1.4-4.3,2.1-7.5,2.1-9.7c0-1.4-0.2-2.5-0.7-3.2
			c-0.4-0.7-1.1-1.1-2-1.1c-1.2,0-2.8,0.9-4.8,2.6c-2,1.7-3.8,5.4-5.5,10.9L424.8,980.1z"/>
		<path class="st3" d="M447,975h-1.5l6.3-10.1c1.8-2.9,3-5,3.6-6.2c0.6-1.2,1.2-3.1,2-5.5l0.5-1.6h4l-2.3,7.4l-2.8,7.8
			c3-4.2,5.9-6.3,8.6-6.3c1.6,0,3,0.8,4.2,2.3c1.2,1.5,1.7,3.4,1.7,5.7c0,2.7-0.7,5.7-2.1,9.2c-1.4,3.5-3.3,6.3-5.8,8.5
			c-2.5,2.2-5,3.4-7.5,3.4c-2.4,0-3.9-1.1-4.5-3.4l-3.9,12.8c-0.5,1.6-0.7,2.6-0.7,2.9c0,0.4,0.2,0.7,0.5,1c0.3,0.3,1.3,0.4,2.8,0.4
			h1.5l-0.5,1.5h-13.9l0.5-1.5h0.7c1.9,0,3.1-0.1,3.5-0.4c0.4-0.3,1-1.6,1.7-4.2l6.9-22.8c1.5-4.8,3.1-9.6,5-14.6
			c-0.2,0.3-0.8,1.3-1.8,3c-0.1,0.2-0.5,0.7-1.1,1.7L447,975z M453.2,980.1c-0.6,2-0.9,3.4-0.9,4.2c0,1.1,0.3,2,0.9,2.8
			c0.6,0.8,1.4,1.1,2.5,1.1c1.6,0,3.3-0.9,5-2.8c1.7-1.8,3.2-4.9,4.6-9.2c1.4-4.3,2.1-7.5,2.1-9.7c0-1.4-0.2-2.5-0.7-3.2
			c-0.4-0.7-1.1-1.1-2-1.1c-1.2,0-2.8,0.9-4.8,2.6c-2,1.7-3.8,5.4-5.5,10.9L453.2,980.1z"/>
		<path class="st3" d="M475.8,969.6h-1.5c0.9-2.5,2.1-4.6,3.5-6.3c1.4-1.7,2.8-2.6,4.2-2.6c1,0,1.7,0.4,2.1,1.1s0.7,1.9,0.7,3.5
			c0,1.9-0.5,4.7-1.5,8.2c0.1-0.2,0.5-1,1.1-2.4c1.6-3.7,3.1-6.4,4.3-8c1.2-1.6,2.5-2.5,3.7-2.5c0.8,0,1.4,0.2,1.9,0.7
			c0.5,0.5,0.7,1.1,0.7,1.8c0,0.7-0.2,1.2-0.6,1.6c-0.4,0.4-0.8,0.6-1.4,0.6c-0.6,0-1.2-0.4-1.8-1.1c-0.2-0.3-0.5-0.4-0.7-0.4
			c-1.1,0-2.8,2.7-5.1,8c-2.3,5.3-4.2,10.3-5.6,15l-0.7,2.4h-4l5.3-17.6c1-3.4,1.5-5.6,1.5-6.8c0-0.6-0.1-1.1-0.2-1.4
			c-0.2-0.3-0.4-0.5-0.7-0.5c-0.7,0-1.6,0.8-2.7,2.4C477.1,966.8,476.3,968.2,475.8,969.6z"/>
		<path class="st3" d="M494.1,980c0-2.7,0.6-5.5,1.9-8.7c1.2-3.1,3-5.7,5.3-7.6c2.3-1.9,4.5-2.9,6.7-2.9c2,0,3.6,0.8,4.9,2.5
			c1.3,1.7,1.9,3.9,1.9,6.8c0,3.5-0.7,6.7-2.1,9.8c-1.4,3.1-3.2,5.5-5.3,7.1c-2.1,1.6-4.2,2.5-6.3,2.5c-1.8,0-3.4-0.7-4.8-2.1
			C494.8,985.9,494.1,983.5,494.1,980z M497.7,983.8c0,1.2,0.3,2.2,0.9,3.1c0.6,0.8,1.5,1.3,2.6,1.3c3,0,5.4-2.8,7.3-8.4
			c1.9-5.6,2.9-9.9,2.9-12.9c0-1.5-0.3-2.7-0.9-3.4c-0.6-0.8-1.5-1.1-2.6-1.1c-2.8,0-5.2,2.6-7.2,7.8
			C498.7,975.2,497.7,979.8,497.7,983.8z"/>
		<path class="st3" d="M539.9,961.1h4l-5.9,19.5c-0.9,2.8-1.3,4.5-1.3,5.1c0,0.4,0.1,0.8,0.3,1s0.5,0.3,0.9,0.3
			c1.5,0,3.3-1.7,5.3-5.2h1.4c-0.9,2-2.1,3.8-3.7,5.4c-1.6,1.6-3.1,2.4-4.4,2.4c-1,0-1.8-0.4-2.4-1.2c-0.6-0.8-0.8-1.7-0.8-2.9
			c0-0.9,0.2-2.1,0.7-3.6c-1,1.7-2.4,3.4-4.3,5.1s-3.7,2.5-5.3,2.5c-1.5,0-2.9-0.7-4-2c-1.1-1.3-1.7-3.1-1.7-5.3
			c0-3,0.9-6.2,2.6-9.7c1.7-3.4,4-6.3,6.8-8.6c2.8-2.3,5.2-3.5,7.1-3.5c1.2,0,2.1,0.3,2.7,0.8c0.7,0.6,1.1,1.4,1.3,2.5L539.9,961.1z
			 M522.6,983.3c0,1.5,0.2,2.6,0.7,3.3c0.4,0.7,1.1,1.1,2,1.1c1.5,0,3.2-1.1,5.3-3.2c2-2.1,3.8-5.4,5.3-9.9c1.5-4.4,2.3-7.4,2.3-9
			c0-0.9-0.2-1.7-0.7-2.4c-0.5-0.7-1.2-1-2-1c-2.7,0-5.5,2.7-8.4,8C524,975.6,522.6,980,522.6,983.3z"/>
		<path class="st3" d="M562.3,979.3h1.3c-1.1,3.2-2.6,5.7-4.5,7.6c-1.9,1.9-4,2.8-6.1,2.8c-1.8,0-3.2-0.7-4.3-2s-1.6-3.2-1.6-5.7
			c0-2.9,0.7-6,2.2-9.3c1.5-3.4,3.5-6.2,6.2-8.5c2.7-2.3,5-3.5,7.1-3.5c1.2,0,2.2,0.4,3,1.1c0.8,0.8,1.2,1.7,1.2,2.7
			c0,1.6-0.6,2.4-1.9,2.4c-1.3,0-2-0.9-2-2.6c0-1.3-0.5-2-1.5-2c-1.2,0-2.7,1.1-4.3,3.4c-1.6,2.3-3,5.3-4.2,9.2
			c-1.2,3.8-1.8,6.7-1.8,8.7c0,1.3,0.3,2.3,1,3c0.6,0.8,1.4,1.1,2.3,1.1c1.3,0,2.7-0.8,4.3-2.3C560.1,983.9,561.4,981.8,562.3,979.3
			z"/>
		<path class="st3" d="M570.5,989.2h-4l11.7-38.3c0.7-2.2,1-3.4,1-3.8c0-0.5-0.1-0.9-0.4-1.1c-0.3-0.2-1-0.3-2.2-0.3h-1.1l0.4-1.4
			c3.5-0.1,6.1-0.5,7.8-1.2h0.8l-7.5,24.8c4-4.8,7.6-7.2,10.9-7.2c1.5,0,2.6,0.3,3.3,0.9c0.7,0.6,1.1,1.6,1.1,2.8c0,1-0.7,3.4-2,7.1
			l-2.9,8.3c-1.1,3.3-1.7,5.1-1.7,5.6c0,0.6,0.1,1,0.3,1.3c0.2,0.3,0.6,0.4,1,0.4c0.8,0,1.7-0.5,2.7-1.4c1-1,1.8-2.1,2.6-3.6h1.6
			c-1.1,2.3-2.5,4.1-4,5.4c-1.5,1.4-3,2.1-4.4,2.1c-1,0-1.9-0.4-2.6-1.1s-1.1-1.7-1.1-3c0-1.3,0.6-3.7,1.9-7.1l2.8-7.7
			c1.3-3.5,2-5.7,2-6.6c0-0.6-0.1-1-0.4-1.2c-0.3-0.3-0.8-0.4-1.4-0.4c-1,0-2.2,0.4-3.5,1.2c-1.4,0.8-2.8,2.2-4.2,4.1
			s-2.5,3.7-3.2,5.3c-0.7,1.7-1.6,4.3-2.6,7.9L570.5,989.2z"/>
		<path class="st3" d="M630.3,961.5l-0.5,1.5h-5l-4.4,14.5c-1.5,4.8-2.2,7.5-2.2,8.3c0,0.5,0.1,0.9,0.3,1.2c0.2,0.3,0.6,0.4,1,0.4
			c0.8,0,1.8-0.8,3.1-2.3c1.3-1.5,2.4-3.4,3.5-5.7h1.5c-1.4,3.3-2.9,5.8-4.6,7.6c-1.7,1.7-3.3,2.6-4.8,2.6c-1.1,0-2-0.4-2.7-1.2
			c-0.7-0.8-1-1.8-1-3c0-1,0.7-3.8,2.1-8.3l4.3-14.1h-4.6l0.5-1.5h4.5l3.1-10.1h4l-3.1,10.1H630.3z"/>
		<path class="st3" d="M630.2,980c0-2.7,0.6-5.5,1.9-8.7c1.2-3.1,3-5.7,5.3-7.6c2.3-1.9,4.5-2.9,6.7-2.9c2,0,3.6,0.8,4.9,2.5
			c1.3,1.7,1.9,3.9,1.9,6.8c0,3.5-0.7,6.7-2.1,9.8c-1.4,3.1-3.2,5.5-5.3,7.1c-2.1,1.6-4.2,2.5-6.3,2.5c-1.8,0-3.4-0.7-4.8-2.1
			C630.9,985.9,630.2,983.5,630.2,980z M633.7,983.8c0,1.2,0.3,2.2,0.9,3.1c0.6,0.8,1.5,1.3,2.6,1.3c3,0,5.4-2.8,7.3-8.4
			c1.9-5.6,2.9-9.9,2.9-12.9c0-1.5-0.3-2.7-0.9-3.4c-0.6-0.8-1.5-1.1-2.6-1.1c-2.8,0-5.2,2.6-7.2,7.8
			C634.7,975.2,633.7,979.8,633.7,983.8z"/>
		<path class="st3" d="M686.6,980.2h1.6c-2.8,6.3-6.4,9.4-10.8,9.4c-1.8,0-3.3-0.6-4.4-1.9c-1.1-1.3-1.7-3-1.7-5.2
			c0-2.7,0.7-5.8,2.2-9.3c1.5-3.5,3.6-6.4,6.3-8.9c2.7-2.5,5.1-3.8,7.1-3.8c1.2,0,2.2,0.4,2.8,1.2c0.6,0.8,1,1.8,1,2.9
			c0,2.4-1.2,4.7-3.6,6.9c-2.4,2.2-6,4.3-10.8,6.4c-0.6,1.9-0.9,3.8-0.9,5.5c0,1.4,0.3,2.5,0.8,3.2c0.6,0.7,1.4,1.1,2.5,1.1
			C681.6,987.7,684.3,985.2,686.6,980.2z M676.8,976.3c2.9-1.3,5.4-3.1,7.7-5.3c2.3-2.3,3.4-4.3,3.4-6.1c0-0.8-0.2-1.5-0.5-1.9
			c-0.3-0.4-0.9-0.6-1.5-0.6c-1.3,0-2.9,1.3-4.7,3.9C679.3,968.8,677.9,972.1,676.8,976.3z"/>
		<path class="st3" d="M694.1,965.7h-1.4c1-3.4,2.5-5.1,4.3-5.1c1,0,1.9,0.8,2.9,2.4c0.4,0.6,0.8,0.9,1.3,0.9c0.5,0,0.9-0.5,1.2-1.4
			c0.4-1.3,1-2,1.6-2c0.5,0,0.8,0.2,0.8,0.7c0,0.5-0.3,1.3-1,2.6c-2.7,5-4.5,8.8-5.5,11.5c-1,2.7-1.5,5.1-1.5,7.3
			c0,1.5,0.3,2.8,1,3.6c0.7,0.9,1.4,1.3,2.3,1.3c2.6,0,5.1-2,7.6-6.1c2.4-4,3.7-8,3.7-11.8c0-1.5-0.3-3-1-4.5
			c-0.4-0.9-0.6-1.7-0.6-2.4c0-1.5,0.6-2.3,1.7-2.3c0.7,0,1.2,0.4,1.6,1.2c0.4,0.8,0.6,1.8,0.6,3.2c0,2.9-0.6,6.6-1.9,10.8
			c-1.3,4.3-3.1,7.7-5.5,10.2c-2.4,2.5-4.9,3.7-7.6,3.7c-1.7,0-3.1-0.5-4.2-1.6c-1.1-1.1-1.6-2.6-1.6-4.5c0-2,0.5-4.2,1.6-6.6
			c1.1-2.4,2.9-5.5,5.5-9.3c0.4-0.6,0.8-1.2,1.1-1.8c0.3-0.5,0.5-0.8,0.6-1c-0.9,0.6-1.7,0.8-2.4,0.8c-0.7,0-1.4-0.3-1.9-0.8
			c-0.6-0.6-1.1-0.8-1.6-0.8C695.1,964.1,694.5,964.6,694.1,965.7z"/>
		<path class="st3" d="M732.6,980.2h1.6c-2.8,6.3-6.4,9.4-10.8,9.4c-1.8,0-3.3-0.6-4.4-1.9c-1.1-1.3-1.7-3-1.7-5.2
			c0-2.7,0.7-5.8,2.2-9.3c1.5-3.5,3.6-6.4,6.3-8.9c2.7-2.5,5.1-3.8,7.1-3.8c1.2,0,2.2,0.4,2.8,1.2c0.6,0.8,1,1.8,1,2.9
			c0,2.4-1.2,4.7-3.6,6.9c-2.4,2.2-6,4.3-10.8,6.4c-0.6,1.9-0.9,3.8-0.9,5.5c0,1.4,0.3,2.5,0.8,3.2c0.6,0.7,1.4,1.1,2.5,1.1
			C727.6,987.7,730.3,985.2,732.6,980.2z M722.7,976.3c2.9-1.3,5.4-3.1,7.7-5.3c2.3-2.3,3.4-4.3,3.4-6.1c0-0.8-0.2-1.5-0.5-1.9
			c-0.3-0.4-0.9-0.6-1.5-0.6c-1.3,0-2.9,1.3-4.7,3.9C725.3,968.8,723.8,972.1,722.7,976.3z"/>
		<path class="st3" d="M739.3,969.6h-1.5c0.9-2.5,2.1-4.6,3.5-6.3c1.4-1.7,2.8-2.6,4.2-2.6c1,0,1.7,0.4,2.1,1.1s0.7,1.9,0.7,3.5
			c0,1.9-0.5,4.7-1.5,8.2c0.1-0.2,0.5-1,1.1-2.4c1.6-3.7,3.1-6.4,4.3-8c1.2-1.6,2.5-2.5,3.7-2.5c0.8,0,1.4,0.2,1.9,0.7
			c0.5,0.5,0.7,1.1,0.7,1.8c0,0.7-0.2,1.2-0.6,1.6c-0.4,0.4-0.8,0.6-1.4,0.6c-0.6,0-1.2-0.4-1.8-1.1c-0.2-0.3-0.5-0.4-0.7-0.4
			c-1.1,0-2.8,2.7-5.1,8c-2.3,5.3-4.2,10.3-5.6,15l-0.7,2.4h-4l5.3-17.6c1-3.4,1.5-5.6,1.5-6.8c0-0.6-0.1-1.1-0.2-1.4
			c-0.2-0.3-0.4-0.5-0.7-0.5c-0.7,0-1.6,0.8-2.7,2.4C740.6,966.8,739.8,968.2,739.3,969.6z"/>
		<path class="st3" d="M762.1,969.6h-1.4c0.3-3.1,1-5.4,2.1-6.9c1.1-1.4,2.3-2.1,3.6-2.1c1.6,0,2.9,1,3.9,3c1,2,1.5,5.1,1.5,9.1
			c0,5.3-0.6,10.2-1.8,14.6c2.2-2.4,4.3-5.4,6.4-9c2.1-3.7,3.1-6.8,3.1-9.3c0-1.2-0.4-2.4-1.1-3.6c-0.7-1.2-1.1-2.1-1.1-2.7
			c0-0.6,0.2-1.1,0.5-1.5c0.3-0.4,0.8-0.6,1.2-0.6c0.8,0,1.4,0.5,2,1.4c0.5,0.9,0.8,2.2,0.8,4c0,2.7-0.8,5.9-2.4,9.7
			s-4,7.6-7.2,11.4c-3.1,3.8-6.3,7.1-9.4,10.2c-3.1,3-5.8,5.1-8,6.3c-2.2,1.2-4.4,1.8-6.6,1.8c-2.8,0-4.2-0.8-4.2-2.4
			c0-0.7,0.3-1.2,0.9-1.6c0.6-0.4,1.2-0.6,1.9-0.6c0.5,0,1.3,0.1,2.4,0.4c1.4,0.4,2.6,0.6,3.5,0.6c1.3,0,2.6-0.4,3.9-1.1
			c1.3-0.7,2.8-2,4.7-3.9c1.9-1.8,3.2-3.4,3.9-4.8c0.8-1.4,1.4-3.9,2-7.4c0.6-3.5,0.9-7.3,0.9-11.4c0-3.1-0.3-5.5-0.9-7.2
			c-0.6-1.7-1.3-2.5-2.1-2.5C763.4,963.4,762.4,965.4,762.1,969.6z"/>
		<path class="st3" d="M802,961.5l-0.5,1.5h-5l-4.4,14.5c-1.5,4.8-2.2,7.5-2.2,8.3c0,0.5,0.1,0.9,0.3,1.2c0.2,0.3,0.6,0.4,1,0.4
			c0.8,0,1.8-0.8,3.1-2.3c1.3-1.5,2.4-3.4,3.5-5.7h1.5c-1.4,3.3-2.9,5.8-4.6,7.6c-1.7,1.7-3.3,2.6-4.8,2.6c-1.1,0-2-0.4-2.7-1.2
			c-0.7-0.8-1-1.8-1-3c0-1,0.7-3.8,2.1-8.3l4.3-14.1H788l0.5-1.5h4.5l3.1-10.1h4l-3.1,10.1H802z"/>
		<path class="st3" d="M803.8,989.2h-4l11.7-38.3c0.7-2.2,1-3.4,1-3.8c0-0.5-0.1-0.9-0.4-1.1c-0.3-0.2-1-0.3-2.2-0.3h-1.1l0.4-1.4
			c3.5-0.1,6.1-0.5,7.8-1.2h0.8l-7.5,24.8c4-4.8,7.6-7.2,10.9-7.2c1.5,0,2.6,0.3,3.3,0.9c0.7,0.6,1.1,1.6,1.1,2.8c0,1-0.7,3.4-2,7.1
			l-2.9,8.3c-1.1,3.3-1.7,5.1-1.7,5.6c0,0.6,0.1,1,0.3,1.3c0.2,0.3,0.6,0.4,1,0.4c0.8,0,1.7-0.5,2.7-1.4c1-1,1.8-2.1,2.6-3.6h1.6
			c-1.1,2.3-2.5,4.1-4,5.4c-1.5,1.4-3,2.1-4.4,2.1c-1,0-1.9-0.4-2.6-1.1s-1.1-1.7-1.1-3c0-1.3,0.6-3.7,1.9-7.1l2.8-7.7
			c1.3-3.5,2-5.7,2-6.6c0-0.6-0.1-1-0.4-1.2c-0.3-0.3-0.8-0.4-1.4-0.4c-1,0-2.2,0.4-3.5,1.2c-1.4,0.8-2.8,2.2-4.2,4.1
			s-2.5,3.7-3.2,5.3c-0.7,1.7-1.6,4.3-2.6,7.9L803.8,989.2z"/>
		<path class="st3" d="M842.3,981.4h1.6c-1,2.1-2.4,4.1-4.1,5.7c-1.7,1.7-3.3,2.5-4.8,2.5c-1,0-2-0.4-2.7-1.1
			c-0.8-0.7-1.2-1.8-1.2-3.3c0-1.2,0.6-3.4,1.9-6.7l3.8-10.1c0.9-2.4,1.3-3.8,1.3-4.3c0-0.4-0.1-0.8-0.3-1c-0.2-0.2-0.5-0.3-0.9-0.3
			c-0.9,0-1.9,0.7-3.1,2c-1.2,1.3-2,2.6-2.5,3.6h-1.6c1.2-2.4,2.6-4.3,4.2-5.7s3-2.1,4.4-2.1c1,0,1.9,0.4,2.6,1.1
			c0.7,0.7,1,1.6,1,2.8c0,1.2-0.6,3.3-1.8,6.4l-3.2,8.6c-1.2,3.1-1.8,5.1-1.8,5.9c0,0.6,0.1,1.1,0.4,1.4c0.3,0.3,0.6,0.5,1.1,0.5
			C838.1,987.3,840.1,985.4,842.3,981.4z M839.8,945.9c0-0.8,0.3-1.5,0.8-2s1.2-0.8,2-0.8s1.5,0.3,2,0.8s0.8,1.2,0.8,2
			s-0.3,1.5-0.8,2.1c-0.6,0.6-1.2,0.9-2,0.9c-0.8,0-1.5-0.3-2.1-0.9C840.1,947.4,839.8,946.7,839.8,945.9z"/>
		<path class="st3" d="M870.6,982.5h1.7c-1.3,2.4-2.7,4.2-4.1,5.4c-1.4,1.2-2.8,1.8-4.2,1.8c-1,0-1.9-0.3-2.6-0.9
			c-0.7-0.6-1.1-1.5-1.1-2.7c0-1,0.5-3,1.5-5.9l3.6-10.1c1-2.8,1.4-4.6,1.4-5.4c0-0.7-0.2-1.3-0.5-1.6c-0.3-0.4-0.8-0.5-1.5-0.5
			c-1.7,0-3.9,2-6.6,5.9c-2.7,4-5,9.1-7,15.5l-1.6,5.3h-4.1l5.8-18.9c1.1-3.5,1.6-5.5,1.6-6c0-0.4-0.1-0.7-0.2-0.8
			c-0.1-0.2-0.3-0.3-0.6-0.3c-1.3,0-2.9,1.6-4.6,4.8H846c2.8-5,5.4-7.5,7.9-7.5c0.9,0,1.5,0.3,1.9,0.8c0.4,0.5,0.6,1.3,0.6,2.4
			c0,1.9-0.7,4.8-2.2,8.8c4-8,7.9-12,11.7-12c1.2,0,2.3,0.4,3.2,1.2c0.9,0.8,1.4,2,1.4,3.5c0,1-0.5,2.9-1.4,5.6l-3.6,10.6
			c-1,2.9-1.4,4.4-1.4,4.8c0,0.4,0.1,0.7,0.3,0.9c0.2,0.2,0.5,0.3,0.9,0.3c0.8,0,1.6-0.4,2.4-1.3
			C868.7,985.4,869.6,984.1,870.6,982.5z"/>
		<path class="st3" d="M881.6,980.7c-1.4-0.8-2.5-1.8-3.2-3.1c-0.7-1.3-1.1-2.8-1.1-4.6c0-3.2,1.2-6.1,3.5-8.6
			c2.3-2.5,4.9-3.8,7.8-3.8c0.9,0,1.8,0.1,2.5,0.4c0.8,0.3,1.5,0.7,2.1,1.3c1.5-1.2,2.7-1.8,3.7-1.8c0.8,0,1.4,0.2,2,0.7
			c0.5,0.5,0.8,1,0.8,1.7c0,1.1-0.5,1.6-1.5,1.6c-0.6,0-1.1-0.4-1.7-1.1c-0.4-0.5-0.7-0.7-1.1-0.7c-0.4,0-0.8,0.3-1.2,0.8
			c0.9,1.5,1.3,3.2,1.3,5.2c0,3.8-1.1,6.9-3.4,9.1c-2.3,2.2-5,3.5-8.2,4c-4.8,0.6-7.2,1.9-7.2,3.9c0,0.6,0.3,1.1,0.8,1.5
			c0.6,0.4,1.7,0.8,3.5,1.2c3.1,0.7,5.6,1.3,7.5,1.9c1.9,0.6,3.4,1.4,4.3,2.4c0.9,1.1,1.4,2.3,1.4,3.8c0,2.3-1.2,4.2-3.5,5.9
			c-2.3,1.7-5.6,2.6-9.8,2.6c-4,0-7.1-0.7-9.4-2c-2.2-1.3-3.4-2.9-3.4-4.9c0-1.4,0.5-2.7,1.6-3.6c1.1-1,2-1.5,2.8-1.5
			s1.2,0.3,1.2,0.9c0,0.3-0.3,0.7-0.8,1.3c-0.9,1-1.4,1.9-1.4,2.9c0,1.4,0.7,2.7,2.2,3.8c1.5,1.1,3.7,1.7,6.7,1.7
			c3.2,0,5.7-0.6,7.4-1.7c1.7-1.1,2.5-2.4,2.5-3.9c0-1.2-0.6-2.1-1.8-2.9c-1.2-0.7-3.7-1.5-7.6-2.5c-3.4-0.8-5.5-1.6-6.3-2.5
			c-0.8-0.8-1.3-1.8-1.3-2.8c0-1.4,0.7-2.7,2.1-4C877,982.1,879,981.2,881.6,980.7z M880.9,976.1c0,1.2,0.3,2.2,1,3
			c0.7,0.8,1.6,1.1,2.6,1.1c1.2,0,2.3-0.5,3.3-1.5c1-1,1.9-2.8,2.8-5.4c0.9-2.6,1.4-4.9,1.4-6.7c0-1.5-0.3-2.7-0.8-3.4
			c-0.5-0.8-1.4-1.1-2.4-1.1c-1.9,0-3.7,1.6-5.4,4.8C881.7,970,880.9,973.1,880.9,976.1z"/>
		<path class="st3" d="M918.3,965.7h-1.4c0.9-3.3,2-4.9,3.5-4.9c0.9,0,1.8,0.6,2.8,1.7c0.9,1.1,1.7,1.6,2.4,1.6
			c0.6,0,1.1-0.5,1.3-1.5c0.4-1.3,0.9-1.9,1.6-1.9c0.7,0,1,0.3,1,0.9c0,0.3-0.6,1.5-1.8,3.6c-2.8,4.8-4.6,8.7-5.5,11.9
			c-0.9,3.1-1.3,5.3-1.3,6.5c0,1.1,0.3,2.1,0.8,2.9c0.5,0.8,1.3,1.2,2.3,1.2c1.5,0,3.2-0.7,5.1-2.1s3.5-2.8,4.6-4.2
			c-0.1-0.6-0.1-1.1-0.1-1.8c0-4.6,0.9-8.8,2.8-12.9c1.8-4,3.8-6,5.8-6c0.8,0,1.5,0.3,1.9,0.9c0.4,0.6,0.6,1.5,0.6,2.7
			c0,2-0.6,4.3-1.7,6.7c-1.1,2.4-2.9,5.1-5.2,7.9c0.2,2.8,0.8,5,1.7,6.5c0.9,1.5,2.1,2.3,3.4,2.3c1.3,0,2.8-0.8,4.5-2.3
			c1.7-1.5,3.3-3.9,4.6-7c1.4-3.1,2-5.7,2-7.9c0-1.3-0.4-2.7-1.1-4.2c-0.6-1.4-1-2.5-1-3.5c0-0.7,0.2-1.2,0.5-1.6s0.8-0.6,1.2-0.6
			c0.6,0,1.2,0.4,1.7,1.3s0.8,2.3,0.8,4.3c0,2.9-0.7,6.5-2.1,10.7c-1.4,4.2-3.4,7.4-5.9,9.5c-2.5,2.2-4.9,3.2-7.2,3.2
			c-1.9,0-3.5-0.7-4.7-2.1c-1.2-1.4-2-2.9-2.3-4.4c-2.1,2.2-4.2,3.8-6.1,4.9c-2,1.1-3.9,1.7-5.7,1.7c-1.8,0-3.2-0.6-4.2-1.7
			c-0.9-1.1-1.4-2.5-1.4-4.2c0-3.7,2.4-8.9,7.1-15.7c1.2-1.6,1.9-2.6,2.1-3c-1,0.5-1.8,0.8-2.7,0.8c-0.8,0-1.6-0.4-2.5-1.2
			c-0.4-0.4-0.7-0.6-1-0.6c-0.5,0-1,0.4-1.3,1.3L918.3,965.7z M937.4,976.8c1.9-2.5,3.3-4.8,4.2-7c0.9-2.1,1.4-4,1.4-5.7
			c0-0.7-0.1-1.2-0.3-1.5c-0.2-0.3-0.5-0.5-0.9-0.5c-0.9,0-1.9,1.1-2.9,3.3c-1.1,2.2-1.6,5.4-1.6,9.7
			C937.3,975.5,937.4,976.1,937.4,976.8z"/>
		<path class="st3" d="M973.8,980.2h1.6c-2.8,6.3-6.4,9.4-10.8,9.4c-1.8,0-3.3-0.6-4.4-1.9c-1.1-1.3-1.7-3-1.7-5.2
			c0-2.7,0.7-5.8,2.2-9.3c1.5-3.5,3.6-6.4,6.3-8.9c2.7-2.5,5.1-3.8,7.1-3.8c1.2,0,2.2,0.4,2.8,1.2c0.6,0.8,1,1.8,1,2.9
			c0,2.4-1.2,4.7-3.6,6.9c-2.4,2.2-6,4.3-10.8,6.4c-0.6,1.9-0.9,3.8-0.9,5.5c0,1.4,0.3,2.5,0.8,3.2c0.6,0.7,1.4,1.1,2.5,1.1
			C968.8,987.7,971.5,985.2,973.8,980.2z M963.9,976.3c2.9-1.3,5.4-3.1,7.7-5.3c2.3-2.3,3.4-4.3,3.4-6.1c0-0.8-0.2-1.5-0.5-1.9
			c-0.3-0.4-0.9-0.6-1.5-0.6c-1.3,0-2.9,1.3-4.7,3.9C966.5,968.8,965,972.1,963.9,976.3z"/>
		<path class="st3" d="M1020,982.7h1.6c-1,1.8-2.3,3.4-3.8,4.8c-1.5,1.4-2.9,2.1-4.2,2.1c-1.2,0-2.1-0.4-2.7-1.1s-0.9-1.8-0.9-3.2
			c0-0.6,0.1-1.2,0.2-1.8c-3.1,4-6.1,6-8.7,6c-1.5,0-2.8-0.6-3.9-1.8s-1.6-3-1.6-5.3c0-3.2,0.9-6.7,2.7-10.3c1.8-3.7,4-6.5,6.6-8.6
			c2.6-2,4.9-3,6.8-3c1,0,1.8,0.2,2.5,0.7s1.3,1.2,1.7,2.1l4.1-13.4c0.5-1.6,0.7-2.6,0.7-2.9c0-0.5-0.1-0.9-0.4-1.1
			c-0.3-0.2-1-0.3-2.2-0.3h-0.9l0.4-1.4c3.2,0,5.8-0.4,7.7-1.2h0.8l-10.6,35c-1.3,4.3-2,6.9-2,7.6c0,0.6,0.1,1,0.3,1.2
			c0.2,0.3,0.5,0.4,0.9,0.4c0.7,0,1.4-0.4,2.2-1.2C1018.2,985.4,1019.1,984.2,1020,982.7z M1000,984.1c0,1.2,0.2,2.2,0.6,2.8
			s1.1,0.9,1.9,0.9c1.5,0,3.2-1,5.1-3.1c1.9-2.1,3.7-5.5,5.4-10.2c1.6-4.7,2.5-7.8,2.5-9c0-0.8-0.3-1.6-0.8-2.2
			c-0.6-0.7-1.3-1-2.2-1c-1.4,0-3,0.8-4.5,2.5c-1.6,1.7-3.3,4.6-5.2,8.8C1000.9,977.8,1000,981.2,1000,984.1z"/>
		<path class="st3" d="M1025,980c0-2.7,0.6-5.5,1.9-8.7c1.2-3.1,3-5.7,5.3-7.6c2.3-1.9,4.5-2.9,6.7-2.9c2,0,3.6,0.8,4.9,2.5
			c1.3,1.7,1.9,3.9,1.9,6.8c0,3.5-0.7,6.7-2.1,9.8c-1.4,3.1-3.2,5.5-5.3,7.1c-2.1,1.6-4.2,2.5-6.3,2.5c-1.8,0-3.4-0.7-4.8-2.1
			C1025.7,985.9,1025,983.5,1025,980z M1028.5,983.8c0,1.2,0.3,2.2,0.9,3.1c0.6,0.8,1.5,1.3,2.6,1.3c3,0,5.4-2.8,7.3-8.4
			c1.9-5.6,2.9-9.9,2.9-12.9c0-1.5-0.3-2.7-0.9-3.4c-0.6-0.8-1.5-1.1-2.6-1.1c-2.8,0-5.2,2.6-7.2,7.8
			C1029.5,975.2,1028.5,979.8,1028.5,983.8z"/>
	</g>
</g>
</svg>
